<svg viewBox="0 0 197 123" fill="none" xmlns="http://www.w3.org/2000/svg">
<path d="M166.609 94.6731C166.611 91.0315 165.894 87.4254 164.502 84.0606C163.109 80.6959 161.067 77.6385 158.492 75.063C155.917 72.4876 152.86 70.4445 149.495 69.0507C146.13 67.6568 142.524 66.9394 138.882 66.9394C137.294 66.94 135.71 67.079 134.146 67.3547C134.166 56.8902 130.027 46.8467 122.64 39.4335C115.253 32.0204 105.223 27.8449 94.7569 27.8256C84.2909 27.8064 74.2459 31.9449 66.8317 39.3307C59.4175 46.7166 55.2414 56.7449 55.2221 67.2093C53.9521 67.0353 52.672 66.9451 51.3901 66.9394C44.1573 66.9086 37.1987 69.705 31.9989 74.7319C26.799 79.7588 23.7696 86.6183 23.5569 93.8471C23.3442 101.076 25.965 108.102 30.8602 113.425C35.7554 118.749 42.5375 121.95 49.7597 122.344H140.585C147.631 121.911 154.246 118.807 159.081 113.665C163.917 108.523 166.609 101.731 166.609 94.6731Z" fill="#D5E4FF"/>
<path d="M197 38.8013C197.007 36.4261 196.493 34.0783 195.494 31.9232C194.495 29.7681 193.036 27.8581 191.219 26.3277C189.403 24.7973 187.272 23.6837 184.979 23.0654C182.685 22.4471 180.284 22.339 177.944 22.7488C177.827 16.6826 175.337 10.9037 171.009 6.65113C166.681 2.39858 160.858 0.0109033 154.79 3.72496e-05C148.722 -0.0108288 142.891 2.35598 138.548 6.593C134.204 10.83 131.694 16.6 131.555 22.6657C130.809 22.5576 130.056 22.5021 129.302 22.4996C125.066 22.5049 121 24.1578 117.962 27.1082C114.924 30.0587 113.154 34.0753 113.026 38.3078C112.897 42.5403 114.421 46.6567 117.275 49.7855C120.129 52.9144 124.088 54.8102 128.315 55.0718H181.703C185.844 54.8131 189.731 52.9865 192.573 49.9639C195.414 46.9413 196.997 42.9497 197 38.8013Z" fill="#EAF1FF"/>
<path d="M47.3115 91.1833C47.3115 88.7461 46.3432 86.4088 44.6197 84.6855C42.8961 82.9622 40.5585 81.9941 38.121 81.9941C37.5953 81.9913 37.0704 82.0364 36.5529 82.129C36.5529 78.662 35.1754 75.337 32.7235 72.8854C30.2715 70.4338 26.946 69.0565 23.4785 69.0565C20.0109 69.0565 16.6854 70.4338 14.2334 72.8854C11.7815 75.337 10.404 78.662 10.404 82.129C9.98039 82.0749 9.55377 82.0471 9.12669 82.046C6.74799 82.0625 4.46834 83.0005 2.76706 84.6628C1.06577 86.3252 0.0754078 88.5823 0.00413104 90.9596C-0.0671457 93.3369 0.786245 95.6493 2.38488 97.4105C3.98352 99.1718 6.20286 100.245 8.57629 100.404H38.6922C41.0347 100.258 43.2327 99.2214 44.8354 97.507C46.4381 95.7925 47.324 93.53 47.3115 91.1833Z" fill="#B1CDFF"/>
</svg>
