<svg viewBox="0 0 99 108" fill="none" xmlns="http://www.w3.org/2000/svg">
<g clip-path="url(#clip0)">
<path d="M50.0015 6.44282C50.0015 6.44282 52.8313 -1.19911 61.6584 0.347823C71.9638 2.15212 70.0165 7.13913 73.8424 15.831C77.6683 24.5228 88.5273 23.7058 90.9821 36.4698C95.1641 58.2066 75.1629 58.653 68.5691 54.1581C61.9752 49.6632 62.943 27.3001 62.943 27.3001L50.0015 6.44282Z" fill="#734C13"/>
<path d="M53.8514 5.95279C50.3752 4.49208 45.0623 3.82434 43.8511 7.56546C42.64 11.3066 42.5411 18.613 39.6451 21.0492C36.749 23.4854 34.3937 31.1024 37.9062 36.4936C41.4188 41.8847 32.5603 42.2718 34.1776 51.3271C35.7948 60.3823 49.5885 61.9398 56.6139 55.6486C63.6392 49.3575 63.9633 24.9898 61.343 15.9962C58.7227 7.00268 53.8514 5.95279 53.8514 5.95279Z" fill="#734C13"/>
<path d="M79.2256 108.479L76.6977 86.741L87.8204 88.7631L86.3037 108.479H79.2256Z" fill="#CE7A63"/>
<path d="M46.8685 67.0252L42.8246 108.479H77.7087L74.6752 67.0252L76.6975 86.741L87.8202 88.7631C87.8202 88.7631 85.7979 58.4312 83.7756 54.3869C81.7533 50.3427 76.1919 45.7927 71.1362 46.2984C66.0804 46.8041 53.0003 46.4036 46.8685 50.8482C40.7367 55.2928 34.0909 70.6678 33.4126 72.6704C32.7502 74.6262 26.4032 79.1602 27.6396 82.1491C28.034 83.1026 27.6397 84.2555 30.7885 86.8885C33.9373 89.5215 36.5613 88.9949 39.1853 87.9417C41.8093 86.8885 46.8685 67.0252 46.8685 67.0252Z" fill="#407BFF"/>
<path d="M65.3791 28.4919C65.5341 33.9153 67.6235 44.2388 71.1213 46.2408C71.1213 46.2408 69.4699 54.8108 60.4036 56.9546C51.3372 59.0985 56.4218 47.8328 56.4218 47.8328C61.5186 45.2819 59.2502 43.0739 57.3133 39.2923L65.3791 28.4919Z" fill="#CE7A63"/>
<path opacity="0.2" d="M62.0631 32.8765L57.2934 39.262C57.7542 40.14 58.139 41.056 58.4437 42.0002C60.5999 41.1549 63.1103 38.0074 62.8166 35.6444C62.7368 34.682 62.4815 33.7442 62.0631 32.8765Z" fill="black"/>
<path d="M69.9248 17C70.2235 25.8953 70.5257 29.6542 66.458 34.6607C60.338 42.1998 49.2645 40.7462 46.3024 32.1456C43.638 24.409 43.6151 11.1616 52.0328 6.71677C53.8775 5.7363 55.9378 5.23651 58.0187 5.26471C60.0996 5.29291 62.1321 5.84817 63.9237 6.87792C65.7154 7.90767 67.207 9.37782 68.2571 11.1491C69.3073 12.9205 69.8813 14.9343 69.9248 17Z" fill="#CE7A63"/>
<path d="M51.1981 5.93647C48.507 8.37678 51.239 10.9173 57.2889 11.746C63.3388 12.5748 63.763 12.888 63.8689 17.554C63.9749 22.2199 73.0164 24.4227 72.0704 19.7986C71.1244 15.1745 70.7886 6.05724 65.9105 4.65183C61.0324 3.24642 54.0513 3.3865 51.1981 5.93647Z" fill="#734C13"/>
<path d="M51.2592 8.10159C48.7286 9.61861 44.0464 17.7532 44.0031 15.4496C43.9597 13.146 44.4267 9.83171 47.4461 7.93563C48.8551 6.96201 50.3926 6.18847 52.0135 5.63778L51.2592 8.10159Z" fill="#734C13"/>
<path d="M73.1278 23.8449C72.6576 25.5016 71.5716 26.926 70.0907 27.8282C68.1205 29.0071 66.6334 27.4414 66.7608 25.3156C66.8782 23.3988 68.0344 20.4807 70.2155 20.1643C72.3967 19.8479 73.6809 21.818 73.1278 23.8449Z" fill="#CE7A63"/>
<path d="M50.4843 23.3035C50.4843 23.3035 49.5463 26.5303 48.3252 28.168C49.3707 28.9557 50.9637 28.3793 50.9637 28.3793L50.4843 23.3035Z" fill="#BA4D3C"/>
<path d="M58.9825 16.7599C59.0259 16.772 59.0718 16.7729 59.116 16.7625C59.1601 16.7521 59.201 16.7306 59.2347 16.7002C59.2601 16.6747 59.2802 16.6445 59.2939 16.6113C59.3076 16.5782 59.3146 16.5427 59.3145 16.5071C59.3143 16.4714 59.3071 16.4362 59.2932 16.4034C59.2793 16.3707 59.259 16.3411 59.2334 16.3164C58.7868 15.8501 58.2317 15.4995 57.6157 15.2946C56.9997 15.0897 56.341 15.0365 55.6959 15.1397C55.6565 15.1426 55.6181 15.154 55.5834 15.173C55.5486 15.192 55.5184 15.2183 55.4947 15.2499C55.471 15.2816 55.4545 15.3179 55.4462 15.3563C55.4379 15.3947 55.4382 15.4344 55.4469 15.4725C55.4556 15.5106 55.4725 15.5463 55.4966 15.5771C55.5206 15.6079 55.5511 15.633 55.5861 15.6508C55.6211 15.6686 55.6596 15.6786 55.699 15.6801C55.7384 15.6815 55.7778 15.6745 55.8144 15.6594C56.3714 15.5815 56.9373 15.6356 57.4659 15.8173C57.9944 15.999 58.4705 16.3031 58.8549 16.7047C58.8925 16.7326 58.9361 16.7515 58.9825 16.7599Z" fill="#5B3700"/>
<path d="M53.6087 20.5534C53.5501 20.5556 53.4937 20.5765 53.4476 20.6129C53.4016 20.6493 53.3684 20.6994 53.353 20.7556C53.3377 20.8118 53.3409 20.8712 53.3623 20.925C53.3837 20.9787 53.4221 21.024 53.4718 21.0541C54.0162 21.4025 54.6383 21.6159 55.2863 21.6764C55.9343 21.737 56.5894 21.6429 57.1971 21.4021C57.2624 21.3697 57.3127 21.3135 57.3374 21.2454C57.3621 21.1773 57.3591 21.1027 57.3291 21.0374C57.2989 20.9731 57.2442 20.9236 57.1769 20.8996C57.1096 20.8757 57.0351 20.8791 56.9697 20.9093C56.4453 21.1144 55.8805 21.1929 55.3226 21.1383C54.7646 21.0837 54.2295 20.8975 53.7618 20.5953C53.7161 20.5668 53.6629 20.5523 53.6087 20.5534Z" fill="#5B3700"/>
<path d="M44.7243 21.8812C44.6797 21.8811 44.6358 21.8925 44.5968 21.9141C44.5577 21.9358 44.5248 21.967 44.5013 22.0048C44.4629 22.067 44.4504 22.1413 44.4665 22.2118C44.4826 22.2823 44.526 22.3434 44.5874 22.3819C45.1318 22.7301 45.754 22.9427 46.4018 23.0021C47.0497 23.0615 47.7044 22.9658 48.3111 22.7232C48.3763 22.6925 48.4269 22.6376 48.4519 22.5705C48.4769 22.5035 48.4743 22.4297 48.4447 22.3652C48.4128 22.3008 48.3568 22.2515 48.2884 22.2279C48.22 22.2043 48.1447 22.2082 48.0785 22.2387C47.5547 22.4446 46.9901 22.5228 46.4325 22.4667C45.875 22.4106 45.341 22.2218 44.8758 21.9164C44.8296 21.8913 44.7772 21.8791 44.7243 21.8812Z" fill="#5B3700"/>
<path d="M44.866 16.936C44.9127 16.9506 44.9627 16.9523 45.0106 16.941C45.0586 16.9297 45.1027 16.9058 45.1383 16.8718C45.4785 16.424 45.922 16.0629 46.4309 15.8195C46.9398 15.576 47.4991 15.4573 48.061 15.4736C48.1328 15.4796 48.2046 15.4578 48.2611 15.4127C48.3177 15.3677 48.3547 15.3029 48.3644 15.2319C48.3688 15.1965 48.366 15.1606 48.3563 15.1264C48.3465 15.0922 48.33 15.0603 48.3077 15.0326C48.2854 15.005 48.2576 14.982 48.2261 14.9651C48.1947 14.9482 48.16 14.9377 48.1242 14.9343C47.4733 14.9085 46.8236 15.0377 46.2296 15.311C45.6357 15.5843 45.1146 15.9937 44.7101 16.5051C44.6871 16.5327 44.6698 16.5646 44.6591 16.5988C44.6485 16.6329 44.6448 16.6688 44.6482 16.7042C44.6517 16.7397 44.6622 16.774 44.6791 16.8052C44.6961 16.8364 44.7192 16.8639 44.747 16.8861C44.7809 16.9138 44.8222 16.9311 44.866 16.936Z" fill="#5B3700"/>
<path d="M68.1787 21.8523L62.942 27.4031C62.942 27.4031 62.9437 32.0293 65.7552 33.3023L69.5974 28.0204C69.5974 28.0204 68.7078 37.6989 57.7453 41.1341C46.7829 44.5692 45.0977 29.1546 45.0977 29.1546C45.0977 29.1546 48.7667 25.4361 50.8122 25.2576C52.8576 25.079 58.0554 25.9778 60.5077 25.9244C62.96 25.871 68.1787 21.8523 68.1787 21.8523Z" fill="white"/>
<path d="M18.7184 47.9204C18.1922 47.9205 17.6719 48.4472 17.6673 49.5003C17.6654 49.9277 18.7238 52.1189 19.2368 53.713C19.5547 54.606 18.0932 54.9905 16.0944 55.2928C14.1183 55.5916 11.617 55.8164 9.79065 55.2928C10.5043 57.4753 20.2928 60.0321 20.2928 60.0321C20.2928 60.0321 27.3761 61.612 26.8513 59.5056C26.3265 57.3992 25.016 56.3459 22.9168 54.7662C21.8354 52.6394 20.8942 51.4998 20.2928 50.0268C20.0143 49.3447 19.2446 47.9203 18.7184 47.9204Z" fill="#C46950"/>
<path d="M7.80106 52.1164L7.59104 52.1969L7.38688 52.2836L7.80106 52.1164ZM7.80106 52.1164L7.38688 52.2836L7.00553 52.4708L7.80106 52.1164ZM8.22919 51.9792L8.01456 52.0434L7.80106 52.1164L8.22919 51.9792ZM7.38688 52.2836L7.19092 52.3754L7.00553 52.4708L7.38688 52.2836ZM7.00553 52.4708L6.83307 52.5687L6.6759 52.6677L7.00553 52.4708ZM7.80106 52.1164L7.00553 52.4708L6.41688 52.8641L7.80106 52.1164ZM7.00553 52.4708L6.6759 52.6677L6.41688 52.8641L7.00553 52.4708ZM6.6759 52.6677L6.53638 52.7666L6.41688 52.8641L6.6759 52.6677ZM6.41688 52.8641L6.31974 52.9589L6.24734 53.0498L6.41688 52.8641ZM25.0087 47.3373L8.22919 51.9792L7.80106 52.1164L25.0087 47.3373ZM7.80106 52.1164L6.41688 52.8641L4.59146 55.9161L7.80106 52.1164ZM6.41688 52.8641L6.24734 53.0498L4.4861 55.6969L6.41688 52.8641ZM25.0087 47.3373L24.8017 47.3898L8.22919 51.9792L25.0087 47.3373ZM25.6626 47.2602L25.0087 47.3373L7.80106 52.1164L25.6626 47.2602ZM6.24734 53.0498L4.5302 55.6138L4.4861 55.6969L6.24734 53.0498ZM6.41688 52.8641L4.4861 55.6969L4.59146 55.9161L6.41688 52.8641ZM25.3732 47.2726L25.1997 47.2983L25.0087 47.3373L25.3732 47.2726ZM25.6626 47.2602L25.3732 47.2726L25.0087 47.3373L25.6626 47.2602ZM25.6626 47.2602L25.528 47.26L25.3732 47.2726L25.6626 47.2602ZM24.2204 50.1627L25.6626 47.2602L7.80106 52.1164L24.2204 50.1627ZM25.8662 47.2981L25.7758 47.273L25.6626 47.2602L25.8662 47.2981ZM4.4861 55.6969L4.47152 55.7689L4.48511 55.8296L4.4861 55.6969ZM25.9733 47.3843L25.8662 47.2981L25.6626 47.2602L25.9733 47.3843ZM24.2204 50.1627L7.80106 52.1164L4.59146 55.9161L24.2204 50.1627ZM4.48511 55.8296L4.74461 56.4819L4.78504 56.5311L4.48511 55.8296ZM4.4861 55.6969L4.48511 55.8296L4.59146 55.9161L4.4861 55.6969ZM25.9733 47.3843L25.9325 47.3353L25.8662 47.2981L25.9733 47.3843ZM4.52553 55.8788L4.48511 55.8296L4.78504 56.5311L4.52553 55.8788ZM4.52553 55.8788L4.78504 56.5311L4.85097 56.5684L4.52553 55.8788ZM4.48511 55.8296L4.52553 55.8788L4.59146 55.9161L4.48511 55.8296ZM25.9733 47.3843L25.9872 47.4448L26.2326 48.0367L25.9733 47.3843ZM4.59146 55.9161L4.52553 55.8788L4.85097 56.5684L4.59146 55.9161ZM25.9872 47.4448L26.2465 48.0972L26.2326 48.0367L25.9872 47.4448ZM4.59146 55.9161L4.85097 56.5684L4.94106 56.5937L4.59146 55.9161ZM25.973 47.5167L25.9872 47.4448L25.9733 47.3843L25.973 47.5167ZM4.68155 55.9413L4.59146 55.9161L4.94106 56.5937L4.68155 55.9413ZM25.9872 47.4448L25.973 47.5167L26.2465 48.0972L25.9872 47.4448ZM25.973 47.5167L26.2323 48.1692L26.2465 48.0972L25.973 47.5167ZM4.68155 55.9413L4.94106 56.5937L5.05397 56.6066L4.68155 55.9413ZM4.59146 55.9161L4.68155 55.9413L4.79446 55.9542L4.59146 55.9161ZM4.79446 55.9542L4.68155 55.9413L5.05397 56.6066L4.79446 55.9542ZM25.973 47.5167L25.9292 47.5997L26.2323 48.1692L25.973 47.5167ZM25.9292 47.5997L26.1886 48.2521L26.2323 48.1692L25.9292 47.5997ZM4.79446 55.9542L5.05397 56.6066L5.18837 56.6069L4.79446 55.9542ZM4.59146 55.9161L4.79446 55.9542L5.08339 55.9421L4.59146 55.9161ZM4.92885 55.9546L4.79446 55.9542L5.18837 56.6069L4.92885 55.9546ZM4.92885 55.9546L5.18837 56.6069L5.34291 56.5944L4.92885 55.9546ZM4.79446 55.9542L4.92885 55.9546L5.08339 55.9421L4.79446 55.9542ZM5.08339 55.9421L4.92885 55.9546L5.34291 56.5944L5.08339 55.9421ZM5.08339 55.9421L5.34291 56.5944L5.51625 56.5689L5.08339 55.9421ZM5.25673 55.9165L5.08339 55.9421L5.51625 56.5689L5.25673 55.9165ZM5.25673 55.9165L5.51625 56.5689L5.70705 56.5299L5.25673 55.9165ZM5.08339 55.9421L5.25673 55.9165L5.44753 55.8776L5.08339 55.9421ZM5.44753 55.8776L5.25673 55.9165L5.70705 56.5299L5.44753 55.8776ZM5.44753 55.8776L5.70705 56.5299L5.91398 56.4774L5.44753 55.8776ZM5.65446 55.8251L5.44753 55.8776L5.91398 56.4774L5.65446 55.8251ZM24.2204 50.1627L25.9733 47.3843L25.6626 47.2602L24.2204 50.1627ZM24.2204 50.1627L25.973 47.5167L25.9733 47.3843L24.2204 50.1627ZM24.2204 50.1627L25.9292 47.5997L25.973 47.5167L24.2204 50.1627ZM25.9292 47.5997L24.2204 50.1627L26.1886 48.2521L25.9292 47.5997ZM4.59146 55.9161L5.08339 55.9421L22.2375 51.2344L4.59146 55.9161ZM5.08339 55.9421L5.44753 55.8776L22.2375 51.2344L5.08339 55.9421ZM5.65446 55.8251L5.91398 56.4774L22.497 51.8871L5.65446 55.8251ZM5.44753 55.8776L5.65446 55.8251L22.2375 51.2344L5.44753 55.8776ZM24.2204 50.1627L24.4799 50.8154L26.1886 48.2521L24.2204 50.1627ZM4.59146 55.9161L23.0809 50.9295L24.2204 50.1627L4.59146 55.9161ZM4.59146 55.9161L22.2375 51.2344L23.0809 50.9295L4.59146 55.9161ZM22.2375 51.2344L5.65446 55.8251L22.497 51.8871L22.2375 51.2344ZM24.2204 50.1627L24.1482 50.2536L24.4799 50.8154L24.2204 50.1627ZM24.1482 50.2536L24.4077 50.9063L24.4799 50.8154L24.1482 50.2536ZM24.0512 50.3485L24.1482 50.2536L24.2204 50.1627L24.0512 50.3485ZM24.1482 50.2536L24.0512 50.3485L24.4077 50.9063L24.1482 50.2536ZM24.0512 50.3485L24.3107 51.0012L24.4077 50.9063L24.0512 50.3485ZM23.7923 50.545L24.0512 50.3485L24.2204 50.1627L23.7923 50.545ZM24.0512 50.3485L23.9318 50.446L24.3107 51.0012L24.0512 50.3485ZM23.9318 50.446L24.1913 51.0988L24.3107 51.0012L23.9318 50.446ZM23.7923 50.545L23.9318 50.446L24.0512 50.3485L23.7923 50.545ZM23.9318 50.446L23.7923 50.545L24.1913 51.0988L23.9318 50.446ZM23.7923 50.545L24.0518 51.1978L24.1913 51.0988L23.7923 50.545ZM23.0809 50.9295L23.7923 50.545L24.2204 50.1627L23.0809 50.9295ZM23.6351 50.6441L23.8946 51.2969L24.0518 51.1978L23.6351 50.6441ZM23.7923 50.545L23.6351 50.6441L24.0518 51.1978L23.7923 50.545ZM23.4626 50.7421L23.7221 51.3949L23.8946 51.2969L23.4626 50.7421ZM23.6351 50.6441L23.4626 50.7421L23.8946 51.2969L23.6351 50.6441ZM23.4626 50.7421L23.6351 50.6441L23.7923 50.545L23.4626 50.7421ZM22.2375 51.2344L22.497 51.8871L22.7119 51.8229L22.2375 51.2344ZM23.2771 50.8377L23.5366 51.4904L23.7221 51.3949L23.2771 50.8377ZM23.0809 50.9295L23.4626 50.7421L23.7923 50.545L23.0809 50.9295ZM23.4626 50.7421L23.2771 50.8377L23.7221 51.3949L23.4626 50.7421ZM22.4524 51.1701L22.7119 51.8229L22.9257 51.7498L22.4524 51.1701ZM23.0809 50.9295L23.3404 51.5823L23.5366 51.4904L23.0809 50.9295ZM22.4524 51.1701L22.2375 51.2344L22.7119 51.8229L22.4524 51.1701ZM23.2771 50.8377L23.0809 50.9295L23.5366 51.4904L23.2771 50.8377ZM22.8765 51.0164L23.136 51.6691L23.3404 51.5823L22.8765 51.0164ZM22.6662 51.097L22.9257 51.7498L23.136 51.6691L22.6662 51.097ZM23.0809 50.9295L23.2771 50.8377L23.4626 50.7421L23.0809 50.9295ZM22.6662 51.097L22.4524 51.1701L22.9257 51.7498L22.6662 51.097ZM22.2375 51.2344L22.4524 51.1701L22.6662 51.097L22.2375 51.2344ZM23.0809 50.9295L22.8765 51.0164L23.3404 51.5823L23.0809 50.9295ZM22.2375 51.2344L22.6662 51.097L23.0809 50.9295L22.2375 51.2344ZM22.8765 51.0164L22.6662 51.097L23.136 51.6691L22.8765 51.0164ZM22.6662 51.097L22.8765 51.0164L23.0809 50.9295L22.6662 51.097Z" fill="black"/>
<path d="M22.3852 49.5C21.5686 49.5003 21.1162 50.7088 20.81 51.0799C20.5039 51.451 20.0837 52.1331 19.5025 54.9129C19.7272 55.7189 20.1703 56.4796 20.5887 57.45C20.3207 57.3124 20.1455 57.2919 20.0837 57.2138C20.0837 57.2138 17.7887 54.4307 17.7298 53.6779C17.6709 52.9251 19.2376 50.0267 18.1925 50.0267C17.1473 50.0267 16.3956 51.6064 16.3956 51.6064C16.3956 51.6064 15.5878 52.9393 15.4447 53.4893C15.3016 54.0392 17.6638 58.4522 17.6638 58.4522C17.0681 57.7801 14.4448 54.6475 14.1734 53.974C13.902 53.3005 15.0437 52.1331 15.0437 52.1331C15.564 51.6064 15.5616 50.5441 15.0437 50.5533C14.5258 50.5625 13.4628 51.6063 12.9445 52.1331C12.4261 52.6598 12.2481 53.4078 12.4159 54.766C12.5838 56.1243 14.5151 57.9256 14.5151 57.9256C13.7643 57.4899 11.609 55.4652 11.4876 54.589C11.4876 54.589 12.2025 52.4758 11.4876 52.1331C10.4928 51.6561 9.58283 54.5891 9.58283 54.5891C9.58283 54.5891 9.27186 55.9754 10.3215 57.2138C11.371 58.4522 12.7671 60.0319 13.4703 60.5585C14.1734 61.0851 20.8042 62.1309 21.3356 62.3979C21.867 62.6649 23.4592 71.3606 23.4592 71.3606C24.6855 74.5166 25.8767 77.6686 27.103 80.8246C27.2679 81.2338 27.4637 81.682 27.6286 82.0911C28.6571 83.3101 29.6547 84.49 31.2646 84.9971C32.186 85.3174 33.0889 85.4938 34.068 85.3246C36.1315 84.9986 37.9394 83.225 38.4487 81.016C38.525 80.6705 38.6364 80.3291 38.4014 79.9117C35.0377 74.0957 31.678 68.2448 28.3535 62.3979C27.8258 61.4502 27.3023 60.4675 26.7788 59.4847C26.5232 59.2422 26.3068 58.9688 26.0079 58.7921C25.1813 58.2702 24.3506 57.7833 23.5241 57.2613C23.3262 57.1319 23.2108 56.9057 23.0562 56.7105C22.2997 55.5942 21.8682 53.974 21.8682 53.974C21.9579 53.2419 22.3982 52.5341 22.6547 51.807C22.9112 51.0799 23.2018 49.4997 22.3852 49.5Z" fill="#CE7A63"/>
</g>
<defs>
<clipPath id="clip0">
<rect width="99" height="108" fill="white"/>
</clipPath>
</defs>
</svg>
