<svg width="70" height="89" viewBox="0 0 70 89" fill="none" xmlns="http://www.w3.org/2000/svg">
<g clip-path="url(#clip0)">
<path d="M56.5913 24.1656C56.4882 24.2349 56.4194 24.3389 56.3506 24.4083C54.2534 25.5871 52.1218 26.7659 50.0245 27.91C46.7239 29.7476 43.389 31.6198 40.0884 33.4574C38.5756 34.2895 37.0628 35.1216 35.5501 35.9883C35.2406 36.1617 35.0687 36.1617 34.8624 35.8497C34.0373 34.6015 33.2121 33.388 32.3526 32.1399C32.2151 32.2439 32.0776 32.3479 31.94 32.4519C32.1119 33.3187 32.3182 34.1855 32.4901 35.0175C33.0402 34.9829 33.5216 35.0869 33.9341 35.4683C34.7937 36.231 34.4155 37.1671 33.4872 37.5138C33.3497 37.5485 33.2465 37.6179 33.109 37.6525C33.1778 37.9992 33.2465 38.3459 33.3153 38.7273C34.0373 38.7967 34.7937 38.866 35.3438 39.4207C35.7563 39.8368 35.722 40.1835 35.2062 40.4262C34.7593 40.6342 34.278 40.7382 33.831 40.8769C33.8654 41.293 33.9341 41.709 33.9685 42.1251C34.5186 42.2291 35.1031 42.2638 35.6532 42.4024C35.8595 42.4371 36.1345 42.7145 36.1345 42.8878C36.1345 43.0958 35.9282 43.4079 35.722 43.4772C35.1719 43.6506 34.553 43.7546 33.9685 43.8933C33.7279 44.8987 33.0059 45.3841 32.0776 45.6268C31.218 45.8348 30.3585 45.9735 29.499 46.1816C29.3958 46.2162 29.3271 46.2509 29.2239 46.2856C30.4273 47.291 31.8713 47.7417 33.3497 48.0884C34.8968 48.4352 36.3064 48.0538 37.7504 47.6031C45.5893 45.2801 53.222 42.4371 60.6827 39.074C60.7858 39.0394 60.9233 39.0047 61.0265 38.97C61.4391 38.762 61.886 38.5193 62.2986 38.3113C62.333 38.3459 62.3673 38.4153 62.3673 38.45C61.9892 38.6233 61.5766 38.7967 61.1984 38.97C59.5137 39.8021 57.7947 40.6342 56.0756 41.397C51.7436 43.3385 47.3084 45.0027 42.7701 46.4589C40.5009 47.187 38.1974 47.8458 35.8939 48.5045C34.8624 48.7819 33.7966 48.5392 32.7996 48.2965C31.3899 47.9844 30.1178 47.3257 28.9489 46.4589C28.8801 46.3896 28.8457 46.2856 28.777 46.2162C28.0893 46.3549 27.4017 46.4936 26.7141 46.5976C26.5422 46.771 26.3359 46.9096 26.2328 47.1177C25.8202 47.9844 25.442 48.8512 25.0294 49.718C24.8919 50.03 24.6512 50.2727 24.445 50.5501C24.6512 51.5902 24.8575 52.6303 25.0294 53.6705C25.889 58.1083 26.4391 62.6155 26.8516 67.1227C27.1267 70.1044 27.4017 73.0514 27.7112 76.0331C28.055 79.2228 28.4675 82.4126 28.8457 85.6023C28.9833 86.7464 29.1552 87.8559 29.2927 89.0347C42.8732 87.8212 56.385 86.6424 69.9656 85.4289C69.8968 85.1516 69.8624 84.9435 69.7937 84.7702C67.4214 77.1079 65.0147 69.4803 62.6424 61.8181C62.4705 61.194 62.333 60.5353 62.3673 59.9112C62.5049 56.2014 62.6768 52.5263 62.9174 48.8165C63.055 46.6323 63.3644 44.448 63.6051 42.2291C63.8457 39.9408 64.1208 37.6525 64.3958 35.3643C64.4646 34.8095 64.6365 34.2201 64.8428 33.7001C65.5992 31.9318 65.8742 30.129 65.5304 28.2221C65.0835 25.7258 63.5019 24.0269 61.164 23.6108C59.9263 23.4028 58.7229 23.5415 57.554 23.9229C57.4165 23.9576 57.2446 23.8882 57.107 23.8535C56.9351 23.9576 56.7632 24.0269 56.5913 24.1656ZM62.7112 38.1033H62.7455H62.7112ZM62.5392 38.2419C62.5392 38.2419 62.5049 38.2073 62.5392 38.2419C62.5049 38.2073 62.5392 38.2073 62.5392 38.2073C62.5392 38.1726 62.5736 38.2073 62.5392 38.2419C62.5736 38.2073 62.5392 38.2419 62.5392 38.2419Z" fill="#00A588"/>
<path d="M27.78 21.6346C27.4018 20.8718 27.058 20.0744 26.6798 19.3116C25.6484 17.058 24.892 14.7351 24.892 12.2041C24.892 9.18777 26.0953 6.79548 28.6051 5.16595C31.39 3.3284 34.4843 2.14959 37.6474 1.21348C40.2603 0.41605 42.8733 0 45.555 0C50.9185 0.0346708 54.8723 2.42696 57.4165 7.17686C58.1385 8.49435 58.6886 9.88118 58.9981 11.3374C59.0668 11.5801 59.17 11.8228 59.2731 12.0654C61.0609 15.6365 60.4764 19.7624 57.7603 22.6054C57.4509 22.9521 57.1415 23.2988 56.832 23.6108C56.7289 23.5762 56.5914 23.6108 56.5914 23.5415C56.5226 23.3681 56.4539 23.1601 56.3851 22.9868C56.0069 21.9466 55.388 21.1145 54.3566 20.5945C54.0472 21.2532 53.7377 21.8426 53.4283 22.432C53.1189 23.0214 52.8438 23.5762 52.4656 24.2696C52.3281 23.9229 52.2594 23.7495 52.1562 23.5415C49.5776 17.3007 43.5265 12.3081 35.3095 13.5216C31.4244 14.111 28.9146 16.9887 28.9146 20.9412C28.9146 21.7733 29.0177 22.6054 29.0865 23.5415C28.8802 23.2295 28.7083 22.9521 28.502 22.6747C28.2957 22.328 28.055 21.9813 27.78 21.6346Z" fill="#393939"/>
<path d="M33.8999 42.0904C34.45 42.1944 35.0345 42.2291 35.5846 42.3677C35.7909 42.4024 36.0659 42.6798 36.0659 42.8531C36.0659 43.0612 35.8596 43.3732 35.6533 43.4425C35.1032 43.6159 34.4844 43.7199 33.8999 43.8586C32.5934 44.1706 31.2869 44.3786 30.0492 44.76C28.8115 45.1414 27.6769 45.7655 26.6799 46.6322C26.508 46.8056 26.3017 46.9443 26.1985 47.1523C25.786 48.0191 25.4078 48.8859 24.9952 49.7526C24.8577 50.0647 24.617 50.3074 24.4107 50.5847C23.5168 51.2088 22.6229 51.8329 21.7634 52.4569C16.4687 56.3748 11.174 60.3272 5.91367 64.2797C5.53547 64.5571 5.19166 64.4877 4.84785 64.4531C2.64746 64.2104 0.722111 62.6502 0.172012 60.6739C-0.103039 59.7378 -0.0342751 58.8364 0.172012 57.9003C0.481441 56.2707 1.51287 55.1613 2.57869 54.0171C2.95688 53.8091 3.36946 53.5664 3.74765 53.3584C6.67005 51.7982 9.59245 50.2727 12.5148 48.7125C15.0247 47.395 17.5001 46.0775 20.0099 44.76C20.1818 44.656 20.3537 44.448 20.3881 44.2746C20.6632 43.0958 20.8695 41.917 21.1101 40.7035C21.3852 39.386 21.6602 38.0686 21.9353 36.7511C22.1416 36.4044 22.3478 36.0576 22.5541 35.6763C23.0698 34.8095 23.5856 33.9427 24.1013 33.1106C24.2388 32.9026 24.4451 32.6946 24.6858 32.6252C26.6455 31.8971 28.6396 31.2037 30.5993 30.545C30.9087 30.441 31.2526 30.5103 31.562 30.5103C32.4559 30.961 32.559 31.2037 32.3184 32.1052C32.1808 32.2092 32.0433 32.3132 31.9058 32.4172C30.0492 33.0066 28.1926 33.6307 26.3361 34.2201C26.1642 34.2894 25.9579 34.3241 25.8891 34.4628C25.5109 35.2602 25.2015 36.0576 24.8577 36.8551C25.339 36.6471 25.7516 36.335 26.1642 36.0576C26.4048 35.8843 26.7142 35.7456 27.0237 35.7109C28.8459 35.4336 30.6681 35.2255 32.4903 34.9829C33.0404 34.9482 33.5217 35.0522 33.9343 35.4336C34.7938 36.1963 34.4156 37.1324 33.4873 37.4791C33.3498 37.5138 33.2467 37.5832 33.1091 37.6178C31.4588 37.7218 29.8086 37.7912 28.1583 37.8952C28.0207 37.8952 27.8488 37.9299 27.7801 38.0339C27.1612 38.6926 26.5423 39.386 25.9579 40.0448C26.061 39.9408 26.2329 39.8714 26.4048 39.8021C27.0581 39.4554 27.7457 39.1087 28.3989 38.762C28.5708 38.658 28.7771 38.6233 28.9834 38.6233C30.1524 38.658 31.3557 38.6926 32.5247 38.7273C32.7997 38.7273 33.0404 38.7273 33.3154 38.7273C34.0374 38.7966 34.7938 38.866 35.3439 39.4207C35.7565 39.8368 35.7221 40.1835 35.2064 40.4262C34.7594 40.6342 34.2781 40.7382 33.8311 40.8769C32.2152 40.9462 30.6337 41.0156 29.0178 41.0849C28.9146 41.0849 28.8115 41.1543 28.7427 41.2236C27.7801 42.0557 26.8174 42.9225 25.8547 43.7892C25.786 43.8586 25.786 44.0319 25.6828 44.3093C26.5767 43.7892 27.2643 43.2692 28.0207 42.9571C29.8773 42.125 31.8714 41.9517 33.8999 42.0904Z" fill="#CCF6EF"/>
<path d="M34.8282 35.815C35.0344 36.127 35.2063 36.127 35.5158 35.9536C37.0285 35.1215 38.5413 34.2894 40.0541 33.4227C43.3547 31.5851 46.6896 29.7129 49.9902 27.8753C52.0875 26.6965 54.2191 25.5524 56.3164 24.3736C56.4195 24.3043 56.4883 24.2002 56.557 24.1309C56.7289 24.0269 56.9008 23.9229 57.0728 23.8189C56.9696 23.7495 56.9008 23.6802 56.7977 23.6108C56.6946 23.5762 56.557 23.6108 56.557 23.5415C56.4883 23.3681 56.4195 23.1601 56.3507 22.9868C55.9726 21.9466 55.3537 21.1145 54.3223 20.5945C54.0128 21.2532 53.7034 21.8426 53.394 22.432C53.0845 23.0214 52.8095 23.5762 52.4313 24.2696C52.2938 23.9229 52.225 23.7495 52.1219 23.5415C49.5433 17.3007 43.4922 12.3081 35.2751 13.5216C31.39 14.111 28.8802 16.9887 28.8802 20.9412C28.8802 21.7733 28.9834 22.6054 29.0521 23.5415C28.8458 23.2295 28.6739 22.9521 28.4676 22.6747C28.227 22.328 27.9519 21.9466 27.7113 21.5999C27.9519 22.3974 28.227 23.2295 28.4676 24.0269C29.8085 24.3736 30.4961 25.2404 30.7024 26.5925C30.9087 27.8753 31.2181 29.1582 31.4932 30.4757C32.3871 30.9264 32.4902 31.1691 32.2496 32.0705C33.1779 33.3533 34.0374 34.5668 34.8282 35.815ZM40.8449 30.9611C40.9824 30.9611 41.1199 31.0997 41.2574 31.1691C41.1199 31.2731 40.9824 31.4464 40.8792 31.4464C40.0885 31.4811 39.3321 31.4464 38.4726 31.4464C38.4726 31.2384 38.4382 31.0651 38.4382 30.8917C38.4382 29.3315 38.4382 27.7713 38.4382 26.1765C38.4382 26.0031 38.5757 25.7951 38.6445 25.6217C38.7132 25.7951 38.8507 25.9685 38.8507 26.1418C38.8851 27.5633 38.8507 28.9501 38.8507 30.3716C38.8507 30.545 38.8507 30.7184 38.8507 30.9264C39.5384 30.961 40.1916 30.9611 40.8449 30.9611ZM42.2545 26.1418C44.1798 26.7659 45.9333 26.4192 47.5148 25.1017C47.7898 24.859 47.7898 24.859 48.0649 25.1364C46.8959 26.7659 43.836 27.4246 41.8075 26.4538C41.8419 26.1418 41.9107 26.0378 42.2545 26.1418ZM32.0777 26.7312C32.1808 26.6619 32.2839 26.5925 32.4215 26.4885C33.5217 27.4593 34.6562 27.3553 35.8252 26.5925C35.9284 26.5232 36.1346 26.5925 36.3065 26.5925C35.0001 27.9447 33.281 27.9447 32.0777 26.7312ZM45.3488 21.808C44.1111 22.0506 42.8733 22.328 41.4293 22.6054C41.5325 22.3627 41.5669 22.12 41.67 22.0853C42.9765 21.808 44.283 21.5306 45.5895 21.2879C45.8301 21.6693 45.5895 21.7386 45.3488 21.808ZM35.5845 23.0214C35.7221 23.0561 35.7908 23.2641 35.894 23.3681C35.8596 23.4028 35.8252 23.4722 35.7564 23.5068C34.5531 23.2295 33.3498 22.9868 32.1464 22.7094C32.0433 22.6747 32.0089 22.4667 31.9401 22.328C32.0089 22.2933 32.0433 22.2587 32.112 22.224C33.281 22.5014 34.4156 22.7441 35.5845 23.0214Z" fill="#CCF6EF"/>
<path d="M21.9353 36.7857C21.6603 38.1032 21.3852 39.4207 21.1102 40.7382C20.8695 41.917 20.6288 43.0958 20.3882 44.3093C20.3538 44.4826 20.1819 44.7253 20.01 44.7947C17.5345 46.1122 15.0247 47.4296 12.5149 48.7471C9.59248 50.3073 6.67008 51.8328 3.74768 53.393C3.33511 53.6011 2.95692 53.8437 2.57872 54.0518C3.50701 52.977 4.40092 51.9022 5.32921 50.8621C8.83609 47.0829 12.3774 43.3038 15.8842 39.5247C16.8469 38.4846 17.7752 37.4445 18.7722 36.4737C19.5286 35.7803 20.3882 35.1908 21.2133 34.5668C21.2477 34.6361 21.2821 34.7401 21.3164 34.8095C21.5227 35.4682 21.729 36.127 21.9353 36.7857Z" fill="#00A588"/>
<path d="M28.5365 24.0615C29.8773 24.4082 30.565 25.275 30.7712 26.6272C30.9775 27.91 31.287 29.1928 31.562 30.5103C31.2526 30.5103 30.8744 30.4756 30.5993 30.545C28.6052 31.2037 26.6455 31.9318 24.6858 32.6252C24.4795 32.6946 24.2388 32.9026 24.1013 33.1106C23.5512 33.9427 23.0699 34.8095 22.5542 35.6763C22.5198 35.6069 22.451 35.5376 22.451 35.4336C22.1416 33.9427 21.8321 32.4172 21.4883 30.9263C21.3164 30.0249 21.1101 29.0888 20.9382 28.1874C20.6288 26.7312 21.4883 25.4137 22.9324 25.1016C24.4107 24.7896 25.8891 24.4776 27.4019 24.1655C27.7801 24.0962 28.1583 24.0962 28.5365 24.0615Z" fill="#393939"/>
<path d="M21.5226 30.961C21.832 32.4519 22.1414 33.9774 22.4852 35.4682C22.4852 35.5376 22.554 35.6069 22.5884 35.7109C22.3821 36.0576 22.1758 36.4043 21.9695 36.7857C21.7632 36.127 21.5569 35.4682 21.3507 34.8095C21.3163 34.7401 21.2819 34.6361 21.2475 34.5668C21.0756 33.908 20.9037 33.2493 20.7662 32.5906C20.6974 32.3479 20.6287 32.0705 20.6287 31.8278C20.5943 31.1344 20.8349 30.9264 21.5226 30.961Z" fill="#CCF6EF"/>
<path d="M32.4558 34.9829C30.6336 35.2256 28.8114 35.4683 26.9892 35.711C26.6798 35.7456 26.4047 35.8843 26.1297 36.0577C25.7171 36.3004 25.3389 36.6124 24.8232 36.8551C25.167 36.0577 25.4764 35.2602 25.8546 34.4628C25.9234 34.3241 26.1297 34.2548 26.3016 34.2201C28.1582 33.6307 30.0147 33.0066 31.8713 32.4172C32.112 33.2493 32.2839 34.1161 32.4558 34.9829Z" fill="#354550"/>
<path d="M61.1985 38.9006C59.5138 39.7327 57.7948 40.5648 56.0757 41.3276C51.7437 43.3385 47.3085 45.0027 42.7702 46.4589C40.501 47.187 38.1975 47.8457 35.894 48.5045C34.8625 48.7818 33.7967 48.5391 32.7997 48.2964C31.39 47.9844 30.1179 47.3256 28.949 46.4589C28.8802 46.3895 28.8458 46.2855 28.7771 46.2162C28.9146 46.2162 29.0521 46.2162 29.1897 46.2162C30.393 47.2216 31.837 47.6724 33.3154 48.0191C34.8625 48.3658 36.2722 47.9844 37.7162 47.5337C45.5551 45.2107 53.1877 42.3677 60.6484 39.0046C60.7515 38.97 60.8891 38.9353 60.9922 38.9006C61.061 38.9006 61.1297 38.9006 61.1985 38.9006Z" fill="#E4F3DA"/>
<path d="M33.8997 42.0904C31.8712 41.9517 29.8771 42.125 27.9861 42.9225C27.2297 43.2345 26.5421 43.7546 25.6482 44.2746C25.7169 43.9973 25.7169 43.8239 25.8201 43.7546C26.7828 42.8878 27.7454 42.0557 28.7081 41.1889C28.7769 41.1196 28.88 41.0502 28.9832 41.0502C30.5991 40.9809 32.1806 40.9116 33.7965 40.8422C33.8309 41.2583 33.8653 41.6743 33.8997 42.0904Z" fill="#374850"/>
<path d="M29.1895 46.2162C29.052 46.2162 28.9144 46.2162 28.7769 46.2162C28.0893 46.3549 27.4017 46.4936 26.714 46.5976C27.6767 45.6961 28.8457 45.1067 30.0834 44.7254C31.3555 44.3093 32.662 44.1013 33.9341 43.8239C33.6934 44.8294 32.9714 45.3148 32.0431 45.5575C31.1836 45.7655 30.3241 45.9042 29.4645 46.1122C29.3614 46.1122 29.2583 46.1815 29.1895 46.2162Z" fill="#354650"/>
<path d="M33.281 38.658C33.006 38.658 32.7653 38.6927 32.4902 38.658C31.3213 38.6233 30.1179 38.5886 28.949 38.554C28.7427 38.554 28.5364 38.6233 28.3645 38.6927C27.6769 39.0394 27.0236 39.3861 26.3704 39.7328C26.1985 39.8021 26.0266 39.8715 25.9234 39.9755C26.5423 39.3167 27.1268 38.6233 27.7456 37.9646C27.8144 37.8606 27.9863 37.8259 28.1238 37.8259C29.7741 37.7219 31.4244 37.6525 33.0747 37.5485C33.1435 37.9646 33.2122 38.3113 33.281 38.658Z" fill="#374750"/>
<path d="M61.1984 38.9006C61.1297 38.9006 61.0609 38.866 60.9921 38.866C61.4047 38.6579 61.8517 38.4152 62.2642 38.2072C62.2986 38.2419 62.333 38.3112 62.333 38.3459C61.9548 38.5539 61.5766 38.7273 61.1984 38.9006Z" fill="#CDE4BC"/>
<path d="M62.7456 38.1384L62.7106 38.1032H62.7456V38.1384Z" fill="#CDE4BC"/>
<path d="M62.5737 38.2072C62.5737 38.2072 62.5393 38.2419 62.5737 38.2072C62.5393 38.2419 62.5393 38.2072 62.505 38.2072C62.505 38.2072 62.5393 38.1726 62.5737 38.2072C62.5393 38.1726 62.5737 38.2072 62.5737 38.2072Z" fill="#CDE4BC"/>
<path d="M38.8506 30.961C39.5382 30.961 40.1915 30.961 40.8103 30.961C40.9478 30.961 41.0854 31.0997 41.2229 31.169C41.0854 31.273 40.9478 31.4464 40.8447 31.4464C40.0539 31.4811 39.2976 31.4464 38.438 31.4464C38.438 31.2384 38.4036 31.065 38.4036 30.8917C38.4036 29.3315 38.4036 27.7713 38.4036 26.1764C38.4036 26.0031 38.5412 25.7951 38.6099 25.6217C38.6787 25.7951 38.8162 25.9684 38.8162 26.1418C38.8506 27.5633 38.8162 28.9501 38.8162 30.3716C38.8506 30.545 38.8506 30.7183 38.8506 30.961Z" fill="#40433B"/>
<path d="M41.8073 26.4538C41.8417 26.1418 41.9449 26.0378 42.2543 26.1418C44.1796 26.7659 45.9331 26.4192 47.5146 25.1017C47.7896 24.859 47.7896 24.859 48.0647 25.1363C46.8614 26.7659 43.8358 27.4246 41.8073 26.4538Z" fill="#41453C"/>
<path d="M36.3064 26.6272C34.9999 27.9794 33.2809 27.9794 32.0775 26.7312C32.1807 26.6619 32.2838 26.5925 32.4213 26.4885C33.5215 27.4593 34.6561 27.3553 35.8251 26.5925C35.9626 26.5232 36.1689 26.5925 36.3064 26.6272Z" fill="#41453C"/>
<path d="M45.5893 21.2879C45.83 21.6693 45.6237 21.7733 45.3487 21.808C44.1109 22.0507 42.8732 22.328 41.4292 22.6054C41.5324 22.3627 41.5667 22.12 41.6699 22.0853C42.9764 21.7733 44.2828 21.5306 45.5893 21.2879Z" fill="#41453C"/>
<path d="M32.1119 22.2587C33.2808 22.5014 34.4154 22.7441 35.5844 23.0214C35.7219 23.0561 35.7907 23.2641 35.8938 23.3681C35.8594 23.4028 35.825 23.4721 35.7563 23.5068C34.5529 23.2295 33.3496 22.9868 32.1463 22.7094C32.0431 22.6747 32.0087 22.4667 31.94 22.328C32.0087 22.328 32.0775 22.2933 32.1119 22.2587Z" fill="#41453C"/>
</g>
<defs>
<clipPath id="clip0">
<rect width="70" height="89" fill="white" transform="matrix(-1 0 0 1 70 0)"/>
</clipPath>
</defs>
</svg>
