<svg viewBox="0 0 76 108" fill="none" xmlns="http://www.w3.org/2000/svg">
<path d="M33.3302 11.1173C33.3302 11.1173 36.0263 3.86137 44.4363 5.33017C54.2547 7.04335 52.3994 11.7785 56.0445 20.0313C59.6896 28.2842 70.0354 27.5084 72.3742 39.6278C76.3586 60.2668 57.3027 60.6906 51.0204 56.4227C44.7382 52.1548 45.6602 30.9212 45.6602 30.9212L33.3302 11.1173Z" fill="#734C13"/>
<path d="M36.999 10.652C33.687 9.26506 28.6252 8.63104 27.4712 12.1832C26.3173 15.7354 26.2232 22.6728 23.4639 24.9859C20.7047 27.2991 18.4608 34.5314 21.8073 39.6503C25.1538 44.7692 16.714 45.1367 18.2548 53.7347C19.7957 62.3326 32.9375 63.8114 39.6309 57.838C46.3242 51.8646 46.6329 28.7275 44.1365 20.1882C41.64 11.6489 36.999 10.652 36.999 10.652Z" fill="#734C13"/>
<path d="M61.1733 108L58.7649 87.3599L69.362 89.2799L67.9169 108H61.1733Z" fill="#CE7A63"/>
<path d="M26.4926 68.6399L26.4927 108H59.7283L56.8382 68.6399L58.7649 87.3599L69.362 89.2799C69.362 89.2799 67.4353 60.4799 65.5085 56.6399C63.5818 52.7999 58.2833 48.4798 53.4664 48.9599C48.6496 49.4401 37.0891 49.4398 30.3455 53.2799C23.6019 57.12 26.4926 68.6399 26.4926 68.6399Z" fill="#407BFF"/>
<path d="M47.9963 32.0539C48.1397 37.2016 50.1237 46.9986 53.4573 48.8959C53.4573 48.8959 51.8757 57.0317 43.2291 59.0743C34.5825 61.117 39.4398 50.4195 39.4398 50.4195C44.3017 47.9939 42.1405 45.9001 40.2967 42.3124L47.9963 32.0539Z" fill="#CE7A63"/>
<path opacity="0.2" d="M44.8274 36.216L40.2748 42.2805C40.7134 43.1134 41.0795 43.9825 41.3692 44.8784C43.4257 44.0743 45.8217 41.0848 45.5435 38.8423C45.4682 37.929 45.2255 37.0391 44.8274 36.216Z" fill="black"/>
<path d="M52.3243 21.1328C52.602 29.575 52.887 33.1422 49.0049 37.8973C43.1641 45.0578 32.608 43.6877 29.7908 35.5276C27.2569 28.1871 27.2458 15.6142 35.2746 11.3885C37.0341 10.4563 38.9988 9.98023 40.9827 10.0052C42.9665 10.0302 44.9039 10.5554 46.6112 11.5312C48.3185 12.507 49.7394 13.901 50.7391 15.5813C51.7389 17.2615 52.2845 19.1723 52.3243 21.1328Z" fill="#CE7A63"/>
<path d="M34.4709 10.6487C31.9036 12.9669 34.5059 15.3756 40.2726 16.1569C46.0393 16.9382 46.4435 17.235 46.5407 21.6631C46.638 26.0911 55.2556 28.1738 54.3574 23.7863C53.4593 19.3987 53.1465 10.7465 48.4974 9.41696C43.8482 8.08739 37.193 8.22632 34.4709 10.6487Z" fill="#734C13"/>
<path d="M34.5322 12.6912C32.119 14.1328 27.6497 21.8552 27.6102 19.6695C27.5708 17.4838 28.0185 14.3387 30.898 12.537C32.2417 11.612 33.7078 10.8768 35.2531 10.3529L34.5322 12.6912Z" fill="#734C13"/>
<path d="M55.3659 27.6378C54.9163 29.2104 53.8798 30.5631 52.4674 31.4205C50.5883 32.541 49.1719 31.0564 49.2951 29.0389C49.4085 27.2198 50.5131 24.4495 52.5926 24.1474C54.6721 23.8452 55.8947 25.7138 55.3659 27.6378Z" fill="#CE7A63"/>
<path d="M33.7939 27.1263C33.7939 27.1263 32.8969 30.1899 31.7312 31.7455C32.7275 32.4923 34.247 31.9438 34.247 31.9438L33.7939 27.1263Z" fill="#BA4D3C"/>
<path d="M41.8871 20.9111C41.9285 20.9226 41.9723 20.9234 42.0144 20.9135C42.0564 20.9036 42.0954 20.8832 42.1275 20.8543C42.1518 20.8301 42.171 20.8014 42.184 20.7699C42.1971 20.7384 42.2038 20.7048 42.2037 20.671C42.2036 20.6371 42.1968 20.6037 42.1835 20.5727C42.1703 20.5417 42.151 20.5136 42.1266 20.4902C41.7013 20.0482 41.1726 19.7161 40.5857 19.5222C39.9987 19.3283 39.371 19.2785 38.7562 19.3769C38.7186 19.3797 38.682 19.3905 38.6489 19.4086C38.6158 19.4267 38.5869 19.4516 38.5643 19.4816C38.5417 19.5117 38.5259 19.5461 38.518 19.5826C38.5101 19.619 38.5103 19.6566 38.5185 19.6928C38.5268 19.729 38.5429 19.7628 38.5658 19.792C38.5887 19.8212 38.6178 19.845 38.6511 19.8619C38.6844 19.8787 38.7211 19.8881 38.7587 19.8895C38.7962 19.8909 38.8338 19.8842 38.8687 19.8699C39.3995 19.7954 39.9389 19.8462 40.4425 20.0182C40.946 20.1901 41.3995 20.4782 41.7656 20.8589C41.8014 20.8853 41.8429 20.9032 41.8871 20.9111Z" fill="#5B3700"/>
<path d="M36.7674 24.5172C36.7116 24.5193 36.6578 24.5392 36.6139 24.5738C36.57 24.6083 36.5384 24.6558 36.5237 24.7091C36.509 24.7625 36.5121 24.8188 36.5324 24.8698C36.5527 24.9207 36.5893 24.9637 36.6366 24.9922C37.1551 25.3221 37.7477 25.5239 38.3652 25.5808C38.9826 25.6376 39.6069 25.5479 40.1861 25.319C40.2484 25.2882 40.2964 25.2349 40.32 25.1702C40.3435 25.1056 40.3407 25.0349 40.3122 24.973C40.2835 24.9121 40.2314 24.8652 40.1673 24.8425C40.1032 24.8198 40.0322 24.8232 39.9699 24.8518C39.47 25.0468 38.9318 25.1217 38.4001 25.0704C37.8685 25.0191 37.3587 24.843 36.9133 24.5568C36.8698 24.5298 36.8191 24.5161 36.7674 24.5172Z" fill="#5B3700"/>
<path d="M28.3029 25.7779C28.2604 25.7778 28.2186 25.7886 28.1813 25.8092C28.1441 25.8298 28.1127 25.8594 28.0903 25.8953C28.0536 25.9543 28.0417 26.0247 28.057 26.0916C28.0722 26.1584 28.1136 26.2163 28.172 26.2529C28.6905 26.5825 29.2832 26.7837 29.9005 26.8394C30.5178 26.8952 31.1417 26.8039 31.7201 26.5733C31.7822 26.5441 31.8304 26.492 31.8543 26.4284C31.8782 26.3648 31.8758 26.2948 31.8476 26.2337C31.8173 26.1726 31.7639 26.126 31.6988 26.1036C31.6337 26.0813 31.5619 26.085 31.4988 26.1141C30.9995 26.3097 30.4614 26.3844 29.9302 26.3316C29.399 26.2789 28.8903 26.1003 28.4473 25.8111C28.4032 25.7873 28.3533 25.7758 28.3029 25.7779Z" fill="#5B3700"/>
<path d="M28.4368 21.0805C28.4813 21.0942 28.5289 21.0958 28.5746 21.0851C28.6203 21.0743 28.6623 21.0516 28.6963 21.0193C29.0208 20.5944 29.4437 20.2517 29.9288 20.0205C30.4139 19.7892 30.9469 19.6762 31.4823 19.6911C31.5507 19.6967 31.6191 19.676 31.673 19.6332C31.7269 19.5905 31.7623 19.529 31.7716 19.4617C31.7758 19.4281 31.7732 19.3941 31.7639 19.3617C31.7546 19.3292 31.7389 19.299 31.7177 19.2728C31.6964 19.2466 31.67 19.2248 31.64 19.2089C31.61 19.1929 31.577 19.183 31.543 19.1797C30.9227 19.1558 30.3036 19.2789 29.7374 19.5385C29.1712 19.7981 28.6745 20.1868 28.2886 20.672C28.2667 20.6982 28.2501 20.7284 28.24 20.7609C28.2298 20.7933 28.2262 20.8273 28.2295 20.8609C28.2327 20.8945 28.2427 20.927 28.2588 20.9566C28.275 20.9862 28.2969 21.0122 28.3235 21.0333C28.3557 21.0595 28.3951 21.0758 28.4368 21.0805Z" fill="#5B3700"/>
<path d="M50.6515 25.7352L45.6601 31.0124C45.6601 31.0124 45.6579 35.4067 48.3343 36.6135L51.9977 31.5929C51.9977 31.5929 51.1426 40.7873 40.7001 44.0597C30.2576 47.3321 28.6652 32.6913 28.6652 32.6913C28.6652 32.6913 32.1622 29.156 34.1103 28.9847C36.0583 28.8133 41.0076 29.6626 43.343 29.6098C45.6784 29.557 50.6515 25.7352 50.6515 25.7352Z" fill="white"/>
<path d="M36.6152 60.5445C37.1568 60.4888 37.7112 60.359 38.2624 60.3354C38.4643 60.3105 38.7978 60.4919 38.846 60.6529C38.9038 60.8461 38.7983 61.1931 38.6253 61.3146C38.1608 61.628 37.613 61.8961 37.1068 62.1868C35.9759 62.8385 34.8161 63.3937 33.7686 64.0908C32.7211 64.7879 31.8372 65.6818 31.149 66.763C31.037 66.9717 30.8833 67.1576 30.845 67.3794C30.7014 68.2987 30.5899 69.2085 30.4464 70.1278C30.405 70.4557 30.2482 70.7478 30.133 71.0625C29.4734 71.8898 28.8138 72.7171 28.1862 73.5348C24.3409 78.6403 20.5052 83.778 16.7015 88.9061C16.4262 89.2685 16.0865 89.2993 15.7564 89.3624C13.6382 89.7466 11.4101 88.8309 10.3479 87.1479C9.83134 86.3547 9.64481 85.4984 9.57681 84.5718C9.41216 82.9727 10.065 81.6565 10.7402 80.2986C11.0349 80.0007 11.3519 79.661 11.6465 79.363C13.9364 77.1044 16.2359 74.8779 18.5258 72.6193C20.4986 70.7004 22.4394 68.7909 24.4122 66.872C24.5435 66.7278 24.6459 66.487 24.6297 66.3164C24.5583 65.1454 24.4229 63.9934 24.3098 62.7997C24.1998 61.4999 24.0899 60.2001 23.98 58.9003C24.0758 58.5211 24.1717 58.142 24.2579 57.7306C24.4976 56.7827 24.7372 55.8348 24.9865 54.9192C25.0569 54.6879 25.1913 54.4375 25.3963 54.3064C27.0203 53.0873 28.686 51.8909 30.3293 50.7361C30.5888 50.5538 30.9285 50.523 31.2169 50.4372C32.1753 50.6082 32.3389 50.805 32.3652 51.7089C32.2659 51.8436 32.1667 51.9783 32.0674 52.113C30.501 53.1748 28.9442 54.2687 27.3778 55.3305C27.2368 55.4425 27.0542 55.5318 27.0287 55.6797C26.8979 56.5251 26.8312 57.3514 26.7325 58.1873C27.1233 57.8607 27.421 57.4566 27.7284 57.0847C27.9045 56.857 28.1543 56.6425 28.4331 56.5246C30.0542 55.7622 31.6947 55.0642 33.3254 54.3339C33.8285 54.1493 34.306 54.1126 34.7965 54.3525C35.8097 54.8228 35.7175 55.797 34.9487 56.3762C34.8302 56.4465 34.7533 56.5394 34.6348 56.6097C33.1257 57.1635 31.6069 57.6851 30.0978 58.2389C29.9696 58.277 29.819 58.3568 29.7838 58.4725C29.3902 59.2557 29.0062 60.0712 28.6447 60.8449C28.7119 60.7198 28.8528 60.6077 28.9937 60.4957C29.5062 59.9927 30.0506 59.4802 30.563 58.9773C30.6943 58.833 30.8769 58.7437 31.0692 58.6865C32.1683 58.3949 33.2994 58.0937 34.3985 57.8021C34.6549 57.7259 34.8791 57.6592 35.1355 57.583C35.8277 57.4474 36.5519 57.3022 37.2188 57.6651C37.719 57.9372 37.7833 58.2687 37.3702 58.637C37.0114 58.954 36.5918 59.184 36.2138 59.4366C34.727 59.9486 33.2723 60.4512 31.7856 60.9633C31.6895 60.9918 31.6126 61.0848 31.5678 61.1683C30.902 62.2078 30.2458 63.2795 29.5895 64.3512C29.5447 64.4346 29.5929 64.5956 29.5739 64.8818C30.2624 64.1512 30.7587 63.4777 31.3769 62.9783C32.8759 61.6912 34.6861 60.9777 36.6152 60.5445Z" fill="#CE7A63"/>
<path d="M23.9897 58.9324C24.0996 60.2322 24.2096 61.5321 24.3195 62.8319C24.423 63.9934 24.5264 65.1549 24.6395 66.3486C24.6556 66.5191 24.5629 66.7921 24.4219 66.9041C22.4812 68.8136 20.5083 70.7325 18.5355 72.6514C16.2456 74.9101 13.9461 77.1365 11.6563 79.3951C11.3296 79.7026 11.0446 80.0328 10.75 80.3308C11.3163 79.0754 11.8506 77.8295 12.4266 76.6063C14.6443 72.1249 16.894 67.634 19.1117 63.1526C19.7197 61.9199 20.2957 60.6967 20.955 59.5189C21.4672 58.6653 22.1044 57.8798 22.6999 57.0716C22.7512 57.1265 22.8122 57.2136 22.8635 57.2684C23.2389 57.8231 23.6143 58.3778 23.9897 58.9324Z" fill="#407BFF"/>
<path d="M26.6038 45.2863C27.9498 45.2368 28.8317 45.8514 29.3998 47.05C29.9487 48.1843 30.5938 49.29 31.2164 50.4374C30.928 50.5232 30.5659 50.5957 30.3288 50.7363C28.6535 51.9006 27.0295 53.1197 25.3959 54.3066C25.2229 54.4282 25.0564 54.6881 24.9861 54.9194C24.7047 55.8446 24.4971 56.7829 24.2575 57.7308C24.2061 57.6759 24.1228 57.6306 24.0938 57.534C23.391 56.2351 22.6785 54.904 21.9436 53.6146C21.5327 52.825 21.0802 52.0127 20.6694 51.2232C19.9762 49.9565 20.411 48.4947 21.67 47.8049C22.9611 47.1055 24.2522 46.4061 25.5753 45.6972C25.9085 45.528 26.2609 45.4233 26.6038 45.2863Z" fill="#21242C"/>
<path d="M21.9855 53.637C22.6883 54.9359 23.4008 56.267 24.1357 57.5564C24.155 57.6208 24.2384 57.6662 24.2993 57.7532C24.2035 58.1324 24.1076 58.5115 24.0214 58.9229C23.646 58.3682 23.2706 57.8136 22.8952 57.2589C22.8439 57.204 22.7829 57.117 22.7316 57.0621C22.3882 56.4979 22.0449 55.9337 21.7336 55.36C21.602 55.1536 21.4608 54.9151 21.3933 54.6897C21.1685 54.0552 21.335 53.7953 21.9855 53.637Z" fill="#CE7A63"/>
<path d="M33.2931 54.3435C31.6623 55.0738 30.0315 55.804 28.4007 56.5342C28.122 56.6521 27.9042 56.8571 27.696 57.0943C27.379 57.434 27.1133 57.8286 26.7001 58.1969C26.7988 57.361 26.8655 56.5347 26.9963 55.6893C27.0218 55.5414 27.1948 55.4199 27.3454 55.3401C28.9118 54.2783 30.4686 53.1844 32.035 52.1226C32.4907 52.8288 32.8919 53.5861 33.2931 54.3435Z" fill="#21242C"/>
<path d="M36.6156 60.5445C34.6866 60.9776 32.8763 61.6911 31.3356 62.9556C30.7174 63.4549 30.2212 64.1284 29.5327 64.8591C29.5196 64.5824 29.4714 64.4214 29.5483 64.3284C30.2045 63.2567 30.8704 62.2172 31.5266 61.1455C31.5714 61.0621 31.6482 60.9691 31.7444 60.9405C33.2311 60.4284 34.6858 59.9259 36.1725 59.4138C36.3202 59.7907 36.4679 60.1676 36.6156 60.5445Z" fill="#21242C"/>
<path d="M33.3722 65.6814C33.244 65.7195 33.1158 65.7576 32.9877 65.7957C32.3854 66.115 31.7831 66.4343 31.1711 66.7214C31.8177 65.6175 32.7433 64.7462 33.7908 64.0491C34.8607 63.3103 36.0205 62.7552 37.129 62.1451C37.1842 63.1456 36.6463 63.7965 35.8486 64.279C35.1053 64.7104 34.3428 65.0773 33.5996 65.5086C33.5035 65.5372 33.4266 65.6302 33.3722 65.6814Z" fill="#21242C"/>
<path d="M35.0841 57.5282C34.8278 57.6044 34.6131 57.7033 34.3472 57.7473C33.2481 58.0389 32.1169 58.3401 31.0179 58.6317C30.8256 58.6889 30.6526 58.8104 30.5117 58.9225C29.9672 59.435 29.4548 59.9379 28.9424 60.4409C28.8015 60.5529 28.6605 60.665 28.5933 60.7901C28.9869 60.0069 29.3389 59.201 29.7325 58.4177C29.7677 58.302 29.9182 58.2222 30.0464 58.1841C31.5555 57.6303 33.0743 57.1087 34.5834 56.555C34.7632 56.9223 34.9237 57.2253 35.0841 57.5282Z" fill="#21242C"/>
</svg>
