<svg width="150" height="150" viewBox="0 0 150 150" fill="none" xmlns="http://www.w3.org/2000/svg">
<path d="M150 75C150 65.1509 148.06 55.3982 144.291 46.2987C140.522 37.1993 134.997 28.9314 128.033 21.967C121.069 15.0026 112.801 9.47813 103.701 5.70903C94.6018 1.93993 84.8491 -1.60463e-06 75 0C65.1508 1.60463e-06 55.3981 1.93994 46.2987 5.70904C37.1993 9.47815 28.9314 15.0026 21.967 21.967C15.0026 28.9314 9.47813 37.1993 5.70903 46.2988C1.93993 55.3982 -3.20925e-06 65.1509 0 75L75 75H150Z" fill="#4FDB76"/>
<path d="M150 75C150 61.4866 146.349 48.2242 139.433 36.6148C132.517 25.0054 122.592 15.4802 110.709 9.0463C98.8252 2.61235 85.4242 -0.491386 71.9221 0.0631819C58.4201 0.61775 45.3187 4.81001 34.0029 12.1968L75 75H150Z" fill="#FDFF8A"/>
<path d="M150 75C150 62.3347 146.793 49.8757 140.677 38.7848C134.561 27.6939 125.737 18.3324 115.026 11.5733L75 75H150Z" fill="#FF4444"/>
<path d="M135 75C135 59.087 128.679 43.8258 117.426 32.5736C106.174 21.3214 90.913 15 75 15C59.087 15 43.8258 21.3214 32.5736 32.5736C21.3214 43.8258 15 59.087 15 75L75 75H135Z" fill="white"/>
<path d="M68.8896 55H66.7773V50.6865H62.8193V55H60.7002V45.0059H62.8193V48.9229H66.7773V45.0059H68.8896V55ZM71.166 45.3818C71.166 44.7028 71.5443 44.3633 72.3008 44.3633C73.0573 44.3633 73.4355 44.7028 73.4355 45.3818C73.4355 45.7054 73.3398 45.9583 73.1484 46.1406C72.9616 46.3184 72.679 46.4072 72.3008 46.4072C71.5443 46.4072 71.166 46.0654 71.166 45.3818ZM73.3398 55H71.2549V47.3574H73.3398V55ZM82.1855 47.3574V48.417L80.9893 48.7246C81.208 49.0664 81.3174 49.4492 81.3174 49.873C81.3174 50.6934 81.0303 51.3337 80.4561 51.7939C79.8864 52.2497 79.0934 52.4775 78.0771 52.4775L77.7012 52.457L77.3936 52.4229C77.1794 52.5869 77.0723 52.7692 77.0723 52.9697C77.0723 53.2705 77.4551 53.4209 78.2207 53.4209H79.5195C80.3581 53.4209 80.9961 53.6009 81.4336 53.9609C81.8757 54.321 82.0967 54.8496 82.0967 55.5469C82.0967 56.4401 81.723 57.1328 80.9756 57.625C80.2327 58.1172 79.1641 58.3633 77.7695 58.3633C76.7031 58.3633 75.8874 58.1764 75.3223 57.8027C74.7617 57.4336 74.4814 56.9141 74.4814 56.2441C74.4814 55.7839 74.625 55.3988 74.9121 55.0889C75.1992 54.779 75.6208 54.5579 76.1768 54.4258C75.9626 54.3346 75.7757 54.1865 75.6162 53.9814C75.4567 53.7718 75.377 53.5508 75.377 53.3184C75.377 53.0267 75.4613 52.7852 75.6299 52.5938C75.7985 52.3978 76.0423 52.2064 76.3613 52.0195C75.9603 51.8464 75.6413 51.5684 75.4043 51.1855C75.1719 50.8027 75.0557 50.3516 75.0557 49.832C75.0557 48.998 75.3268 48.3532 75.8691 47.8975C76.4115 47.4417 77.1862 47.2139 78.1934 47.2139C78.4076 47.2139 78.6605 47.2344 78.9521 47.2754C79.2484 47.3118 79.4375 47.3392 79.5195 47.3574H82.1855ZM76.2861 56.0801C76.2861 56.3672 76.4229 56.5928 76.6963 56.7568C76.9743 56.9209 77.3617 57.0029 77.8584 57.0029C78.6058 57.0029 79.1914 56.9004 79.6152 56.6953C80.0391 56.4902 80.251 56.21 80.251 55.8545C80.251 55.5674 80.1257 55.3691 79.875 55.2598C79.6243 55.1504 79.237 55.0957 78.7129 55.0957H77.6328C77.25 55.0957 76.9287 55.1846 76.6689 55.3623C76.4137 55.5446 76.2861 55.7839 76.2861 56.0801ZM77.0449 49.8594C77.0449 50.2741 77.1383 50.6022 77.3252 50.8438C77.5166 51.0853 77.806 51.2061 78.1934 51.2061C78.5853 51.2061 78.8724 51.0853 79.0547 50.8438C79.237 50.6022 79.3281 50.2741 79.3281 49.8594C79.3281 48.9388 78.9499 48.4785 78.1934 48.4785C77.4277 48.4785 77.0449 48.9388 77.0449 49.8594ZM90.5049 55H88.4199V50.5361C88.4199 49.4333 88.0098 48.8818 87.1895 48.8818C86.6061 48.8818 86.1846 49.0801 85.9248 49.4766C85.665 49.873 85.5352 50.5156 85.5352 51.4043V55H83.4502V44.3633H85.5352V46.5303C85.5352 46.6989 85.5192 47.0954 85.4873 47.7197L85.4395 48.335H85.5488C86.0137 47.5876 86.752 47.2139 87.7637 47.2139C88.6615 47.2139 89.3428 47.4554 89.8076 47.9385C90.2725 48.4215 90.5049 49.1143 90.5049 50.0166V55ZM64.2959 69.4424H64.9795C65.6494 69.4424 66.1439 69.3307 66.4629 69.1074C66.7819 68.8841 66.9414 68.5332 66.9414 68.0547C66.9414 67.5807 66.7773 67.2435 66.4492 67.043C66.1257 66.8424 65.6221 66.7422 64.9385 66.7422H64.2959V69.4424ZM64.2959 71.165V75H62.1768V65.0059H65.0889C66.4469 65.0059 67.4518 65.2542 68.1035 65.751C68.7552 66.2432 69.0811 66.9928 69.0811 68C69.0811 68.5879 68.9193 69.112 68.5957 69.5723C68.2721 70.028 67.8141 70.3857 67.2217 70.6455C68.7256 72.8923 69.7054 74.3438 70.1611 75H67.8096L65.4238 71.165H64.2959ZM71.166 65.3818C71.166 64.7028 71.5443 64.3633 72.3008 64.3633C73.0573 64.3633 73.4355 64.7028 73.4355 65.3818C73.4355 65.7054 73.3398 65.9583 73.1484 66.1406C72.9616 66.3184 72.679 66.4072 72.3008 66.4072C71.5443 66.4072 71.166 66.0654 71.166 65.3818ZM73.3398 75H71.2549V67.3574H73.3398V75ZM80.8662 72.7305C80.8662 73.5143 80.5928 74.1113 80.0459 74.5215C79.5036 74.9316 78.6901 75.1367 77.6055 75.1367C77.0495 75.1367 76.5755 75.098 76.1836 75.0205C75.7917 74.9476 75.4248 74.8382 75.083 74.6924V72.9697C75.4704 73.152 75.9056 73.3047 76.3887 73.4277C76.8763 73.5508 77.3047 73.6123 77.6738 73.6123C78.4303 73.6123 78.8086 73.3936 78.8086 72.9561C78.8086 72.792 78.7585 72.6598 78.6582 72.5596C78.5579 72.4548 78.3848 72.3385 78.1387 72.2109C77.8926 72.0788 77.5645 71.9261 77.1543 71.7529C76.5664 71.5068 76.1335 71.279 75.8555 71.0693C75.582 70.8597 75.3815 70.6204 75.2539 70.3516C75.1309 70.0781 75.0693 69.7432 75.0693 69.3467C75.0693 68.6676 75.3314 68.1436 75.8555 67.7744C76.3841 67.4007 77.1315 67.2139 78.0977 67.2139C79.0182 67.2139 79.9137 67.4144 80.7842 67.8154L80.1553 69.3193C79.7725 69.1553 79.4147 69.0208 79.082 68.916C78.7493 68.8112 78.4098 68.7588 78.0635 68.7588C77.4482 68.7588 77.1406 68.9251 77.1406 69.2578C77.1406 69.4447 77.2386 69.6064 77.4346 69.7432C77.6351 69.8799 78.0703 70.0827 78.7402 70.3516C79.3372 70.5931 79.7747 70.8187 80.0527 71.0283C80.3307 71.238 80.5358 71.4795 80.668 71.7529C80.8001 72.0264 80.8662 72.3522 80.8662 72.7305ZM84.4961 70.8438L85.4053 69.6816L87.5449 67.3574H89.8965L86.8613 70.6729L90.0811 75H87.6748L85.4736 71.9033L84.5781 72.6211V75H82.4932V64.3633H84.5781V69.1074L84.4688 70.8438H84.4961Z" fill="#393939"/>
<g filter="url(#filter0_d_4522_4160)">
<circle cx="135" cy="45" r="10" fill="white"/>
<circle cx="135" cy="44.9999" r="6.66667" fill="#FF4444"/>
</g>
<path d="M120.896 52.1977L117.729 58.8046L113.643 51.1625L120.896 52.1977Z" fill="#393939"/>
<defs>
<filter id="filter0_d_4522_4160" x="121" y="35" width="28" height="28" filterUnits="userSpaceOnUse" color-interpolation-filters="sRGB">
<feFlood flood-opacity="0" result="BackgroundImageFix"/>
<feColorMatrix in="SourceAlpha" type="matrix" values="0 0 0 0 0 0 0 0 0 0 0 0 0 0 0 0 0 0 127 0" result="hardAlpha"/>
<feOffset dy="4"/>
<feGaussianBlur stdDeviation="2"/>
<feColorMatrix type="matrix" values="0 0 0 0 0 0 0 0 0 0 0 0 0 0 0 0 0 0 0.25 0"/>
<feBlend mode="normal" in2="BackgroundImageFix" result="effect1_dropShadow_4522_4160"/>
<feBlend mode="normal" in="SourceGraphic" in2="effect1_dropShadow_4522_4160" result="shape"/>
</filter>
</defs>
</svg>
