<svg viewBox="0 0 212 281" fill="none" xmlns="http://www.w3.org/2000/svg">
<rect x="25.3135" width="158.209" height="158.209" rx="31.6418" fill="white"/>
<path d="M123.587 41.1344L110.719 63.4583L97.851 85.7824L91.4169 96.9443L84.2817 108.106C84.2817 108.106 88.5146 117.413 98.2185 117.413C106.64 117.413 111.452 108.106 111.452 108.106L137.19 63.4583L150.058 41.1344H123.587Z" fill="url(#paint0_linear)"/>
<path d="M97.8772 85.7844L85.0093 63.4604H58.5378L84.2761 108.108C84.2761 108.108 89.0879 117.415 97.5097 117.415C107.214 117.415 111.445 108.108 111.445 108.108L104.311 96.9464L97.8772 85.7844Z" fill="#00C44E"/>
<path d="M1.58209 203.603L23.2567 259.925H34.8851L56.5597 203.603H41.9254L29.0313 236.827L16.2955 203.603H1.58209ZM66.0024 218.791C69.8785 218.791 73.1218 215.548 73.1218 211.672C73.1218 207.795 69.8785 204.552 66.0024 204.552C61.968 204.552 58.883 207.795 58.883 211.672C58.883 215.548 61.968 218.791 66.0024 218.791ZM59.7531 259.925H72.2516V223.695H59.7531V259.925ZM91.1325 223.695H78.6339V259.925H91.1325V240.861C91.1325 237.934 95.0086 235.561 99.6757 235.561L102.761 223.063C98.9638 223.063 94.7713 223.854 91.1325 225.752V223.695ZM110.003 255.812C113.325 258.897 117.518 260.558 122.027 260.558C126.457 260.558 130.728 258.897 133.971 255.812C137.215 252.569 139.034 248.376 139.034 243.946V223.695H126.536V243.946C126.536 246.24 124.479 248.218 122.027 248.218C119.574 248.218 117.518 246.24 117.518 243.946V223.695H105.019V243.946C105.019 248.376 106.759 252.569 110.003 255.812ZM161.208 201.863C153.93 201.863 147.997 207.637 147.997 214.994V223.695H143.726V235.957H147.997V259.925H160.496V235.957H169.514V223.695H160.496V215.073C160.496 214.598 160.891 214.124 161.366 214.124H168.96L172.203 201.863H161.208ZM188.209 276.616L209.725 223.695H197.148L190.266 240.782L183.225 223.695H170.648L184.017 256.524L175.869 276.616H188.209Z" fill="white"/>
<defs>
<linearGradient id="paint0_linear" x1="141.439" y1="36.8831" x2="84.8173" y2="129.349" gradientUnits="userSpaceOnUse">
<stop stop-color="#3578DE"/>
<stop stop-color="#3578DE"/>
<stop offset="0.260989" stop-color="#3578DE"/>
<stop offset="0.868813" stop-color="#3578DE" stop-opacity="0.52"/>
<stop offset="0.971831" stop-color="#3578DE" stop-opacity="0"/>
</linearGradient>
</defs>
</svg>
