<svg width="150" height="150" viewBox="0 0 150 150" fill="none" xmlns="http://www.w3.org/2000/svg">
<path d="M150 75C150 65.1509 148.06 55.3982 144.291 46.2987C140.522 37.1993 134.997 28.9314 128.033 21.967C121.069 15.0026 112.801 9.47813 103.701 5.70903C94.6018 1.93993 84.8491 -1.60463e-06 75 0C65.1508 1.60463e-06 55.3981 1.93994 46.2987 5.70904C37.1993 9.47815 28.9314 15.0026 21.967 21.967C15.0026 28.9314 9.47813 37.1993 5.70903 46.2988C1.93993 55.3982 -3.20925e-06 65.1509 0 75L75 75H150Z" fill="#4FDB76"/>
<path d="M150 75C150 61.4866 146.349 48.2242 139.433 36.6148C132.517 25.0054 122.592 15.4802 110.709 9.0463C98.8252 2.61235 85.4242 -0.491386 71.9221 0.0631819C58.4201 0.61775 45.3187 4.81001 34.0029 12.1968L75 75H150Z" fill="#FDFF8A"/>
<path d="M150 75C150 62.3347 146.793 49.8757 140.677 38.7848C134.561 27.6939 125.737 18.3324 115.026 11.5733L75 75H150Z" fill="#FF4444"/>
<path d="M135 75C135 59.087 128.679 43.8258 117.426 32.5736C106.174 21.3214 90.913 15 75 15C59.087 15 43.8258 21.3214 32.5736 32.5736C21.3214 43.8258 15 59.087 15 75L75 75H135Z" fill="white"/>
<path d="M61.9707 55V45.0059H64.0898V53.25H68.1436V55H61.9707ZM71.3838 51.165C71.3838 51.9215 71.5068 52.4935 71.7529 52.8809C72.0036 53.2682 72.4092 53.4619 72.9697 53.4619C73.5257 53.4619 73.9245 53.2705 74.166 52.8877C74.4121 52.5003 74.5352 51.9261 74.5352 51.165C74.5352 50.4085 74.4121 49.8411 74.166 49.4629C73.9199 49.0846 73.5166 48.8955 72.9561 48.8955C72.4001 48.8955 71.999 49.0846 71.7529 49.4629C71.5068 49.8366 71.3838 50.404 71.3838 51.165ZM76.668 51.165C76.668 52.4092 76.3398 53.3822 75.6836 54.084C75.0273 54.7858 74.1136 55.1367 72.9424 55.1367C72.2087 55.1367 71.5615 54.9772 71.001 54.6582C70.4404 54.3346 70.0098 53.8721 69.709 53.2705C69.4082 52.6689 69.2578 51.9671 69.2578 51.165C69.2578 49.9163 69.5837 48.9456 70.2354 48.2529C70.887 47.5602 71.8031 47.2139 72.9834 47.2139C73.7171 47.2139 74.3643 47.3734 74.9248 47.6924C75.4854 48.0114 75.916 48.4694 76.2168 49.0664C76.5176 49.6634 76.668 50.363 76.668 51.165ZM84.6729 55L84.085 52.3271L83.292 48.9502H83.2441L81.8496 55H79.6074L77.4336 47.3574H79.5117L80.3936 50.7412C80.5348 51.3473 80.6784 52.1836 80.8242 53.25H80.8652C80.8835 52.9036 80.9632 52.3545 81.1045 51.6025L81.2139 51.0215L82.1572 47.3574H84.4541L85.3496 51.0215C85.3678 51.1217 85.3952 51.2699 85.4316 51.4658C85.4727 51.6618 85.5114 51.8714 85.5479 52.0947C85.5843 52.3135 85.6162 52.5299 85.6436 52.7441C85.6755 52.9538 85.6937 53.1224 85.6982 53.25H85.7393C85.7803 52.9219 85.8532 52.473 85.958 51.9033C86.0628 51.3291 86.138 50.9417 86.1836 50.7412L87.0996 47.3574H89.1436L86.9424 55H84.6729ZM63.7959 69.4424H64.4795C65.1494 69.4424 65.6439 69.3307 65.9629 69.1074C66.2819 68.8841 66.4414 68.5332 66.4414 68.0547C66.4414 67.5807 66.2773 67.2435 65.9492 67.043C65.6257 66.8424 65.1221 66.7422 64.4385 66.7422H63.7959V69.4424ZM63.7959 71.165V75H61.6768V65.0059H64.5889C65.9469 65.0059 66.9518 65.2542 67.6035 65.751C68.2552 66.2432 68.5811 66.9928 68.5811 68C68.5811 68.5879 68.4193 69.112 68.0957 69.5723C67.7721 70.028 67.3141 70.3857 66.7217 70.6455C68.2256 72.8923 69.2054 74.3438 69.6611 75H67.3096L64.9238 71.165H63.7959ZM70.666 65.3818C70.666 64.7028 71.0443 64.3633 71.8008 64.3633C72.5573 64.3633 72.9355 64.7028 72.9355 65.3818C72.9355 65.7054 72.8398 65.9583 72.6484 66.1406C72.4616 66.3184 72.179 66.4072 71.8008 66.4072C71.0443 66.4072 70.666 66.0654 70.666 65.3818ZM72.8398 75H70.7549V67.3574H72.8398V75ZM80.3662 72.7305C80.3662 73.5143 80.0928 74.1113 79.5459 74.5215C79.0036 74.9316 78.1901 75.1367 77.1055 75.1367C76.5495 75.1367 76.0755 75.098 75.6836 75.0205C75.2917 74.9476 74.9248 74.8382 74.583 74.6924V72.9697C74.9704 73.152 75.4056 73.3047 75.8887 73.4277C76.3763 73.5508 76.8047 73.6123 77.1738 73.6123C77.9303 73.6123 78.3086 73.3936 78.3086 72.9561C78.3086 72.792 78.2585 72.6598 78.1582 72.5596C78.0579 72.4548 77.8848 72.3385 77.6387 72.2109C77.3926 72.0788 77.0645 71.9261 76.6543 71.7529C76.0664 71.5068 75.6335 71.279 75.3555 71.0693C75.082 70.8597 74.8815 70.6204 74.7539 70.3516C74.6309 70.0781 74.5693 69.7432 74.5693 69.3467C74.5693 68.6676 74.8314 68.1436 75.3555 67.7744C75.8841 67.4007 76.6315 67.2139 77.5977 67.2139C78.5182 67.2139 79.4137 67.4144 80.2842 67.8154L79.6553 69.3193C79.2725 69.1553 78.9147 69.0208 78.582 68.916C78.2493 68.8112 77.9098 68.7588 77.5635 68.7588C76.9482 68.7588 76.6406 68.9251 76.6406 69.2578C76.6406 69.4447 76.7386 69.6064 76.9346 69.7432C77.1351 69.8799 77.5703 70.0827 78.2402 70.3516C78.8372 70.5931 79.2747 70.8187 79.5527 71.0283C79.8307 71.238 80.0358 71.4795 80.168 71.7529C80.3001 72.0264 80.3662 72.3522 80.3662 72.7305ZM83.9961 70.8438L84.9053 69.6816L87.0449 67.3574H89.3965L86.3613 70.6729L89.5811 75H87.1748L84.9736 71.9033L84.0781 72.6211V75H81.9932V64.3633H84.0781V69.1074L83.9688 70.8438H83.9961Z" fill="#393939"/>
<g filter="url(#filter0_d_4522_4099)">
<circle cx="17" cy="41" r="10" fill="white"/>
<circle cx="16.9999" cy="40.9999" r="6.66667" fill="#4FDB76"/>
<path d="M30.2583 49.4648L37.486 48.2649L33.5745 55.9979L30.2583 49.4648Z" fill="#393939"/>
</g>
<defs>
<filter id="filter0_d_4522_4099" x="3" y="31" width="38.486" height="32.9979" filterUnits="userSpaceOnUse" color-interpolation-filters="sRGB">
<feFlood flood-opacity="0" result="BackgroundImageFix"/>
<feColorMatrix in="SourceAlpha" type="matrix" values="0 0 0 0 0 0 0 0 0 0 0 0 0 0 0 0 0 0 127 0" result="hardAlpha"/>
<feOffset dy="4"/>
<feGaussianBlur stdDeviation="2"/>
<feColorMatrix type="matrix" values="0 0 0 0 0 0 0 0 0 0 0 0 0 0 0 0 0 0 0.25 0"/>
<feBlend mode="normal" in2="BackgroundImageFix" result="effect1_dropShadow_4522_4099"/>
<feBlend mode="normal" in="SourceGraphic" in2="effect1_dropShadow_4522_4099" result="shape"/>
</filter>
</defs>
</svg>
