<svg width="52" height="22" viewBox="0 0 52 22" fill="none" xmlns="http://www.w3.org/2000/svg">
<rect width="51.7647" height="22" rx="2.58824" fill="white"/>
<path d="M44.7342 16.4058C44.7321 16.3068 44.7504 16.2083 44.7879 16.1166C44.8254 16.0248 44.8814 15.9417 44.9524 15.8723C45.0433 15.776 45.1538 15.7002 45.2764 15.6497C45.3991 15.5993 45.531 15.5755 45.6636 15.5798C45.8961 15.5718 46.1255 15.6352 46.3206 15.7615C46.3797 15.7938 46.4299 15.8401 46.4668 15.8962C46.5038 15.9524 46.5264 16.0167 46.5327 16.0835C46.5322 16.167 46.5004 16.2473 46.4435 16.3085C46.417 16.3408 46.3836 16.3667 46.3457 16.3844C46.3079 16.402 46.2665 16.411 46.2247 16.4107C46.1232 16.3888 46.0246 16.355 45.9311 16.31C45.8357 16.2663 45.7329 16.2409 45.628 16.235C45.5145 16.2422 45.4558 16.2824 45.4518 16.3555C45.4524 16.3794 45.4588 16.4029 45.4705 16.4239C45.4821 16.4448 45.4986 16.4627 45.5187 16.476C45.5695 16.5137 45.6253 16.5441 45.6846 16.5664L45.8398 16.6271C46.0482 16.693 46.2408 16.8009 46.4056 16.9442C46.5213 17.0633 46.5867 17.2221 46.5881 17.3879C46.5882 17.5062 46.5636 17.6231 46.5158 17.7314C46.469 17.8394 46.3985 17.9356 46.3094 18.0127C46.1172 18.1676 45.8745 18.2464 45.6277 18.234C45.4901 18.2314 45.3532 18.2122 45.2201 18.1768C45.0784 18.1437 44.9446 18.0831 44.8264 17.9984C44.7749 17.9649 44.7326 17.9191 44.7032 17.8652C44.6739 17.8113 44.6585 17.7509 44.6584 17.6896C44.6605 17.6074 44.6935 17.5291 44.7509 17.4701C44.7762 17.4383 44.8082 17.4125 44.8447 17.3946C44.8812 17.3766 44.9212 17.3669 44.9618 17.3661C44.9953 17.3664 45.0286 17.3705 45.0611 17.3785C45.093 17.3856 45.1243 17.3952 45.1547 17.4071C45.1834 17.4182 45.2141 17.4323 45.2511 17.4497C45.2882 17.4672 45.3206 17.4829 45.3505 17.4975C45.4418 17.5434 45.5415 17.5706 45.6435 17.5774C45.6968 17.5772 45.7489 17.562 45.7939 17.5336C45.8155 17.5224 45.8335 17.5056 45.8461 17.4849C45.8587 17.4642 45.8654 17.4405 45.8654 17.4162C45.8673 17.39 45.8617 17.3638 45.8492 17.3406C45.8368 17.3174 45.818 17.2981 45.7951 17.2851C45.7248 17.2482 45.6519 17.2165 45.5769 17.1901L45.376 17.1151C45.2012 17.054 45.0399 16.9599 44.9007 16.8381C44.8438 16.7816 44.7996 16.7138 44.7708 16.6392C44.742 16.5645 44.7293 16.4846 44.7336 16.4047" fill="#4E92CE"/>
<path d="M41.3644 16.9125C41.3753 16.732 41.3482 16.5511 41.285 16.3816C41.2218 16.2121 41.1238 16.0576 40.9973 15.928C40.8708 15.7984 40.7185 15.6965 40.5503 15.6289C40.3821 15.5614 40.2016 15.5295 40.0203 15.5354C39.8366 15.5292 39.6535 15.5602 39.4821 15.6266C39.3107 15.6929 39.1546 15.7932 39.0231 15.9213C38.8917 16.0495 38.7876 16.2029 38.7173 16.3723C38.647 16.5416 38.6118 16.7235 38.6139 16.9068C38.6168 17.095 38.6579 17.2807 38.7346 17.4526C38.8114 17.6246 38.9223 17.7793 39.0606 17.9074C39.1988 18.0355 39.3617 18.1344 39.5393 18.1981C39.7169 18.2618 39.9056 18.289 40.094 18.2781C40.3954 18.2861 40.694 18.2188 40.9626 18.0823C41.0001 18.0623 41.0331 18.035 41.0598 18.0019C41.0864 17.9689 41.1061 17.9308 41.1176 17.89C41.1291 17.85 41.1323 17.8081 41.127 17.7669C41.1216 17.7256 41.1079 17.6859 41.0866 17.6501L41.053 17.5929C41.0109 17.5225 40.9434 17.4708 40.8644 17.4483C40.7853 17.4258 40.7007 17.4342 40.6276 17.4718C40.4876 17.5447 40.3315 17.5814 40.1736 17.5786C40.0242 17.5884 39.8753 17.5528 39.7466 17.4765C39.618 17.4002 39.5155 17.2868 39.4528 17.1512H41.1222C41.1538 17.1514 41.1852 17.1454 41.2145 17.1335C41.2438 17.1215 41.2705 17.104 41.293 17.0818C41.3155 17.0596 41.3334 17.0332 41.3456 17.0041C41.3579 16.975 41.3643 16.9438 41.3644 16.9122V16.9125ZM40.5582 16.5959H39.4568C39.4974 16.4738 39.5777 16.3688 39.685 16.2974C39.7923 16.226 39.9204 16.1923 40.049 16.2018C40.1667 16.1975 40.2822 16.2347 40.3753 16.3067C40.4683 16.3788 40.5331 16.4811 40.5582 16.5959Z" fill="#4E92CE"/>
<path d="M44.1822 16.3187C44.1125 16.148 44.0069 15.9942 43.8725 15.8676C43.6633 15.6777 43.3883 15.5763 43.1056 15.5848C42.9875 15.586 42.871 15.6121 42.7638 15.6615C42.6566 15.7108 42.5611 15.7822 42.4836 15.871C42.4683 15.8093 42.4388 15.752 42.3975 15.7036C42.3633 15.6641 42.3205 15.6327 42.2725 15.612C42.2244 15.5913 42.1723 15.5817 42.1199 15.584C42.0668 15.5812 42.0138 15.5904 41.9647 15.6108C41.9157 15.6312 41.8718 15.6624 41.8364 15.7019C41.7668 15.7842 41.7303 15.8894 41.7339 15.997V18.8121C41.7308 18.9191 41.7675 19.0235 41.8369 19.1052C41.8711 19.1448 41.9138 19.1761 41.9619 19.1969C42.01 19.2177 42.0621 19.2273 42.1145 19.2251C42.1676 19.2278 42.2207 19.2186 42.2698 19.1982C42.3188 19.1777 42.3627 19.1465 42.3981 19.1069C42.4677 19.0246 42.5042 18.9194 42.5005 18.8118V18.0166C42.6713 18.1524 42.8821 18.2283 43.1004 18.2327C43.3303 18.2384 43.5559 18.1699 43.7436 18.0375C43.9242 17.9075 44.0656 17.7308 44.1526 17.5263C44.2446 17.3141 44.2914 17.0852 44.2901 16.854C44.2898 16.6699 44.2531 16.4877 44.1819 16.3179L44.1822 16.3187ZM43.4644 17.2069C43.4286 17.3017 43.3693 17.386 43.2921 17.4519C43.2173 17.5157 43.1216 17.55 43.0232 17.5484C42.9166 17.5511 42.8121 17.5189 42.7256 17.4568C42.6424 17.3955 42.5775 17.3127 42.5378 17.2175C42.496 17.1199 42.4745 17.0148 42.4747 16.9086C42.4744 16.8023 42.4959 16.697 42.5378 16.5992C42.5776 16.5042 42.6425 16.4217 42.7256 16.3605C42.8121 16.2984 42.9166 16.2662 43.0232 16.2689C43.1215 16.2673 43.2171 16.3014 43.2921 16.3648C43.3696 16.4307 43.4288 16.5153 43.4644 16.6104C43.5021 16.7053 43.5215 16.8065 43.5218 16.9086C43.5217 17.0108 43.5022 17.112 43.4644 17.2069Z" fill="#4E92CE"/>
<path d="M29.5913 11.3558H24.7448C24.9831 12.1795 25.793 12.8012 26.9366 12.8012C27.3992 12.8095 27.8565 12.7018 28.2666 12.4881C28.4423 12.3966 28.6465 12.3758 28.8371 12.4301C29.0277 12.4843 29.1901 12.6095 29.2907 12.7798L29.3849 12.94C29.4358 13.0272 29.4685 13.1238 29.481 13.2239C29.4936 13.324 29.4856 13.4257 29.4578 13.5226C29.4299 13.6196 29.3826 13.71 29.3188 13.7883C29.2549 13.8666 29.1759 13.9312 29.0864 13.9782C28.3532 14.3518 27.5374 14.535 26.7144 14.5109C24.3952 14.5109 22.696 12.8945 22.696 10.7965C22.696 8.71384 24.2684 7.08203 26.5083 7.08203C28.7161 7.08203 30.1455 8.66746 30.1455 10.8122V10.8202C30.143 10.9645 30.0833 11.1018 29.9795 11.2023C29.8757 11.3028 29.7362 11.3582 29.5915 11.3563L29.5913 11.3558ZM24.7609 10.0508H28.1599C28.1183 9.66869 27.9328 9.31656 27.6409 9.06556C27.349 8.81457 26.9724 8.68344 26.5873 8.69866C26.1717 8.67229 25.7601 8.79366 25.4258 9.04121C25.0914 9.28876 24.8558 9.64647 24.7609 10.0508Z" fill="#4E92CE"/>
<path d="M35.3994 6.17517C35.3994 6.30634 35.3735 6.43623 35.3231 6.55741C35.2728 6.67859 35.199 6.7887 35.106 6.88144C35.013 6.97418 34.9025 7.04773 34.781 7.0979C34.6595 7.14807 34.5292 7.17387 34.3977 7.17384C34.1321 7.17384 33.8774 7.06862 33.6896 6.88133C33.5018 6.69405 33.3962 6.44003 33.3962 6.17517C33.3962 5.91031 33.5018 5.6563 33.6896 5.46902C33.8774 5.28173 34.1321 5.17651 34.3977 5.17651C34.5292 5.17648 34.6595 5.20228 34.781 5.25245C34.9025 5.30262 35.013 5.37617 35.106 5.46891C35.199 5.56165 35.2728 5.67176 35.3231 5.79294C35.3735 5.91412 35.3994 6.044 35.3994 6.17517Z" fill="#ED1D24"/>
<path d="M33.9466 14.4024C33.6971 14.2849 33.5046 14.0733 33.4116 13.8143C33.3185 13.5552 33.3324 13.2699 33.4503 13.0211L35.9942 7.64852C36.1121 7.39972 36.3242 7.20781 36.584 7.115C36.8438 7.02219 37.1299 7.03608 37.3794 7.15362C37.5029 7.21178 37.6138 7.29364 37.7056 7.39452C37.7974 7.4954 37.8684 7.61334 37.9145 7.74159C37.9606 7.86984 37.981 8.00589 37.9743 8.14197C37.9677 8.27806 37.9343 8.4115 37.8759 8.53469L35.332 13.9073C35.2141 14.1561 35.002 14.348 34.7422 14.4408C34.4825 14.5337 34.1964 14.5199 33.9468 14.4024" fill="#ED1D24"/>
<path d="M34.8278 14.4024C34.9514 14.3443 35.0622 14.2624 35.154 14.1615C35.2459 14.0606 35.3169 13.9426 35.363 13.8143C35.4091 13.6861 35.4294 13.55 35.4228 13.4139C35.4162 13.2778 35.3827 13.1443 35.3244 13.0211L32.7804 7.64852C32.6626 7.39972 32.4504 7.20781 32.1906 7.115C31.9309 7.02219 31.6448 7.03608 31.3953 7.15362C31.2717 7.21178 31.1609 7.29364 31.069 7.39452C30.9772 7.4954 30.9062 7.61334 30.8601 7.74159C30.814 7.86984 30.7937 8.00589 30.8003 8.14197C30.8069 8.27806 30.8404 8.4115 30.8987 8.53469L33.4426 13.9073C33.5605 14.1561 33.7727 14.348 34.0324 14.4408C34.2922 14.5337 34.5783 14.5199 34.8278 14.4024Z" fill="#ED1D24"/>
<path d="M45.5439 7.08135C45.3037 7.08143 45.071 7.16435 44.8851 7.31606C44.6992 7.46777 44.5717 7.67892 44.5241 7.91371L44.4874 7.90512C43.86 7.3572 43.0496 7.06333 42.2159 7.08135C40.1986 7.08135 38.6567 8.68224 38.6567 10.7958C38.6567 12.9093 40.1493 14.5102 42.1671 14.5102C42.6081 14.5195 43.0459 14.4323 43.4495 14.2546C43.853 14.0769 44.2126 13.8131 44.5029 13.4818C44.5052 13.7553 44.6158 14.0168 44.8106 14.2094C45.0053 14.402 45.2685 14.5101 45.5428 14.5102C45.8187 14.5102 46.0834 14.4009 46.2785 14.2063C46.4736 14.0117 46.5832 13.7478 46.5832 13.4726V8.12008C46.5832 7.8449 46.4736 7.58098 46.2785 7.3864C46.0834 7.19181 45.8187 7.08249 45.5428 7.08249L45.5439 7.08135ZM42.6295 12.6609C42.3822 12.6659 42.1366 12.6212 41.9071 12.5293C41.6776 12.4375 41.4692 12.3003 41.2941 12.1262C41.1191 11.952 40.9811 11.7444 40.8884 11.5158C40.7958 11.2872 40.7504 11.0423 40.7549 10.7958C40.7491 10.5489 40.7937 10.3035 40.8859 10.0743C40.9782 9.84514 41.1161 9.63704 41.2914 9.46264C41.4667 9.28824 41.6757 9.15116 41.9057 9.05972C42.1357 8.96828 42.3819 8.92438 42.6295 8.93069C42.879 8.91637 43.1288 8.95476 43.3625 9.04336C43.5961 9.13197 43.8084 9.26878 43.9853 9.44485C44.1623 9.62091 44.3 9.83226 44.3894 10.0651C44.4787 10.2979 44.5178 10.5469 44.504 10.7958C44.5179 11.0447 44.4788 11.2937 44.3894 11.5265C44.3001 11.7594 44.1624 11.9707 43.9854 12.1468C43.8085 12.3229 43.5962 12.4597 43.3625 12.5483C43.1288 12.6369 42.879 12.6752 42.6295 12.6609Z" fill="#4E92CE"/>
<path d="M21.2631 7.53898C21.2445 7.51036 21.2244 7.4846 21.2034 7.45913C21.1628 7.41031 21.1179 7.36528 21.0691 7.3246C20.9981 7.26526 20.9194 7.21568 20.8352 7.17718C20.699 7.11422 20.5507 7.0815 20.4006 7.0813C20.3647 7.0813 20.3291 7.08331 20.2944 7.08674C20.2597 7.09018 20.225 7.09561 20.1911 7.10248C19.9917 7.14328 19.8087 7.24162 19.665 7.38528C19.6179 7.43231 19.5754 7.48368 19.5381 7.53869C19.4219 7.70998 19.36 7.91211 19.3604 8.11889V10.8827C19.3736 11.1117 19.3391 11.3409 19.2592 11.5559C19.1793 11.771 19.0557 11.9672 18.8961 12.1323C18.7365 12.2974 18.5444 12.4279 18.3318 12.5154C18.1193 12.603 17.8909 12.6457 17.661 12.6411C16.708 12.6411 16.0568 11.9283 16.0568 10.8195V8.11889C16.0568 7.8437 15.9471 7.57979 15.752 7.3852C15.5569 7.19062 15.2922 7.0813 15.0163 7.0813C14.7403 7.0813 14.4757 7.19062 14.2806 7.3852C14.0855 7.57979 13.9758 7.8437 13.9758 8.11889V11.1046C13.9758 13.1798 15.2307 14.5107 17.1848 14.5107C17.9941 14.5386 18.7838 14.2581 19.3932 13.7262C19.4495 13.9502 19.5793 14.1491 19.762 14.2912C19.9446 14.4333 20.1695 14.5106 20.4012 14.5107C20.6771 14.5107 20.9418 14.4014 21.1369 14.2068C21.332 14.0122 21.4417 13.7483 21.4417 13.4731V8.12061C21.442 7.91383 21.3801 7.71171 21.264 7.54042" fill="#4E92CE"/>
<path d="M9.43339 7.08197C8.62403 7.05409 7.8344 7.33462 7.22501 7.86653C7.16862 7.64248 7.03882 7.44362 6.85621 7.30149C6.6736 7.15936 6.44863 7.0821 6.21698 7.08197C5.94103 7.08197 5.67639 7.19129 5.48126 7.38588C5.28614 7.58046 5.17651 7.84438 5.17651 8.11956V13.4721C5.1763 13.6108 5.20402 13.7481 5.25803 13.876C5.27123 13.9069 5.28673 13.9372 5.30194 13.9667C5.36583 14.084 5.45178 14.1879 5.5551 14.2727C5.60666 14.3152 5.66221 14.3525 5.721 14.3843C5.8732 14.4668 6.04376 14.5098 6.21698 14.5094C6.39021 14.5098 6.56076 14.4668 6.71296 14.3843C6.74166 14.3683 6.77037 14.3508 6.79907 14.3325C6.85173 14.2969 6.90102 14.2566 6.94631 14.212L6.9532 14.2057L6.95923 14.1991C7.02723 14.13 7.0852 14.0518 7.13144 13.9667C7.21419 13.8149 7.25741 13.6449 7.25716 13.4721V10.708C7.24401 10.479 7.27848 10.2498 7.3584 10.0348C7.43831 9.81979 7.56195 9.62357 7.72155 9.45848C7.88114 9.29339 8.07324 9.16298 8.28579 9.07546C8.49834 8.98795 8.72674 8.94521 8.95664 8.94992C9.90957 8.94992 10.5608 9.66263 10.5608 10.7715V13.4721C10.5608 13.7473 10.6704 14.0112 10.8656 14.2058C11.0607 14.4004 11.3253 14.5097 11.6013 14.5097C11.7379 14.5097 11.8733 14.4829 11.9995 14.4308C12.1258 14.3786 12.2405 14.3022 12.3371 14.2059C12.4337 14.1095 12.5104 13.9951 12.5626 13.8692C12.6149 13.7433 12.6418 13.6084 12.6418 13.4721V10.4876C12.6418 8.41237 11.3869 7.0814 9.4331 7.0814" fill="#4E92CE"/>
</svg>
