<svg width="293" height="249" viewBox="0 0 293 249" fill="none" xmlns="http://www.w3.org/2000/svg">
<g clip-path="url(#clip0)">
<path opacity="0.1" d="M226.935 249C248.265 249 265.556 246.771 265.556 244.022C265.556 241.272 248.265 239.043 226.935 239.043C205.605 239.043 188.314 241.272 188.314 244.022C188.314 246.771 205.605 249 226.935 249Z" fill="#6C63FF"/>
<path opacity="0.1" d="M-13.6708 107.583V151.591H55.1831V107.583H-13.6708ZM-13.6708 152.949V190.741C-13.2769 190.823 -12.8862 190.903 -12.4987 190.97C-11.9714 191.072 -11.4473 191.164 -10.9105 191.243C-10.8089 191.259 -10.7041 191.275 -10.5929 191.285C-10.3832 191.32 -10.1673 191.348 -9.95762 191.377C-9.42716 191.45 -8.89989 191.511 -8.36944 191.558C-8.11851 191.584 -7.8644 191.606 -7.61029 191.625L-6.99725 191.673C-6.66374 191.698 -6.3334 191.717 -6.00623 191.727C-5.80295 191.727 -5.59966 191.746 -5.39002 191.752C-5.2312 191.752 -5.07238 191.752 -4.90721 191.752C-4.74204 191.752 -4.50699 191.752 -4.30688 191.752C-4.03371 191.752 -3.76054 191.752 -3.49055 191.752H-3.12527C-2.85211 191.752 -2.57894 191.752 -2.30895 191.727H-2.28989C-2.10249 191.727 -1.91191 191.727 -1.72133 191.701C-1.66843 191.705 -1.6154 191.705 -1.56251 191.701C-1.40369 191.701 -1.24487 191.701 -1.09241 191.679H-0.981235L0.0828476 191.596C0.432246 191.565 0.784818 191.523 1.14057 191.485L1.86478 191.399C4.8111 190.986 7.72468 190.365 10.5839 189.541C17.0065 187.747 23.2893 185.237 29.7087 183.399C38.0085 181.029 47.1787 179.864 55.199 182.762V152.949H-13.6708ZM55.1831 58.5901V0.00318821C47.6448 -0.0786062 40.1269 0.804414 32.812 2.63081C15.377 7.01759 -0.266553 16.5324 -13.6708 28.6843V58.5869H-10.2149V59.9453H-13.6708V106.224H55.1831V59.9485H3.97388V58.5901H55.1831ZM143.622 38.8003C139.309 38.6476 135.021 37.2797 131.142 35.1674C123.726 31.1274 117.802 24.8892 111.182 19.6244C97.4286 8.65905 80.3716 2.04229 62.8731 0.40083V58.5901H161.165L161.41 58.3325L143.622 38.8003ZM152.577 37.2097L162.071 47.6438V34.4739C158.891 34.8684 156.105 35.8068 152.589 37.197L152.577 37.2097ZM162.071 200.125V152.949H141.84C141.786 152.748 141.732 152.545 141.669 152.341C141.729 152.545 141.78 152.748 141.837 152.949H62.8858V187.067C63.6354 187.623 64.3755 188.209 65.1092 188.803C65.9001 189.44 66.6815 190.111 67.4661 190.769L68.257 191.425C68.635 191.743 69.0161 192.061 69.4005 192.36C70.1628 192.979 70.9325 193.59 71.7097 194.192C72.094 194.51 72.4879 194.797 72.8786 195.096C79.0811 199.845 85.624 204.131 92.4545 207.919C93.9855 208.767 95.5302 209.595 97.0888 210.403C98.1274 210.935 99.1725 211.463 100.221 211.975C101.796 212.745 103.384 213.487 104.985 214.202C119.745 220.837 135.352 225.39 151.36 227.731C154.915 228.257 158.485 228.67 162.067 228.972V200.122H162.385L162.071 200.125ZM62.8858 59.9485V106.224H162.083V59.9485H62.8858ZM62.8858 107.583V151.591H162.083V107.583H62.8858ZM169.783 34.4167V49.1072L181.901 35.7909C177.886 35.142 173.846 34.6786 169.783 34.4008V34.4167ZM169.783 107.599V151.591H266.265V107.583L169.783 107.599ZM265.912 203.618L266.252 152.949H169.783V229.477C175.997 229.739 182.222 229.665 188.428 229.255H188.536C191.501 229.068 194.452 228.797 197.389 228.44H197.455C213.124 226.614 228.446 222.52 242.941 216.285L265.912 203.618ZM284.869 114.829C284.507 113.974 284.129 113.124 283.744 112.284C283.026 110.694 282.267 109.148 281.486 107.602H273.958V151.591H292.991C292.981 139.133 289.833 126.409 284.878 114.813L284.869 114.829ZM273.958 152.965V196.546C279.319 191.399 283.849 185.511 287.111 178.78C291.034 170.674 292.829 161.897 292.975 152.958L273.958 152.965ZM273.958 94.7755V106.228H280.781C278.717 102.285 276.442 98.4571 273.967 94.7596L273.958 94.7755ZM208.525 43.0503C208.023 42.8594 207.521 42.6654 207.016 42.4777C201.69 40.5077 196.247 38.8695 190.718 37.5724L172.175 57.9539L171.819 58.3325L172.057 58.5933H238.055C228.864 52.2566 218.954 47.0339 208.534 43.0344L208.525 43.0503ZM239.99 59.9644H171.136L169.783 61.205V106.224H181.643H181.662H266.277V84.4177C258.623 75.1466 249.789 66.9201 239.999 59.9485L239.99 59.9644Z" fill="#00A588"/>
<path opacity="0.1" d="M10.568 66.5748V106.224H-13.6708V66.5748H-10.2149V53.1504H3.9707V66.5748H10.568Z" fill="#00A588"/>
<path opacity="0.1" d="M10.568 107.583H-13.6676V151.587H10.568V107.583Z" fill="#00A588"/>
<path opacity="0.1" d="M-13.6708 152.952H10.568V189.535C7.7088 190.358 4.7952 190.978 1.8489 191.39L1.12469 191.479C0.768938 191.52 0.416363 191.555 0.0669632 191.59C-0.282436 191.625 -0.644543 191.65 -0.997118 191.673H-1.10829C-1.26075 191.673 -1.42592 191.692 -1.57521 191.695H-1.73721C-1.92779 191.695 -2.11837 191.714 -2.30895 191.72C-2.57894 191.736 -2.84893 191.74 -3.12528 191.743C-3.2428 191.743 -3.35397 191.743 -3.4715 191.743C-3.74466 191.743 -4.01466 191.743 -4.28782 191.743H-4.88815C-5.05015 191.743 -5.20579 191.743 -5.37414 191.743L-5.98717 191.72C-6.30481 191.72 -6.64786 191.685 -6.9782 191.663L-7.58806 191.619L-8.34721 191.549C-8.88083 191.501 -9.41128 191.441 -9.93538 191.367L-10.5707 191.278L-10.8883 191.234C-11.4187 191.151 -11.9428 191.062 -12.4765 190.96C-12.8672 190.893 -13.2547 190.811 -13.6485 190.731L-13.6708 152.952Z" fill="#00A588"/>
<path opacity="0.1" d="M162.083 61.8921H142.098V106.221H162.083V61.8921Z" fill="#00A588"/>
<path opacity="0.1" d="M162.087 107.583V151.591H62.8857V132.609H115.724V143.806H142.098V107.583H162.087Z" fill="#00A588"/>
<path opacity="0.1" d="M162.401 200.135H162.083V229.003C158.505 228.7 154.936 228.288 151.379 227.766C135.363 225.418 119.749 220.855 104.985 214.208C100.722 212.287 96.5466 210.189 92.4575 207.916C85.6272 204.126 79.0834 199.84 72.8785 195.093C71.32 193.896 69.7815 192.673 68.2632 191.422C67.2119 190.553 66.1669 189.662 65.1091 188.797C64.3754 188.202 63.6353 187.617 62.8857 187.057V152.952H141.834C141.78 152.748 141.726 152.545 141.669 152.344C141.729 152.545 141.786 152.748 141.84 152.952H162.083V200.116C162.191 200.119 162.296 200.128 162.401 200.135Z" fill="#00A588"/>
<path opacity="0.1" d="M214.207 58.5901H201.184V54.5374H207.022V42.465C207.528 42.6495 208.032 42.8393 208.534 43.0344V54.5374H214.207V58.5901Z" fill="#00A588"/>
<path opacity="0.1" d="M245.583 106.224H181.65C181.65 106.224 181.65 106.224 181.672 106.24L181.643 106.224H169.783V61.8953H173.143V94.661H188.501V75.2561H201.187V59.9517H214.211V75.2688H226.897V94.6737H245.583V106.224Z" fill="#00A588"/>
<path opacity="0.1" d="M169.783 107.583V151.591H245.583V107.583H169.783ZM266.16 203.392L266.265 168.559H245.583V152.971H169.783V229.477C175.997 229.739 182.221 229.665 188.428 229.255H188.536C191.501 229.068 194.451 228.797 197.389 228.44H197.455C213.124 226.614 228.446 222.52 242.941 216.285" fill="#00A588"/>
<path opacity="0.1" d="M275.305 152.952H292.987C292.832 161.888 291.04 170.665 287.121 178.77C283.858 185.505 279.326 191.393 273.97 196.537V168.543H275.305V152.952Z" fill="#00A588"/>
<path opacity="0.1" d="M292.997 151.591H275.304V114.813H284.878C289.833 126.409 292.981 139.133 292.997 151.591Z" fill="#00A588"/>
<path opacity="0.1" d="M162.087 74.2158H151.379V88.1142H162.087V74.2158Z" fill="#6C63FF"/>
<path opacity="0.1" d="M162.087 103.024H151.379V106.224H162.087V103.024Z" fill="#6C63FF"/>
<path opacity="0.1" d="M162.087 107.583H151.379V116.919H162.087V107.583Z" fill="#6C63FF"/>
<path opacity="0.1" d="M162.087 131.833H151.379V145.731H162.087V131.833Z" fill="#6C63FF"/>
<path opacity="0.1" d="M162.087 160.641H151.379V174.539H162.087V160.641Z" fill="#6C63FF"/>
<path opacity="0.1" d="M162.083 200.116C162.191 200.116 162.296 200.116 162.401 200.135H162.083V203.363H151.379V189.449H162.083V200.116Z" fill="#6C63FF"/>
<path opacity="0.1" d="M162.083 218.251V228.987C158.505 228.684 154.937 228.272 151.379 227.75V218.251H162.083Z" fill="#6C63FF"/>
<path opacity="0.1" d="M108.775 150.569H62.8857V151.591H108.775V150.569Z" fill="#6C63FF"/>
<path opacity="0.1" d="M108.775 152.949H62.8857V156.862H108.775V152.949Z" fill="#6C63FF"/>
<path opacity="0.1" d="M108.775 169.688H62.8857V175.98H108.775V169.688Z" fill="#6C63FF"/>
<path opacity="0.1" d="M108.771 188.807V195.099H72.8785C71.32 193.907 69.7805 192.683 68.2601 191.428C67.2087 190.559 66.1669 189.669 65.106 188.807H108.771Z" fill="#6C63FF"/>
<path opacity="0.1" d="M108.771 207.922V214.208H104.982C100.724 212.284 96.5487 210.186 92.4576 207.913L108.771 207.922Z" fill="#6C63FF"/>
<path opacity="0.1" d="M197.465 111.849H188.431V120.896H197.465V111.849Z" fill="#6C63FF"/>
<path opacity="0.1" d="M1.87108 69.6954H-7.16248V78.7426H1.87108V69.6954Z" fill="#6C63FF"/>
<path opacity="0.1" d="M1.87108 90.71H-7.16248V99.7571H1.87108V90.71Z" fill="#6C63FF"/>
<path opacity="0.1" d="M1.87108 111.725H-7.16248V120.772H1.87108V111.725Z" fill="#6C63FF"/>
<path opacity="0.1" d="M1.87108 132.736H-7.16248V141.783H1.87108V132.736Z" fill="#6C63FF"/>
<path opacity="0.1" d="M1.87108 153.75H-7.16248V162.798H1.87108V153.75Z" fill="#6C63FF"/>
<path opacity="0.1" d="M1.87108 174.765H-7.16248V183.812H1.87108V174.765Z" fill="#6C63FF"/>
<path opacity="0.1" d="M231.95 111.849H222.917V120.896H231.95V111.849Z" fill="#6C63FF"/>
<path opacity="0.1" d="M197.465 134.164H188.431V143.211H197.465V134.164Z" fill="#6C63FF"/>
<path opacity="0.1" d="M231.95 134.164H222.917V143.211H231.95V134.164Z" fill="#6C63FF"/>
<path opacity="0.1" d="M197.465 156.477H188.431V165.524H197.465V156.477Z" fill="#6C63FF"/>
<path opacity="0.1" d="M231.95 156.477H222.917V165.524H231.95V156.477Z" fill="#6C63FF"/>
<path opacity="0.1" d="M197.465 178.792H188.431V187.84H197.465V178.792Z" fill="#6C63FF"/>
<path opacity="0.1" d="M231.95 178.792H222.917V187.84H231.95V178.792Z" fill="#6C63FF"/>
<path opacity="0.1" d="M197.465 201.108H188.431V210.155H197.465V201.108Z" fill="#6C63FF"/>
<path opacity="0.1" d="M231.95 201.108H222.917V210.155H231.95V201.108Z" fill="#6C63FF"/>
<path opacity="0.1" d="M188.431 229.255V223.421H197.462V228.424L188.431 229.255Z" fill="#6C63FF"/>
<path opacity="0.1" d="M181.65 106.224H181.669H181.65ZM162.083 200.112H162.401H162.083ZM141.669 152.341C141.729 152.545 141.78 152.748 141.837 152.949C141.786 152.748 141.732 152.545 141.669 152.341ZM181.65 106.215H181.669H181.65ZM-10.2021 58.5806V59.9389H3.98663V58.5806H-10.2021ZM162.083 200.112H162.401H162.083ZM141.669 152.341C141.729 152.545 141.78 152.748 141.837 152.949C141.786 152.748 141.732 152.545 141.669 152.341ZM181.65 106.215H181.669H181.65ZM162.083 200.103H162.401H162.083ZM141.669 152.341C141.729 152.545 141.78 152.748 141.837 152.949C141.786 152.748 141.732 152.545 141.669 152.341Z" fill="#6C63FF"/>
<g opacity="0.1">
<path opacity="0.1" d="M69.2067 69.2055C68.816 69.5427 68.3141 69.7845 68.0536 70.233C67.8313 70.618 67.8249 71.092 67.6471 71.5055C67.4692 71.919 66.9514 72.2563 66.5925 71.9954C66.5099 69.1324 65.0996 66.4443 63.3685 64.1539C62.8845 63.4627 62.2962 62.851 61.6247 62.3406C60.9449 61.8288 60.0987 61.5894 59.252 61.6694C58.2991 61.7999 57.4605 62.4488 56.4981 62.5283C55.2275 62.6365 54.0872 61.7553 52.8262 61.7108C52.3137 61.7159 51.8083 61.8306 51.3438 62.0474C50.8792 62.2641 50.4663 62.5777 50.1327 62.9673C49.4696 63.7506 48.9773 64.664 48.6874 65.649C48.1883 67.1437 47.9163 68.7051 47.8806 70.2808C47.8616 71.1683 47.779 72.2753 46.9595 72.6062C46.9785 72.8412 46.9785 73.0774 46.9595 73.3124C47.7853 72.9943 47.8679 71.8745 47.887 70.9838C47.9224 69.4081 48.1943 67.8467 48.6938 66.3521C48.9837 65.3661 49.4759 64.4516 50.139 63.6672C50.4733 63.2786 50.8865 62.9659 51.3509 62.7498C51.8154 62.5337 52.3205 62.4191 52.8326 62.4138C54.1031 62.4584 55.2466 63.3363 56.5044 63.2314C57.4573 63.1518 58.3022 62.4997 59.2583 62.3725C60.1051 62.2924 60.9512 62.5318 61.631 63.0437C62.3026 63.554 62.8909 64.1657 63.3749 64.8569C65.106 67.1442 66.5163 69.8259 66.5989 72.6952C66.9578 72.9593 67.4755 72.6157 67.6534 72.2085C67.8313 71.8013 67.8376 71.3242 68.06 70.9361C68.3204 70.4875 68.8223 70.2489 69.213 69.9117C70.204 69.056 70.4518 67.615 70.4137 66.3075C70.4137 66.2662 70.4137 66.2248 70.4137 66.1866C70.3533 67.3191 70.0516 68.4739 69.2067 69.2055Z" fill="black"/>
<path opacity="0.1" d="M45.7588 68.9796C45.0283 68.1748 44.0309 67.6372 43.3607 66.7847C42.7963 66.03 42.474 65.1215 42.4364 64.1793C42.3364 65.3566 42.6647 66.5305 43.3607 67.4845C44.0309 68.3402 45.0283 68.8778 45.7588 69.6827C46.4603 70.4699 46.8814 71.4678 46.9563 72.5202C47.005 71.8798 46.924 71.236 46.7182 70.6276C46.5124 70.0192 46.1861 69.4587 45.7588 68.9796Z" fill="black"/>
<path opacity="0.1" d="M71.033 59.3758C70.8456 60.1552 70.5121 60.8964 70.3596 61.6821C70.2693 62.2072 70.2363 62.7405 70.2612 63.2727C70.2718 62.9695 70.3047 62.6676 70.3596 62.3693C70.5121 61.5804 70.8456 60.8423 71.033 60.063C71.1422 59.6331 71.1777 59.1877 71.1378 58.746C71.1181 58.9582 71.0831 59.1687 71.033 59.3758Z" fill="black"/>
</g>
<path d="M259.531 150.06C259.531 150.06 254.287 123.931 256.294 120.679C256.294 120.679 256.367 117.657 256.246 113.805C256.246 113.659 256.246 113.512 256.246 113.363C256.6 113.599 256.968 113.811 257.349 113.999C259.198 114.951 261.322 115.225 263.352 114.775L261.764 113.003C261.383 112.58 260.985 112.122 260.903 111.562C260.82 111.002 261.049 110.503 261.246 110.004C262.755 106.186 262.834 101.386 259.928 98.472C257.472 96.0225 256.875 92.8605 254.21 90.6241C252.263 88.9859 251.193 86.5841 250.183 84.2619C249.328 82.2991 248.467 80.3204 247.978 78.24C247.597 76.6144 247.445 74.9316 246.921 73.3442C246.397 71.7568 245.415 70.214 243.881 69.5046C243.334 69.2533 242.728 69.1101 242.229 68.7761C241.575 68.3339 241.181 67.615 240.708 66.9851C238.303 63.804 230.251 65.6777 226.439 66.9692C225.403 67.2945 224.444 67.8269 223.619 68.5343L223.654 68.4771C223.682 68.4294 223.717 68.3817 223.749 68.3339C223.332 68.6718 222.972 69.0746 222.682 69.5269C222.126 70.408 221.894 71.4355 221.43 72.3899C220.871 73.5192 217.762 76.6717 219.099 77.941C219.193 78.0262 219.3 78.095 219.417 78.1445C219.919 78.3538 220.471 78.4091 221.005 78.3036L220.948 78.4404C220.491 79.5603 220.257 80.7586 220.258 81.9683C220.258 87.1949 224.562 91.4321 229.876 91.4321C230.875 91.4331 231.868 91.2797 232.821 90.9772C232.843 91.0981 232.862 91.219 232.884 91.3399C232.884 91.3876 232.9 91.4353 232.907 91.483L232.738 91.7184C232.73 91.7039 232.72 91.6901 232.71 91.6771L227.723 98.6565C226.96 99.1941 222.571 102.375 222.323 104.761C222.062 107.373 221.802 110.43 221.802 110.43L221.767 111.085C221.549 111.268 221.294 111.4 221.02 111.475C220.746 111.549 220.459 111.562 220.179 111.515C218.622 111.26 218.622 117.241 218.622 117.241C218.622 117.241 217.587 118.195 216.875 117.368C216.164 116.541 214.284 119.343 214.284 119.343L202.499 119.852L202.229 119.868L201.594 117.899C201.526 117.691 201.378 117.519 201.184 117.42C200.989 117.32 200.763 117.302 200.555 117.368C200.506 117.384 200.458 117.404 200.412 117.428L200.368 117.454L200.285 117.511L200.244 117.549C200.221 117.57 200.2 117.592 200.181 117.616L200.142 117.661L200.123 117.68C200.05 117.781 200.001 117.899 199.982 118.022C199.962 118.146 199.971 118.273 200.009 118.392L200.555 120.081C198.281 120.54 195.956 121.831 197.852 125.388L188.241 123.609L191.35 126.224L207.404 129.542C207.191 129.924 207.33 130.477 207.994 131.257C210.853 134.619 216.062 135.532 218.159 135.768C218.712 137.008 219.404 138.182 220.22 139.267L220.039 142.617C220.039 142.617 214.731 168.148 213.759 169.443C214.25 168.886 214.699 168.294 215.103 167.671C213.563 172.917 211.409 180.097 210.844 181.172C209.935 182.89 209.093 189.84 210.129 190.286C210.447 190.423 211.355 190.356 212.651 190.257V190.833L212.594 212.652C212.594 212.652 212.854 226.035 212.14 227.311C211.425 228.587 211.234 231.262 211.234 231.262C211.234 231.262 208.376 236.54 206.111 238.661C206.095 238.678 206.078 238.693 206.06 238.706L205.99 238.21C205.99 238.21 203.268 241.652 197.246 241.458C197.246 241.458 193.621 243.818 198.996 243.945C204.37 244.072 211.234 243.754 211.234 243.754C211.234 243.754 216.027 236.438 220.042 237.392V242.937H221.272V237.303C221.842 236.927 222.33 236.439 222.706 235.869C223.082 235.299 223.339 234.658 223.46 233.985C223.565 233.292 223.488 232.583 223.236 231.929C222.985 231.274 222.567 230.697 222.024 230.254C221.781 230.033 221.585 229.764 221.45 229.464C221.315 229.164 221.243 228.839 221.24 228.51L221.195 228.549C221.195 228.437 221.167 228.323 221.154 228.205C220.801 225.342 220.36 219.435 221.92 215.064C224.057 209.07 224.705 200.723 223.149 195.754C222.647 194.166 222.234 192.55 221.913 190.916C221.875 190.709 221.84 190.512 221.808 190.327C222.872 190.471 223.926 190.684 224.962 190.963C228.568 191.959 236.455 192.144 243.188 192.09C243.204 192.274 243.223 192.468 243.246 192.662C243.366 194.011 243.617 195.345 243.995 196.645C244.84 199.19 245.228 210.41 245.228 210.41C245.228 210.41 246.317 219.635 245.723 223.389C245.405 225.476 245.088 227.572 244.907 229.678V229.719C244.907 229.719 243.122 234.809 241.816 237.573C241.784 237.643 241.749 237.713 241.718 237.78C241.37 237.812 241.027 237.888 240.698 238.006C240.698 238.006 238.948 241.505 237.204 242.084C235.46 242.663 236.038 244.569 239.987 243.869C243.935 243.169 249.897 242.596 249.897 242.596L250.154 239.027L251.368 237.507L251.05 241.066L252.343 240.812L252.171 236.482L254.156 233.995C254.156 233.995 256.554 231.857 252.991 227.651V227.744C252.952 227.683 252.918 227.62 252.876 227.559V227.54C252.285 226.624 251.815 224.916 252.676 221.884C254.233 216.406 255.138 211.434 255.138 211.434C255.138 211.434 258.613 198.115 254.436 191.813H254.62C254.192 190.926 253.889 189.984 253.721 189.013C253.7 188.899 253.681 188.781 253.664 188.66C256.755 188.482 259.788 187.922 262.262 186.713C262.253 186.701 260.763 155.093 259.531 150.06ZM220.293 128.015V128.079L219.658 128.111L220.293 128.015ZM218.114 128.317C218.01 128.341 217.912 128.387 217.828 128.454C217.555 128.841 217.384 129.291 217.33 129.762L216.339 129.539C216.339 129.539 215.643 129.389 214.642 129.221L214.169 128.744C215.471 128.635 216.825 128.476 218.114 128.317Z" fill="url(#paint0_linear)"/>
<path d="M250.904 236.527L250.526 241.034L251.793 240.78L251.603 235.891L250.904 236.527Z" fill="#1D2366"/>
<path d="M221.989 215.124C220.462 219.482 220.894 225.364 221.237 228.221C221.364 229.277 221.481 229.92 221.481 229.92C221.481 229.92 219.197 235.13 219.007 235.327C218.816 235.525 212.286 239.517 212.286 239.517L207.721 242.186C207.721 242.186 203.09 240.153 205.31 239.453C205.764 239.271 206.173 238.992 206.508 238.636C208.731 236.52 211.523 231.262 211.523 231.262C211.523 231.262 211.714 228.593 212.413 227.324C213.111 226.054 212.857 212.716 212.857 212.716L212.911 190.973V188.139L221.599 188.202C221.653 189.164 221.779 190.121 221.973 191.065C222.285 192.694 222.689 194.305 223.184 195.888C224.715 200.847 224.079 209.153 221.989 215.124Z" fill="#CCF6EF"/>
<path opacity="0.1" d="M221.481 229.92C221.481 229.92 219.197 235.13 219.007 235.327C218.816 235.525 212.286 239.517 212.286 239.517L207.721 242.186C207.721 242.186 203.09 240.153 205.31 239.453C205.764 239.271 206.173 238.992 206.508 238.636L206.705 240.026L208.226 239.962L221.249 228.227C221.364 229.277 221.481 229.92 221.481 229.92Z" fill="black"/>
<path d="M221.322 228.523L208.226 240.338L206.705 240.401L206.387 238.175C206.387 238.175 203.725 241.604 197.811 241.413C197.811 241.413 194.26 243.764 199.523 243.891C204.786 244.018 211.507 243.7 211.507 243.7C211.507 243.7 216.202 236.384 220.131 237.338V242.864H221.338V237.287C221.899 236.909 222.378 236.421 222.746 235.852C223.114 235.283 223.363 234.646 223.479 233.979C223.584 233.291 223.51 232.588 223.264 231.937C223.019 231.287 222.611 230.71 222.078 230.263C221.841 230.04 221.651 229.77 221.521 229.471C221.391 229.172 221.323 228.849 221.322 228.523Z" fill="#1D2366"/>
<path d="M252.111 221.919C251.266 224.941 251.726 226.643 252.304 227.556V227.575C253.046 228.702 253.562 229.963 253.823 231.287L253.874 231.574L247.915 240.274L244.681 241.547C244.681 241.547 239.482 239.768 240.431 239.259C240.67 239.135 241.041 238.474 241.467 237.561C242.737 234.809 244.491 229.732 244.491 229.732V229.691C244.675 227.594 244.967 225.504 245.291 223.424C245.872 219.679 244.805 210.489 244.805 210.489C244.805 210.489 244.424 199.314 243.598 196.772C243.225 195.48 242.977 194.155 242.858 192.815C242.687 191.224 242.648 189.914 242.648 189.914C242.648 189.914 246.073 185.142 252.349 190.295C252.851 190.706 253.292 191.186 253.661 191.721C257.997 197.898 254.506 211.507 254.506 211.507C254.506 211.507 253.632 216.457 252.111 221.919Z" fill="#CCF6EF"/>
<path opacity="0.1" d="M253.883 231.574L247.924 240.274L244.691 241.547C244.691 241.547 239.491 239.768 240.441 239.259C240.679 239.135 241.051 238.474 241.476 237.561C243.678 237.542 244.818 239.641 244.818 239.641L247.607 239.196C247.607 239.196 251.285 231.955 252.111 231.513C252.937 231.071 252.238 228.208 252.238 228.208V227.48C252.26 227.505 252.279 227.534 252.305 227.559V227.578C253.046 228.706 253.562 229.966 253.823 231.291L253.883 231.574Z" fill="black"/>
<path d="M245.008 239.829C245.008 239.829 243.42 236.909 240.377 237.987C240.377 237.987 238.665 241.486 236.953 242.052C235.241 242.619 235.813 244.527 239.682 243.831C243.55 243.134 249.382 242.558 249.382 242.558L249.636 238.999L253.569 233.982C253.569 233.982 255.913 231.854 252.425 227.664V228.393C252.425 228.393 253.124 231.256 252.298 231.698C251.472 232.14 247.807 239.383 247.807 239.383L245.008 239.829Z" fill="#1D2366"/>
<path opacity="0.1" d="M221.608 188.196C221.663 189.158 221.788 190.115 221.983 191.059C218.406 190.534 215.087 190.795 212.911 190.967V188.132L221.608 188.196Z" fill="black"/>
<path opacity="0.1" d="M254.013 192.513C254.013 192.513 248.931 192.761 242.871 192.812C242.699 191.221 242.661 189.91 242.661 189.91C242.661 189.91 246.085 185.139 252.362 190.292C252.864 190.703 253.305 191.183 253.674 191.717C253.772 191.989 253.885 192.254 254.013 192.513Z" fill="black"/>
<path d="M254.013 191.94C254.013 191.94 231.754 193.018 224.969 191.113C218.184 189.207 211.46 190.858 210.447 190.416C209.433 189.974 210.256 183.049 211.145 181.334C212.035 179.619 216.914 162.279 216.914 162.279L221.608 137.765L226.554 136.401L226.903 136.302L235.521 133.922L241.835 132.176C241.835 132.176 254.391 181.27 253.315 184.891C252.924 186.277 252.861 187.735 253.13 189.15C253.295 190.116 253.592 191.055 254.013 191.94Z" fill="#1D2366"/>
<path d="M205.244 121.001C205.244 121.001 200.797 125.772 204.164 128.432C207.531 131.091 209.745 128.686 209.745 128.686L205.244 121.001Z" fill="#C7DAF5"/>
<path opacity="0.1" d="M205.244 121.001C205.244 121.001 200.797 125.772 204.164 128.432C207.531 131.091 209.745 128.686 209.745 128.686L205.244 121.001Z" fill="black"/>
<path d="M241.171 89.6284C241.171 89.6284 240.65 90.1247 239.866 90.8563C238.748 91.9029 237.093 93.433 235.625 94.715C233.593 96.4869 231.915 97.788 232.516 96.6778C233.116 95.5676 233.002 93.6335 232.703 91.8234C232.681 91.7025 232.662 91.5816 232.64 91.4639C232.392 90.1346 232.065 88.8215 231.658 87.532C231.658 87.532 234.943 83.2821 236.759 81.6056C237.436 80.9694 237.909 80.7085 237.938 81.1507C237.97 81.7456 238.414 83.0594 238.967 84.4527C238.983 84.4972 238.999 84.5386 239.018 84.5831C239.386 85.5375 239.802 86.5173 240.168 87.3634C240.727 88.6613 241.171 89.6284 241.171 89.6284Z" fill="#CCF6EF"/>
<path opacity="0.1" d="M239.018 84.5831C238.709 86.2457 237.96 87.7947 236.85 89.0684C235.739 90.342 234.307 91.2935 232.703 91.8234C232.451 90.3712 232.102 88.9376 231.658 87.532C231.658 87.532 237.843 79.5315 237.938 81.1507C237.96 81.7646 238.443 83.1262 239.018 84.5831Z" fill="black"/>
<path opacity="0.1" d="M232.087 93.9611L232.887 92.8318C232.887 92.8318 233.418 96.0702 235.368 94.6419C237.318 93.2136 237.414 105.391 237.414 105.391L235.321 136.735L220.195 135.828L220.624 120.683L222.336 113.048L226.57 101.949L229.089 98.2811L232.087 93.9611Z" fill="black"/>
<path d="M237.414 105.585L235.508 133.926L235.308 136.929L226.875 136.423L226.557 136.404L220.204 136.022L220.633 120.873L222.345 113.239L226.579 102.14L229.098 98.472L232.097 94.1361L232.897 93.0099C232.897 93.0099 233.427 96.2483 235.378 94.82L235.419 94.7914C237.325 93.5825 237.414 105.585 237.414 105.585Z" fill="#1D2366"/>
<path d="M222.558 110.586C222.558 110.586 221.799 112.176 220.274 111.919C218.75 111.661 218.753 117.645 218.753 117.645C218.753 117.645 217.739 118.599 217.041 117.772C216.342 116.945 214.5 119.741 214.5 119.741L202.957 120.25C202.957 120.25 208.093 122.601 207.086 129.714C207.086 129.714 224.524 128.632 225.096 126.981C225.668 125.33 222.558 110.586 222.558 110.586Z" fill="white"/>
<path opacity="0.03" d="M222.558 110.586C222.558 110.586 221.799 112.176 220.274 111.919C218.75 111.661 218.753 117.645 218.753 117.645C218.753 117.645 217.739 118.599 217.041 117.772C216.342 116.945 214.5 119.741 214.5 119.741L202.957 120.25C202.957 120.25 208.093 122.601 207.086 129.714C207.086 129.714 224.524 128.632 225.096 126.981C225.668 125.33 222.558 110.586 222.558 110.586Z" fill="black"/>
<path d="M189.012 123.988L192.055 126.59L217.104 131.861L213.998 128.686L189.012 123.988Z" fill="white"/>
<path d="M232.135 94.9632C231.719 95.5994 230.527 98.8569 229.533 101.701C228.704 104.071 228.012 106.154 228.012 106.154C228.012 106.154 226.395 116.697 225.569 118.602C224.743 120.508 225.191 127.939 225.191 127.939L222.113 146.291C222.113 146.291 220.719 155.755 218.565 161.408C216.44 166.971 214.074 169.58 214.001 169.663C214.954 168.371 220.147 142.941 220.147 142.941L221.862 110.869C221.862 110.869 222.113 107.821 222.367 105.216C222.621 102.611 227.767 99.0541 227.767 99.0541L232.729 91.9888C233.227 92.6569 232.894 93.8212 232.135 94.9632Z" fill="white"/>
<path d="M219.197 136.181C219.197 136.181 211.892 135.863 208.353 131.607C204.815 127.35 216.532 129.908 216.532 129.908L219.579 130.608L219.197 136.181Z" fill="#CCF6EF"/>
<path opacity="0.1" d="M253.315 184.894C252.924 186.28 252.861 187.738 253.13 189.153C245.161 189.72 236.636 187.563 236.636 187.563C235.047 189.026 230.864 191.183 230.864 191.183L228.584 162.871C227.126 159.053 226.554 139.054 226.554 139.054C226.554 139.054 226.684 138.007 226.871 136.439C226.871 136.401 226.871 136.359 226.887 136.321C227.456 131.941 228.584 123.717 229.136 122.607C229.899 121.08 226.792 117.018 226.792 117.018L228.206 104.946L228.377 103.489C231.356 102.156 233.64 97.8994 233.64 97.8994L235.394 94.8232C237.299 93.5985 237.398 105.601 237.398 105.601L235.492 133.942L241.807 132.195C241.807 132.195 254.391 181.274 253.315 184.894Z" fill="black"/>
<path d="M261.494 186.85C252.806 191.17 237.017 187.168 237.017 187.168C235.429 188.632 231.245 190.788 231.245 190.788L228.961 162.476C227.507 158.659 226.935 138.659 226.935 138.659C226.935 138.659 228.771 123.737 229.533 122.213C229.756 121.767 229.648 121.106 229.384 120.393C228.088 117.002 227.611 113.351 227.993 109.74L228.603 104.551L228.771 103.097C231.753 101.761 234.037 97.5049 234.037 97.5049L235.625 94.7182L238.548 89.5839L239.933 87.1535L240.168 87.3666L241.962 88.9954C241.962 88.9954 242.725 89.6316 243.868 90.5859C246.355 92.6855 250.653 96.382 252.87 98.6438C254.82 100.635 255.436 108.381 255.614 114.212C255.732 118.052 255.662 121.061 255.662 121.061C253.696 124.303 258.838 150.328 258.838 150.328C260.036 155.357 261.494 186.85 261.494 186.85Z" fill="white"/>
<path opacity="0.03" d="M244.818 97.4412C244.818 97.4412 238.856 108.807 239.548 113.127C240.241 117.447 242.21 122.337 241.26 123.479C240.934 123.911 240.512 124.263 240.028 124.505C239.543 124.747 239.01 124.874 238.468 124.875C237.515 124.939 234.974 126.717 234.974 126.908C234.974 127.099 232.627 127.099 230.527 127.99C228.428 128.88 225.328 129.386 225.328 129.386C225.328 129.386 219.293 129.195 218.73 129.768C218.168 130.341 217.59 133.767 218.794 136.499C219.998 139.232 221.335 141.271 222.345 141.643C223.355 142.015 229.765 139.865 234.965 139.356C240.165 138.847 245.809 134.721 245.809 134.721C245.809 134.721 252.025 132.494 253.114 128.75C254.204 125.006 251.784 104.427 251.784 104.427C251.784 104.427 249.954 94.8359 244.818 97.4412Z" fill="black"/>
<path opacity="0.03" d="M244.056 96.4869C244.056 96.4869 238.093 107.856 238.792 112.173C239.491 116.49 241.454 121.382 240.501 122.528C240.176 122.961 239.755 123.312 239.271 123.555C238.787 123.797 238.253 123.924 237.712 123.924C236.759 123.988 234.218 125.766 234.218 125.957C234.218 126.148 231.871 126.148 229.771 127.035C227.672 127.923 224.572 128.432 224.572 128.432C224.572 128.432 218.537 128.241 217.978 128.814C217.419 129.386 216.834 132.815 218.041 135.545C219.248 138.274 220.582 140.317 221.592 140.689C222.602 141.061 229.012 138.911 234.212 138.405C239.412 137.899 245.056 133.767 245.056 133.767C245.056 133.767 251.269 131.54 252.346 127.799C253.423 124.058 251.015 103.473 251.015 103.473C251.015 103.473 249.192 93.8848 244.056 96.4869Z" fill="black"/>
<path d="M244.63 96.8687C244.63 96.8687 238.668 108.238 239.367 112.555C240.066 116.872 242.029 121.764 241.079 122.906C240.754 123.34 240.333 123.693 239.848 123.936C239.363 124.179 238.829 124.305 238.287 124.306C237.334 124.37 234.793 126.148 234.793 126.336C234.793 126.523 232.449 126.526 230.346 127.417C228.244 128.308 225.147 128.814 225.147 128.814C225.147 128.814 219.112 128.623 218.549 129.195C217.987 129.768 217.409 133.197 218.613 135.927C219.817 138.656 221.154 140.698 222.164 141.071C223.174 141.443 229.584 139.292 234.784 138.783C239.983 138.274 245.628 134.148 245.628 134.148C245.628 134.148 251.844 131.922 252.933 128.177C254.023 124.433 251.618 103.854 251.618 103.854C251.618 103.854 249.763 94.2793 244.63 96.8687Z" fill="white"/>
<path opacity="0.1" d="M244.5 127.363C244.5 127.363 239.736 126.409 241.394 127.999C243.052 129.59 243.042 130.983 245.072 130.92C247.102 130.856 244.5 127.363 244.5 127.363Z" fill="black"/>
<path opacity="0.1" d="M252.552 161.586C252.552 161.586 250.399 163.046 254.518 166.411C258.638 169.777 252.552 161.586 252.552 161.586Z" fill="black"/>
<path opacity="0.1" d="M248.442 173.588C248.442 173.779 247.68 180.587 250.532 182.288C253.384 183.99 248.442 173.588 248.442 173.588Z" fill="black"/>
<path d="M203.154 120.234C200.854 120.314 195.886 121.017 198.462 125.83C200.74 130.089 204.567 127.242 206.721 125.082C206.195 123.068 204.919 121.333 203.154 120.234Z" fill="#CCF6EF"/>
<path d="M206.749 125.044L206.845 124.945L206.749 125.044Z" fill="#FFB0B1"/>
<path opacity="0.1" d="M243.868 90.78C241.429 92.4501 239.383 93.8593 238.983 94.152C237.89 94.9632 235.807 99.7253 234.463 102.156C233.392 104.112 229.914 104.615 228.603 104.739L228.771 103.285C231.753 101.949 234.037 97.6926 234.037 97.6926L239.933 87.3412L241.962 89.1894C241.962 89.1894 242.725 89.8257 243.868 90.78Z" fill="black"/>
<path d="M243.868 90.5891C241.429 92.2592 239.383 93.6685 238.983 93.9643C237.89 94.7723 235.807 99.5345 234.463 101.965C233.392 103.921 229.914 104.424 228.603 104.548L228.771 103.094C231.753 101.758 234.037 97.5017 234.037 97.5017L239.933 87.1503L241.962 88.9922C241.962 88.9922 242.725 89.6221 243.868 90.5891Z" fill="#DCE7FF"/>
<path d="M239.174 82.4836C239.175 84.3932 238.597 86.2581 237.515 87.8311C236.239 89.6909 234.338 91.0307 232.16 91.6073C229.981 92.184 227.668 91.9593 225.64 90.9741C223.612 89.9889 222.005 88.3084 221.108 86.2375C220.212 84.1666 220.087 81.8426 220.755 79.6871C221.424 77.5316 222.841 75.6875 224.751 74.4893C226.661 73.2911 228.936 72.8183 231.165 73.1566C233.393 73.4949 235.426 74.6219 236.895 76.3332C238.365 78.0445 239.173 80.2266 239.174 82.4836Z" fill="#CCF6EF"/>
<path opacity="0.1" d="M255.614 114.215C254.324 113.421 253.274 112.291 252.575 110.945C252.044 109.895 251.692 108.683 250.786 107.939C249.97 107.271 248.88 107.109 247.864 106.81C244.522 105.82 241.721 102.766 241.616 99.28C241.565 97.6385 242.077 96.0002 241.845 94.3747C241.713 93.4547 241.348 92.5839 240.784 91.8457C240.504 91.4926 240.197 91.1618 239.866 90.8563C239.421 90.4364 238.954 90.0292 238.548 89.5839C238.292 89.3081 238.068 89.0039 237.881 88.6772C237.73 88.4099 237.607 88.1273 237.515 87.8342C236.88 85.8874 237.458 83.5779 236.759 81.6088L236.721 81.5006C236.458 80.8008 235.921 80.1009 235.174 80.0468C234.428 79.9928 233.79 80.6131 233.078 80.8898C231.588 81.4688 229.981 80.4826 228.739 79.4774C227.497 78.4722 226.096 77.3238 224.518 77.5465C223.473 77.696 222.647 78.4085 221.684 78.7776C221.467 78.8618 221.243 78.9267 221.014 78.9716C221.829 76.9373 223.325 75.2506 225.247 74.2012C227.168 73.1519 229.394 72.8054 231.543 73.2213C233.692 73.6373 235.629 74.7896 237.021 76.4805C238.414 78.1713 239.175 80.295 239.173 82.4868C239.175 83.1486 239.105 83.8087 238.967 84.4559C238.983 84.5004 238.999 84.5418 239.018 84.5863C239.386 85.5406 239.802 86.5204 240.168 87.3666L241.962 88.9954C241.962 88.9954 242.725 89.6316 243.868 90.5859C246.355 92.6855 250.653 96.382 252.87 98.6437C254.82 100.641 255.43 108.384 255.614 114.215Z" fill="black"/>
<path d="M221.573 72.9656C222.028 72.0399 222.253 71.0029 222.796 70.1249C223.593 68.8524 224.985 68.0381 226.414 67.545C230.146 66.2566 238.033 64.3861 240.39 67.545C240.854 68.1812 241.238 68.8874 241.88 69.3264C242.369 69.6605 242.96 69.8036 243.497 70.0549C244.999 70.7611 245.958 72.3008 246.47 73.8723C246.981 75.4438 247.133 77.1297 247.508 78.7489C247.988 80.8262 248.83 82.7953 249.668 84.7517C250.656 87.0612 251.704 89.4566 253.61 91.0886C256.211 93.3154 256.786 96.4679 259.2 98.911C262.059 101.812 261.967 106.6 260.493 110.401C260.299 110.901 260.08 111.422 260.156 111.954C260.233 112.485 260.627 112.968 260.998 113.391L262.561 115.157C258.864 116.051 254.68 114.117 252.959 110.723C252.428 109.673 252.076 108.464 251.167 107.716C250.354 107.048 249.262 106.889 248.248 106.59C244.907 105.598 242.105 102.541 242 99.0541C241.95 97.4158 242.461 95.7775 242.229 94.1552C242.1 93.229 241.734 92.3522 241.165 91.6103C240.292 90.4682 238.973 89.7016 238.262 88.4291C237.058 86.301 237.973 83.5365 237.106 81.2525C236.839 80.5526 236.305 79.8528 235.559 79.7987C234.812 79.7446 234.174 80.365 233.459 80.6417C231.973 81.2207 230.365 80.2377 229.124 79.2293C227.882 78.2209 226.481 77.0757 224.899 77.3015C223.854 77.4479 223.031 78.1604 222.069 78.5326C221.357 78.8062 219.915 79.0512 219.293 78.4499C217.978 77.2379 221.024 74.0981 221.573 72.9656Z" fill="#591D4B"/>
<path opacity="0.1" d="M253.842 109.673C253.308 108.623 252.959 107.414 252.05 106.67C251.237 106.002 250.145 105.839 249.128 105.54C245.79 104.551 242.988 101.494 242.88 98.0075C242.829 96.3692 243.341 94.7278 243.112 93.1054C242.979 92.1852 242.613 91.3144 242.048 90.5764C241.171 89.4343 239.853 88.6677 239.145 87.3952C237.941 85.2702 238.856 82.5058 237.986 80.2186C237.722 79.5219 237.185 78.8221 236.442 78.7648C235.699 78.7076 235.054 79.3343 234.342 79.611C232.856 80.19 231.245 79.2038 230.007 78.1986C228.768 77.1934 227.361 76.045 225.782 76.2676C224.737 76.4172 223.911 77.1297 222.952 77.4987C222.24 77.7723 220.795 78.0204 220.173 77.4192C218.864 76.1468 221.91 73.0133 222.456 71.8872C222.911 70.9583 223.136 69.9245 223.682 69.0465C223.711 68.9987 223.743 68.951 223.775 68.9033C223.366 69.2424 223.013 69.6439 222.73 70.0931C222.186 70.9711 221.961 72.0017 221.507 72.9338C220.957 74.0599 217.911 77.2029 219.223 78.4658C219.858 79.0702 221.287 78.8221 221.999 78.5485C222.952 78.1763 223.784 77.4637 224.829 77.3174C226.417 77.0916 227.815 78.2399 229.054 79.2452C230.292 80.2504 231.912 81.2366 233.393 80.6576C234.104 80.3808 234.727 79.7573 235.489 79.8146C236.251 79.8719 236.759 80.5685 237.036 81.2684C237.903 83.5524 236.988 86.3168 238.192 88.445C238.903 89.6952 240.222 90.4778 241.095 91.6262C241.664 92.368 242.03 93.2449 242.159 94.1711C242.391 95.7934 241.88 97.4317 241.931 99.07C242.035 102.569 244.837 105.614 248.178 106.606C249.185 106.905 250.284 107.064 251.098 107.732C252.009 108.48 252.368 109.689 252.889 110.738C254.611 114.133 258.794 116.067 262.491 115.173L261.754 114.339C258.549 114.387 255.306 112.561 253.842 109.673Z" fill="black"/>
<path opacity="0.1" d="M231.944 95.1541C231.528 95.7903 230.337 99.0478 229.343 101.892C228.412 101.529 227.567 99.2164 227.567 99.2164L232.528 92.1479C233.037 92.8477 232.703 94.0089 231.944 95.1541Z" fill="black"/>
<path d="M232.135 94.9632C231.719 95.5994 230.527 98.8569 229.533 101.701C228.603 101.341 227.758 99.0255 227.758 99.0255L232.719 91.9602C233.227 92.6569 232.894 93.8212 232.135 94.9632Z" fill="#DCE7FF"/>
<path d="M203.287 127.462L200.536 118.774C200.504 118.672 200.491 118.565 200.5 118.459C200.509 118.352 200.539 118.249 200.588 118.154C200.637 118.059 200.704 117.975 200.786 117.906C200.867 117.837 200.962 117.785 201.064 117.753C201.268 117.689 201.49 117.708 201.68 117.807C201.871 117.906 202.014 118.076 202.08 118.281L204.831 126.959L204.557 128.775L203.287 127.462Z" fill="#BE8B87"/>
<path opacity="0.1" d="M200.797 118.01C201.002 117.945 201.224 117.965 201.416 118.064C201.607 118.163 201.751 118.333 201.816 118.539L204.567 127.217L204.361 128.578L204.561 128.788L204.834 126.972L202.067 118.294C202.002 118.089 201.858 117.919 201.668 117.82C201.477 117.721 201.256 117.702 201.051 117.766C200.879 117.821 200.73 117.933 200.628 118.084C200.682 118.055 200.739 118.03 200.797 118.01Z" fill="white"/>
<path d="M203.287 127.462L204.831 126.972L204.605 128.461L204.558 128.788L204.106 128.317L203.287 127.462Z" fill="#EFC8C4"/>
<path d="M204.107 128.317C204.133 128.283 204.167 128.255 204.205 128.235C204.227 128.221 204.253 128.213 204.28 128.213C204.306 128.213 204.332 128.221 204.354 128.235C204.376 128.261 204.394 128.29 204.408 128.321C204.429 128.356 204.458 128.386 204.492 128.408C204.526 128.431 204.565 128.445 204.605 128.451L204.558 128.769L204.107 128.317Z" fill="#727A9C"/>
<path d="M200.52 121.86C200.52 121.86 206.038 121.828 204.739 124.179C203.439 126.53 201.41 126.813 201.41 126.813L200.52 121.86Z" fill="#CCF6EF"/>
</g>
<defs>
<linearGradient id="paint0_linear" x1="70843.2" y1="147694" x2="70843.2" y2="47215.3" gradientUnits="userSpaceOnUse">
<stop stop-color="#808080" stop-opacity="0.25"/>
<stop offset="0.54" stop-color="#808080" stop-opacity="0.12"/>
<stop offset="1" stop-color="#808080" stop-opacity="0.1"/>
</linearGradient>
<clipPath id="clip0">
<rect width="351" height="249" fill="white" transform="translate(-58)"/>
</clipPath>
</defs>
</svg>
