<svg width="287" height="221" viewBox="0 0 287 221" fill="none" xmlns="http://www.w3.org/2000/svg">
<g clip-path="url(#clip0)">
<path opacity="0.1" d="M3.09998 112.402C7.64133 131.799 17.2551 148.566 32.4461 156.694C64.0237 173.584 135.234 164.871 188.377 154.864C215.232 149.824 239.608 135.899 257.581 115.332L3.09998 112.402Z" fill="#00B696"/>
<path opacity="0.1" d="M281.794 21.0938H252.634C251.966 21.0938 251.325 20.8286 250.852 20.3565C250.38 19.8844 250.115 19.244 250.115 18.5764C250.115 17.9087 250.38 17.2684 250.852 16.7963C251.325 16.3241 251.966 16.0589 252.634 16.0589H257.675C257.02 16.0378 256.4 15.7632 255.944 15.2932C255.489 14.8231 255.234 14.1945 255.234 13.5401C255.234 12.8858 255.489 12.2572 255.944 11.7871C256.4 11.3171 257.02 11.0425 257.675 11.0214H254.075C253.421 11.0003 252.8 10.7257 252.345 10.2557C251.889 9.7856 251.635 9.15694 251.635 8.50263C251.635 7.84832 251.889 7.21966 252.345 6.7496C252.8 6.27954 253.421 6.00494 254.075 5.98387H269.295C265.918 4.41536 261.97 3.29911 257.421 2.71615C215.921 -2.61155 201.104 0.912364 195.877 4.54607C189.429 9.01631 182.235 12.305 174.547 13.8891C148.941 19.1672 101.056 25.5196 57.6538 11.8579C36.0823 5.06106 20.0516 16.5399 10.4404 35.7201H286.856C286.495 30.1441 285.415 25.002 283.432 20.4926C282.976 20.8829 282.395 21.0963 281.794 21.0938Z" fill="#00B696"/>
<path opacity="0.1" d="M0.625263 71.9161C-0.494723 83.1966 -0.114717 94.5758 1.75537 105.757L257.777 115.115C264.904 106.923 270.888 97.8036 275.566 88.0063L0.625263 71.9161ZM101.885 96.058H96.8439C97.512 96.058 98.1528 96.3232 98.6252 96.7954C99.0977 97.2675 99.3631 97.9078 99.3631 98.5755C99.3631 99.2431 99.0977 99.8835 98.6252 100.356C98.1528 100.828 97.512 101.093 96.8439 101.093H67.6835C67.0154 101.093 66.3746 100.828 65.9022 100.356C65.4297 99.8835 65.1643 99.2431 65.1643 98.5755C65.1643 97.9078 65.4297 97.2675 65.9022 96.7954C66.3746 96.3232 67.0154 96.058 67.6835 96.058H72.7245C72.0701 96.0369 71.4495 95.7623 70.994 95.2923C70.5386 94.8222 70.2839 94.1936 70.2839 93.5392C70.2839 92.8849 70.5386 92.2563 70.994 91.7862C71.4495 91.3162 72.0701 91.0416 72.7245 91.0205H69.1249C68.4705 90.9994 67.8499 90.7248 67.3944 90.2548C66.939 89.7847 66.6843 89.156 66.6843 88.5017C66.6843 87.8474 66.939 87.2188 67.3944 86.7487C67.8499 86.2786 68.4705 86.004 69.1249 85.983H98.2853C98.9397 86.004 99.5603 86.2786 100.016 86.7487C100.471 87.2188 100.726 87.8474 100.726 88.5017C100.726 89.156 100.471 89.7847 100.016 90.2548C99.5603 90.7248 98.9397 90.9994 98.2853 91.0205H101.885C102.539 91.0416 103.16 91.3162 103.615 91.7862C104.071 92.2563 104.326 92.8849 104.326 93.5392C104.326 94.1936 104.071 94.8222 103.615 95.2923C103.16 95.7623 102.539 96.0369 101.885 96.058Z" fill="#00B696"/>
<path opacity="0.1" d="M286.869 35.89L7.35607 42.6869C3.95529 51.4182 1.71339 61.292 0.666992 71.5291H281.972C283.808 65.516 285.166 59.3675 286.035 53.141C286.872 47.1257 287.207 41.3092 286.869 35.89ZM57.413 58.1523H52.372C53.0401 58.1523 53.6809 58.4176 54.1533 58.8897C54.6258 59.3618 54.8912 60.0021 54.8912 60.6698C54.8912 61.3375 54.6258 61.9778 54.1533 62.4499C53.6809 62.922 53.0401 63.1873 52.372 63.1873H23.2116C22.5434 63.1873 21.9027 62.922 21.4302 62.4499C20.9578 61.9778 20.6924 61.3375 20.6924 60.6698C20.6924 60.0021 20.9578 59.3618 21.4302 58.8897C21.9027 58.4176 22.5434 58.1523 23.2116 58.1523H28.2526C27.5982 58.1313 26.9776 57.8567 26.5221 57.3866C26.0666 56.9166 25.812 56.2879 25.812 55.6336C25.812 54.9793 26.0666 54.3506 26.5221 53.8806C26.9776 53.4105 27.5982 53.1359 28.2526 53.1148H24.653C23.9986 53.0938 23.378 52.8192 22.9225 52.3491C22.467 51.879 22.2124 51.2504 22.2124 50.5961C22.2124 49.9418 22.467 49.3131 22.9225 48.843C23.378 48.373 23.9986 48.0984 24.653 48.0773H53.8134C54.4678 48.0984 55.0884 48.373 55.5439 48.843C55.9993 49.3131 56.254 49.9418 56.254 50.5961C56.254 51.2504 55.9993 51.879 55.5439 52.3491C55.0884 52.8192 54.4678 53.0938 53.8134 53.1148H57.413C58.0674 53.1359 58.688 53.4105 59.1435 53.8806C59.5989 54.3506 59.8536 54.9793 59.8536 55.6336C59.8536 56.2879 59.5989 56.9166 59.1435 57.3866C58.688 57.8567 58.0674 58.1313 57.413 58.1523Z" fill="#00B696"/>
<g opacity="0.1">
<path opacity="0.1" d="M152.593 155.183C152.593 155.183 159.97 137.014 173.746 130.272C179.542 127.483 184.276 122.89 187.237 117.183C188.621 114.462 189.753 111.62 190.619 108.692" stroke="#535461" stroke-width="2" stroke-miterlimit="10"/>
<path opacity="0.1" d="M199.276 104.395C197.839 106.198 190.407 108.839 190.407 108.839C190.407 108.839 191.302 101.009 192.738 99.2054C193.066 98.738 193.486 98.3425 193.972 98.0432C194.458 97.744 195.001 97.5474 195.566 97.4655C196.131 97.3836 196.707 97.4181 197.258 97.567C197.81 97.7158 198.325 97.9759 198.772 98.3311C199.219 98.6863 199.588 99.1291 199.858 99.6324C200.127 100.136 200.29 100.689 200.338 101.257C200.385 101.826 200.316 102.399 200.133 102.939C199.951 103.48 199.66 103.978 199.278 104.402L199.276 104.395Z" fill="#6C63FF"/>
<path opacity="0.1" d="M196.725 118.681C194.538 119.416 186.868 117.591 186.868 117.591C186.868 117.591 191.878 111.505 194.064 110.771C194.595 110.551 195.164 110.442 195.738 110.451C196.312 110.461 196.878 110.588 197.401 110.826C197.924 111.063 198.392 111.405 198.776 111.831C199.161 112.257 199.454 112.757 199.637 113.301C199.82 113.845 199.889 114.42 199.839 114.992C199.79 115.564 199.624 116.119 199.351 116.623C199.078 117.128 198.704 117.571 198.252 117.925C197.8 118.279 197.28 118.536 196.725 118.681Z" fill="#6C63FF"/>
<path opacity="0.1" d="M182.897 135.571C180.639 135.103 174.939 129.655 174.939 129.655C174.939 129.655 182.34 126.929 184.597 127.399C185.62 127.684 186.496 128.347 187.048 129.253C187.601 130.159 187.788 131.241 187.571 132.28C187.355 133.319 186.752 134.237 185.884 134.848C185.016 135.459 183.948 135.717 182.897 135.571Z" fill="#6C63FF"/>
<path opacity="0.1" d="M169.555 145.997C167.251 145.916 160.711 141.511 160.711 141.511C160.711 141.511 167.544 137.574 169.848 137.652C170.419 137.637 170.988 137.739 171.518 137.952C172.048 138.164 172.529 138.483 172.931 138.889C173.333 139.294 173.648 139.778 173.856 140.309C174.065 140.841 174.162 141.409 174.142 141.98C174.122 142.551 173.985 143.111 173.74 143.627C173.495 144.143 173.147 144.603 172.717 144.979C172.288 145.355 171.785 145.64 171.242 145.815C170.698 145.99 170.124 146.052 169.555 145.997Z" fill="#6C63FF"/>
<path opacity="0.1" d="M179.726 112.485C180.019 114.77 185.016 120.869 185.016 120.869C185.016 120.869 188.307 113.706 188.011 111.419C187.975 110.848 187.822 110.29 187.562 109.78C187.302 109.271 186.94 108.82 186.498 108.455C186.056 108.091 185.544 107.821 184.994 107.663C184.444 107.504 183.867 107.46 183.299 107.533C182.731 107.606 182.184 107.795 181.692 108.088C181.2 108.381 180.773 108.771 180.438 109.235C180.104 109.7 179.868 110.228 179.745 110.787C179.623 111.346 179.616 111.924 179.726 112.485Z" fill="#6C63FF"/>
<path opacity="0.1" d="M164.276 124.877C165.242 126.968 171.836 131.294 171.836 131.294C171.836 131.294 172.828 123.475 171.863 121.382C171.356 120.447 170.513 119.74 169.504 119.405C168.495 119.069 167.396 119.13 166.43 119.575C165.464 120.02 164.704 120.816 164.304 121.8C163.904 122.785 163.894 123.885 164.276 124.877Z" fill="#6C63FF"/>
<path opacity="0.1" d="M150.914 138.975C151.513 141.2 157.278 146.577 157.278 146.577C157.278 146.577 159.58 139.038 158.984 136.813C158.645 135.803 157.934 134.961 156.995 134.458C156.057 133.954 154.961 133.827 153.932 134.103C152.903 134.378 152.018 135.036 151.457 135.941C150.896 136.847 150.702 137.931 150.914 138.975Z" fill="#6C63FF"/>
<path opacity="0.25" d="M199.276 104.395C197.839 106.198 190.407 108.839 190.407 108.839C190.407 108.839 191.302 101.009 192.738 99.2054C193.066 98.738 193.486 98.3425 193.972 98.0432C194.458 97.744 195.001 97.5474 195.566 97.4655C196.131 97.3836 196.707 97.4181 197.258 97.567C197.81 97.7158 198.325 97.9759 198.772 98.3311C199.219 98.6863 199.588 99.1291 199.858 99.6324C200.127 100.136 200.29 100.689 200.338 101.257C200.385 101.826 200.316 102.399 200.133 102.939C199.951 103.48 199.66 103.978 199.278 104.402L199.276 104.395Z" fill="black"/>
<path opacity="0.25" d="M196.725 118.681C194.538 119.416 186.868 117.591 186.868 117.591C186.868 117.591 191.878 111.505 194.064 110.771C194.595 110.551 195.164 110.442 195.738 110.451C196.312 110.461 196.878 110.588 197.401 110.826C197.924 111.063 198.392 111.405 198.776 111.831C199.161 112.257 199.454 112.757 199.637 113.301C199.82 113.845 199.889 114.42 199.839 114.992C199.79 115.564 199.624 116.119 199.351 116.623C199.078 117.128 198.704 117.571 198.252 117.925C197.8 118.279 197.28 118.536 196.725 118.681Z" fill="black"/>
<path opacity="0.25" d="M182.897 135.571C180.639 135.103 174.939 129.655 174.939 129.655C174.939 129.655 182.34 126.929 184.597 127.399C185.62 127.684 186.496 128.347 187.048 129.253C187.601 130.159 187.788 131.241 187.571 132.28C187.355 133.319 186.752 134.237 185.884 134.848C185.016 135.459 183.948 135.717 182.897 135.571Z" fill="black"/>
<path opacity="0.25" d="M169.555 145.997C167.251 145.916 160.711 141.511 160.711 141.511C160.711 141.511 167.544 137.574 169.848 137.652C170.419 137.637 170.988 137.739 171.518 137.952C172.048 138.164 172.529 138.483 172.931 138.889C173.333 139.294 173.648 139.778 173.856 140.309C174.065 140.841 174.162 141.409 174.142 141.98C174.122 142.551 173.985 143.111 173.74 143.627C173.495 144.143 173.147 144.603 172.717 144.979C172.288 145.355 171.785 145.64 171.242 145.815C170.698 145.99 170.124 146.052 169.555 145.997Z" fill="black"/>
<path opacity="0.25" d="M179.726 112.485C180.019 114.77 185.016 120.869 185.016 120.869C185.016 120.869 188.307 113.706 188.011 111.419C187.975 110.848 187.822 110.29 187.562 109.78C187.302 109.271 186.94 108.82 186.498 108.455C186.056 108.091 185.544 107.821 184.994 107.663C184.444 107.504 183.867 107.46 183.299 107.533C182.731 107.606 182.184 107.795 181.692 108.088C181.2 108.381 180.773 108.771 180.438 109.235C180.104 109.7 179.868 110.228 179.745 110.787C179.623 111.346 179.616 111.924 179.726 112.485Z" fill="black"/>
<path opacity="0.25" d="M164.276 124.877C165.242 126.968 171.836 131.294 171.836 131.294C171.836 131.294 172.828 123.475 171.863 121.382C171.356 120.447 170.513 119.74 169.504 119.405C168.495 119.069 167.396 119.13 166.43 119.575C165.464 120.02 164.704 120.816 164.304 121.8C163.904 122.785 163.894 123.885 164.276 124.877Z" fill="black"/>
<path opacity="0.25" d="M150.914 138.975C151.513 141.2 157.278 146.577 157.278 146.577C157.278 146.577 159.58 139.038 158.984 136.813C158.645 135.803 157.934 134.961 156.995 134.458C156.057 133.954 154.961 133.827 153.932 134.103C152.903 134.378 152.018 135.036 151.457 135.941C150.896 136.847 150.702 137.931 150.914 138.975Z" fill="black"/>
</g>
<g opacity="0.1">
<path opacity="0.1" d="M158.113 127.674C158.113 127.674 159.044 108.088 169.804 97.1664C174.347 92.6134 177.289 86.7105 178.188 80.3442C178.589 77.3188 178.711 74.2631 178.554 71.2155" stroke="#535461" stroke-width="2" stroke-miterlimit="10"/>
<path opacity="0.1" d="M185.301 64.2905C184.545 66.4681 178.408 71.4141 178.408 71.4141C178.408 71.4141 176.655 63.7311 177.408 61.5535C177.561 61.0025 177.825 60.4887 178.185 60.0438C178.544 59.5989 178.991 59.2323 179.497 58.9666C180.004 58.701 180.56 58.542 181.13 58.4994C181.701 58.4568 182.274 58.5315 182.814 58.7189C183.355 58.9063 183.851 59.2025 184.273 59.5891C184.694 59.9758 185.032 60.4446 185.265 60.9667C185.498 61.4889 185.621 62.0532 185.627 62.6249C185.634 63.1965 185.523 63.7634 185.301 64.2905Z" fill="#6C63FF"/>
<path opacity="0.1" d="M187.637 78.6057C185.806 80.0252 177.974 80.8434 177.974 80.8434C177.974 80.8434 180.681 73.4401 182.499 72.0232C183.378 71.4249 184.452 71.1833 185.503 71.3475C186.553 71.5118 187.502 72.0695 188.156 72.9075C188.81 73.7455 189.121 74.8008 189.024 75.8592C188.928 76.9175 188.432 77.8995 187.637 78.6057Z" fill="#6C63FF"/>
<path opacity="0.1" d="M180.197 99.1297C177.911 99.4355 170.725 96.1861 170.725 96.1861C170.725 96.1861 176.802 91.1538 179.077 90.8558C180.138 90.7832 181.187 91.1168 182.01 91.7886C182.834 92.4605 183.371 93.4203 183.512 94.4733C183.653 95.5263 183.388 96.5935 182.77 97.4583C182.153 98.3231 181.229 98.9207 180.187 99.1297H180.197Z" fill="#6C63FF"/>
<path opacity="0.1" d="M171.067 113.387C168.867 114.075 161.236 112.08 161.236 112.08C161.236 112.08 166.374 106.102 168.577 105.414C169.111 105.208 169.682 105.114 170.254 105.138C170.826 105.161 171.388 105.302 171.903 105.551C172.419 105.8 172.878 106.152 173.252 106.585C173.626 107.018 173.907 107.524 174.077 108.07C174.248 108.616 174.305 109.192 174.244 109.761C174.183 110.33 174.007 110.88 173.724 111.378C173.442 111.876 173.061 112.311 172.604 112.655C172.147 113 171.624 113.247 171.067 113.382V113.387Z" fill="#6C63FF"/>
<path opacity="0.1" d="M169.542 78.4019C170.589 80.4592 177.317 84.5582 177.317 84.5582C177.317 84.5582 178.042 76.7157 177.006 74.6505C176.781 74.1246 176.452 73.6502 176.037 73.2565C175.622 72.8628 175.131 72.5583 174.594 72.3617C174.057 72.1651 173.485 72.0806 172.914 72.1135C172.343 72.1463 171.785 72.2958 171.274 72.5526C170.763 72.8095 170.31 73.1683 169.943 73.6068C169.576 74.0454 169.303 74.5545 169.141 75.1026C168.979 75.6508 168.931 76.2263 169 76.7938C169.069 77.3612 169.253 77.9085 169.542 78.4019Z" fill="#6C63FF"/>
<path opacity="0.1" d="M159.078 95.2083C160.684 96.8631 168.339 98.7584 168.339 98.7584C168.339 98.7584 166.683 91.0544 165.077 89.3996C164.706 88.963 164.25 88.607 163.736 88.3538C163.222 88.1005 162.661 87.9554 162.089 87.9275C161.517 87.8995 160.945 87.9893 160.409 88.1912C159.872 88.3932 159.383 88.703 158.972 89.1014C158.56 89.4999 158.235 89.9786 158.016 90.5078C157.798 91.037 157.69 91.6054 157.7 92.1779C157.71 92.7504 157.837 93.3148 158.074 93.8361C158.311 94.3573 158.653 94.8244 159.078 95.2083Z" fill="#6C63FF"/>
<path opacity="0.1" d="M151.152 112.94C152.46 114.843 159.68 118.001 159.68 118.001C159.68 118.001 159.348 110.127 158.048 108.227C157.758 107.731 157.369 107.3 156.906 106.961C156.442 106.621 155.914 106.381 155.353 106.255C154.792 106.128 154.212 106.119 153.647 106.226C153.083 106.334 152.547 106.557 152.072 106.881C151.597 107.204 151.195 107.622 150.889 108.109C150.583 108.595 150.381 109.139 150.294 109.706C150.208 110.274 150.239 110.854 150.387 111.409C150.535 111.964 150.795 112.482 151.152 112.933V112.94Z" fill="#6C63FF"/>
</g>
<path d="M261.29 165.174C261.29 165.836 261.214 166.372 261.123 166.372C261.031 166.372 260.958 165.836 260.958 165.174C260.958 164.513 261.049 164.824 261.141 164.824C261.233 164.824 261.29 164.513 261.29 165.174Z" fill="#FFD037"/>
<path d="M248.354 165.174C248.354 165.836 248.43 166.372 248.521 166.372C248.613 166.372 248.686 165.836 248.686 165.174C248.686 164.513 248.595 164.824 248.503 164.824C248.412 164.824 248.354 164.513 248.354 165.174Z" fill="#FFD037"/>
<path d="M247.438 165.964C248.019 166.28 248.524 166.471 248.569 166.39C248.613 166.309 248.179 165.99 247.598 165.673C247.017 165.357 247.245 165.587 247.2 165.673C247.156 165.76 246.858 165.658 247.438 165.964Z" fill="#FFD037"/>
<path opacity="0.1" d="M89.9429 212.595C100.229 216.049 112.778 213.947 124.448 214.193C126.046 214.227 127.739 214.326 129.021 214.922C130.302 215.518 130.93 216.491 131.809 217.317C135.082 220.396 141.781 221.389 147.638 220.864C153.496 220.339 158.866 218.611 164.381 217.293C173.934 215.014 184.856 213.978 194.279 216.462C195.145 216.689 196.055 216.951 196.981 216.859C199.048 216.658 199.663 215.003 201.109 214.059C203.725 212.355 209.381 212.818 210.527 210.572C211.199 209.265 209.653 207.903 207.971 207.006C201.533 203.563 192.32 202.996 183.888 203.529C175.457 204.063 167.172 205.521 158.699 205.527C148.143 205.527 137.944 203.284 127.49 202.364C120.249 201.723 112.346 201.804 105.558 203.671C98.2146 205.717 96.5927 210.277 89.9429 212.595Z" fill="#6C63FF"/>
<path d="M165.032 106.162C164.182 105.885 159.178 102.008 158.801 100.254C158.424 98.4996 161.443 82.1636 161.443 82.1636C161.443 82.1636 161.166 82.1505 160.721 82.1087V81.8473L161.341 60.3822C161.341 60.3822 163.889 45.986 159.076 46.8147C154.262 47.6434 157.281 60.3822 157.281 60.3822C157.281 60.3822 156.732 66.8445 156.347 68.7842C155.973 70.6507 154.294 78.2632 155.442 80.6291C155.483 80.7137 155.53 80.7949 155.583 80.8722C155.583 80.8722 155.772 88.9918 153.695 90.1002C151.712 91.1459 150.888 96.4684 150.817 96.9468L150.712 96.8997C150.122 96.539 149.601 96.075 149.174 95.5299C149.135 95.475 149.098 95.4148 149.059 95.3573C150.41 93.8789 151.141 91.9382 151.1 89.9366C151.06 87.935 150.251 86.0254 148.842 84.6026L148.646 84.4118C148.808 84.251 148.927 84.0525 148.994 83.834C149.36 82.7309 148.094 81.8447 147.437 81.1545C145.917 79.5389 144.546 77.56 142.428 76.6451C143.035 76.9892 143.597 77.4072 144.102 77.8894C143.462 77.338 142.73 76.9042 141.938 76.6084C139.72 75.8242 137.167 76.4725 135.231 77.7953C133.295 79.1181 131.864 81.0238 130.556 82.9452L129.923 83.8863C129.369 83.2643 128.765 82.6881 128.118 82.1636C126.891 81.2408 124.437 78.1953 124.437 78.1953C124.437 78.1953 116.791 70.4416 116.223 68.3189C115.655 66.1962 108.012 53.4573 106.311 55.6741C104.611 57.8909 112.163 67.5791 112.163 67.5791C112.163 67.5791 113.581 71.0873 114.714 72.2846C115.846 73.4819 124.246 85.4836 124.246 85.4836L124.958 86.9214L125.091 87.1828L125.002 87.1331V88.8872L125.787 88.9578C125.439 89.2663 125.12 89.6067 124.835 89.9747C124.409 90.5933 124.092 91.2803 123.898 92.006C122.661 96.0919 123.166 100.565 124.762 104.53C125.091 105.346 125.468 106.159 125.567 107.03C125.711 108.248 125.306 109.453 125.06 110.658C124.72 112.349 124.733 114.192 125.583 115.701C126.721 117.703 129.272 118.746 131.584 118.373C132.64 118.194 133.638 117.77 134.498 117.133C135.582 116.382 136.456 115.367 137.039 114.185C137.47 113.304 137.74 112.355 138.169 111.471C138.25 111.301 138.341 111.139 138.43 110.974C139.409 112.07 140.288 113.066 140.288 113.066C140.288 113.066 142.365 123.034 140.57 125.802C139.616 127.195 138.46 128.439 137.141 129.493C136.808 129.767 136.502 130.073 136.228 130.406C136.05 130.534 135.945 130.602 135.945 130.602C135.945 130.602 135.898 130.735 135.83 130.939C135.409 131.558 135.104 132.248 134.93 132.975C134.865 133.161 134.842 133.36 134.862 133.556C134.99 133.817 133.939 134.863 134.247 135.31C131.631 138.316 131.129 142.875 131.129 142.875L126.36 149.983C123.906 156.304 120.226 156.953 120.226 156.953C120.226 156.953 111.593 151.275 111.35 150.997C111.106 150.72 107.81 149.338 107.81 149.338C107.419 148.664 106.825 148.13 106.112 147.813C104.98 147.353 104.885 145.646 104.885 145.646C104.744 141.631 102.335 141.307 102.335 141.307C100.394 141.147 98.9079 141.485 97.77 142.104L97.4247 142.13C95.753 142.264 93.7387 142.41 91.5256 142.554C85.3859 142.951 83.9262 146.846 83.9262 146.846C83.9262 146.846 83.1702 147.675 84.1616 148.574C85.1531 149.473 91.4864 148.59 91.748 148.553C91.2656 148.606 90.7775 148.574 90.3066 148.457C91.3059 148.42 92.6766 148.386 93.8434 148.383H94.1285C94.055 148.99 94.02 149.602 94.0239 150.213C94.0239 151.369 97.2808 152.106 97.2808 152.106L107.193 160.733C107.193 160.733 113.424 163.457 117.395 167.378C121.366 171.299 124.853 167.932 124.853 167.932C129.039 166.918 141.127 152.626 141.138 152.613C141.138 153.052 141.399 166.931 141.881 169.72C141.899 169.862 141.935 170 141.985 170.133C142.553 171.336 141.797 174.611 141.462 175.997C141.127 177.382 141.224 179.503 141.224 179.503C141.224 179.503 136.698 196.474 137.088 197.951C137.478 199.428 134.632 206.35 134.632 206.35V212.117C134.632 212.117 134.812 212.117 135.126 212.093C135.061 212.185 135.002 212.28 134.948 212.378C134.937 212.399 134.926 212.42 134.917 212.441C134.917 212.441 137.936 213.087 139.966 212.901C141.996 212.716 145.488 214.436 145.488 214.436C145.488 214.436 146.671 214.98 150.304 215.22C153.938 215.461 153.938 213.652 153.938 213.652C153.519 211.197 147.782 210.379 147.602 210.355C147.139 210.07 146.705 209.759 146.349 209.492L146.273 209.432C146.3 209.38 146.322 209.324 146.338 209.268C146.953 206.821 143.555 205.759 143.555 205.759V205.161C145.771 204.052 146.197 196.437 146.197 196.437C146.197 196.437 149.501 187.026 149.972 185.458C150.443 183.889 149.972 181.536 149.972 181.536L150.304 179.508C150.304 179.508 151.011 178.122 151.011 177.845C151.104 177.14 151.381 176.472 151.814 175.908C152.337 175.307 151.249 173.877 151.249 173.877L152.193 171.477V168.831L154.409 159.279C154.409 159.279 156.724 148.156 155.921 144.509C155.118 140.862 156.865 139.019 156.865 139.019C156.707 139.1 156.545 139.173 156.379 139.236C156.601 138.737 156.793 138.225 156.951 137.702L161.922 138.306C161.922 138.347 161.922 138.376 161.922 138.376H163.714C163.714 138.376 163.149 131.545 163.149 128.777C163.149 126.009 165.037 116.132 165.037 116.132C165.037 116.132 165.88 106.439 165.032 106.162ZM142.99 98.0578C142.99 98.097 142.99 98.1336 142.99 98.1702C142.99 98.4316 142.964 98.7218 142.945 99.0067L142.846 99.1584L142.666 99.0041L142.438 99.3466C142.398 99.1298 142.413 98.9065 142.48 98.6967C142.548 98.4869 142.666 98.297 142.825 98.144C142.878 98.1126 142.933 98.0847 142.99 98.0604V98.0578ZM159.502 130.037H159.612L159.434 130.487C159.458 130.34 159.479 130.191 159.502 130.04V130.037ZM141.371 211.704L140.693 211.539L141.07 211.477L141.41 211.699L141.452 211.725L141.371 211.704ZM148.287 210.737C148.062 210.619 147.835 210.475 147.615 210.35C147.686 210.389 147.976 210.538 148.287 210.737Z" fill="url(#paint0_linear)"/>
<path d="M161.153 123.128L156.823 134.4L156.216 133.903L153.804 137.644L161.153 138.559V123.128Z" fill="#F1D2D7"/>
<path opacity="0.1" d="M161.148 123.128L156.815 134.4L155.727 134.107L153.797 137.644L161.148 138.559V123.128Z" fill="black"/>
<path d="M154.367 130.34H161.153L163.643 109.856H154.367V130.34Z" fill="#F1D2D7"/>
<path opacity="0.1" d="M154.367 130.34H161.153L163.643 109.856H154.367V130.34Z" fill="black"/>
<path d="M141.112 114.708L142.574 114.446L145.941 113.897C145.941 113.897 156.051 111.623 158.147 111.44C159.455 111.325 160.902 110.786 161.809 110.394C162.356 110.161 162.704 109.981 162.704 109.981L159.062 103.333L153.412 99.1505C153.412 99.1505 149.839 98.3898 148.324 96.3116C147.987 95.864 147.768 95.3393 147.686 94.7855C147.605 94.2317 147.663 93.6662 147.856 93.1406C148.779 90.2806 142.346 95.8724 142.346 95.8724C142.346 95.8724 142.409 97.2108 142.346 98.9179C142.346 99.2551 142.315 99.6054 142.291 99.9636C142.276 100.199 142.255 100.434 142.234 100.675C142.074 102.369 141.752 104.115 141.119 105.158C139.576 107.696 141.112 114.708 141.112 114.708Z" fill="white"/>
<path opacity="0.1" d="M142.341 99.046H142.482C142.744 99.046 142.945 98.5022 143.196 98.4761C145.208 98.2826 147.045 97.8618 148.321 96.4396C147.985 95.9917 147.767 95.4672 147.685 94.9135C147.603 94.3597 147.661 93.7944 147.853 93.2686C148.776 90.4087 142.359 95.9978 142.359 95.9978C142.359 95.9978 142.409 97.3363 142.341 99.046Z" fill="black"/>
<path d="M134.511 90.9447C134.515 93.0224 135.343 95.0138 136.815 96.4817C138.286 97.9497 140.28 98.7741 142.359 98.7741C142.615 98.7742 142.87 98.7611 143.123 98.7349C144.633 98.5871 146.068 98.0044 147.252 97.0576C148.437 96.1108 149.322 94.8406 149.798 93.4012C150.274 91.9618 150.322 90.4152 149.936 88.9491C149.55 87.483 148.746 86.1605 147.622 85.1422C146.498 84.124 145.102 83.4537 143.604 83.2128C142.107 82.9719 140.571 83.1707 139.184 83.7851C137.797 84.3996 136.619 85.4032 135.791 86.6741C134.964 87.945 134.524 89.4286 134.525 90.9447H134.511Z" fill="#CCF6EF"/>
<path opacity="0.1" d="M134.511 90.9447C134.515 93.0224 135.343 95.0138 136.815 96.4817C138.286 97.9497 140.28 98.7741 142.359 98.7741C142.615 98.7742 142.87 98.7611 143.123 98.7349C143.263 98.6775 143.386 98.588 143.484 98.4735C143.575 98.3341 143.635 98.1766 143.66 98.0119C143.684 97.8472 143.672 97.6791 143.626 97.5193C143.317 95.99 141.928 94.8921 141.428 93.4124C140.989 92.1054 141.318 90.6231 141.993 89.4154C142.668 88.2076 143.665 87.2116 144.648 86.2339C144.814 86.042 145.021 85.8916 145.255 85.7947C146.092 85.5333 147.348 86.2653 148.013 85.5176C146.927 84.3969 145.533 83.6249 144.006 83.3002C142.48 82.9755 140.891 83.113 139.444 83.6949C137.996 84.2769 136.755 85.277 135.878 86.5674C135.002 87.8578 134.531 89.38 134.525 90.9394L134.511 90.9447Z" fill="black"/>
<path d="M144.968 85.664C144.733 85.7599 144.525 85.9105 144.361 86.1032C143.38 87.0809 142.383 88.0743 141.708 89.2846C141.033 90.495 140.703 91.9668 141.143 93.2791C141.64 94.7613 143.032 95.8593 143.338 97.3886C143.385 97.548 143.396 97.7156 143.372 97.8799C143.347 98.0442 143.288 98.2012 143.197 98.3401C142.935 98.6669 142.438 98.6852 142.098 98.931C141.664 99.2473 141.575 99.8747 141.705 100.395C141.883 100.901 142.124 101.383 142.425 101.827C143.157 103.121 143.471 104.805 142.686 106.062C142.317 106.576 141.876 107.034 141.378 107.424C140.554 108.156 139.791 108.954 139.097 109.811C138.5 110.524 137.988 111.305 137.575 112.138C137.161 113.008 136.9 113.947 136.484 114.817C135.508 116.854 133.588 118.477 131.357 118.846C129.125 119.214 126.663 118.184 125.567 116.211C124.741 114.721 124.73 112.904 125.057 111.244C125.29 110.057 125.685 108.867 125.549 107.665C125.45 106.807 125.086 106.005 124.764 105.2C123.226 101.278 122.737 96.8762 123.93 92.8451C124.117 92.1308 124.423 91.453 124.835 90.8401C125.268 90.3048 125.746 89.8072 126.263 89.3526C127.893 87.7606 129.094 85.7921 130.357 83.8968C131.621 82.0015 132.997 80.1193 134.867 78.8148C136.738 77.5104 139.199 76.8647 141.339 77.6463C143.578 78.4645 144.962 80.5507 146.516 82.229C147.147 82.9139 148.371 83.7844 148.018 84.8745C147.502 86.4116 145.949 85.3555 144.968 85.664Z" fill="#493545"/>
<path opacity="0.1" d="M130.943 118.472C133.172 118.103 135.092 116.48 136.068 114.441C136.487 113.573 136.746 112.634 137.161 111.764C137.574 110.931 138.085 110.15 138.681 109.437C139.376 108.58 140.14 107.781 140.965 107.048C141.464 106.658 141.904 106.2 142.273 105.686C143.058 104.429 142.757 102.745 142.027 101.454C141.727 101.008 141.484 100.525 141.305 100.018C141.169 99.4956 141.263 98.8708 141.698 98.5571C142.04 98.3114 142.532 98.2957 142.799 97.9663C142.89 97.8274 142.95 97.6703 142.974 97.5061C142.999 97.3418 142.987 97.1741 142.94 97.0148C142.631 95.4829 141.24 94.3875 140.743 92.9053C140.303 91.5982 140.63 90.1186 141.308 88.9082C141.985 87.6978 142.977 86.7097 143.95 85.7267C144.116 85.5353 144.325 85.3858 144.559 85.2902C145.538 84.9817 147.094 86.0378 147.597 84.4928C147.95 83.4027 146.726 82.5296 146.095 81.8473C144.758 80.4017 143.544 78.6554 141.802 77.6646C143.845 78.5587 145.169 80.5167 146.642 82.1087C147.272 82.791 148.497 83.6615 148.143 84.7517C147.641 86.2966 146.085 85.2405 145.106 85.549C144.871 85.6455 144.663 85.796 144.497 85.9882C143.516 86.9659 142.522 87.9593 141.844 89.1696C141.167 90.38 140.84 91.8518 141.279 93.1667C141.776 94.6463 143.168 95.7443 143.476 97.2736C143.523 97.4329 143.535 97.6006 143.51 97.7649C143.486 97.9291 143.426 98.0862 143.335 98.2251C143.074 98.5519 142.574 98.5702 142.234 98.8186C141.8 99.1323 141.711 99.7597 141.841 100.28C142.018 100.787 142.261 101.269 142.563 101.712C143.293 103.006 143.61 104.69 142.809 105.947C142.44 106.461 141.999 106.919 141.501 107.309C140.677 108.042 139.913 108.841 139.218 109.696C138.621 110.409 138.111 111.19 137.698 112.023C137.282 112.896 137.023 113.832 136.604 114.702C135.628 116.739 133.708 118.362 131.48 118.731C130.162 118.937 128.813 118.692 127.652 118.035C128.685 118.493 129.827 118.644 130.943 118.472Z" fill="black"/>
<path d="M139.244 209.837L140.612 210.739L140.819 210.878L140.86 210.907L142.48 211.976L146.257 212.614L149.585 212.386C149.585 212.386 150.542 210.384 149.038 210.428C148.555 210.405 148.084 210.271 147.662 210.036L147.458 209.929C147.241 209.814 147.021 209.686 146.809 209.55C146.364 209.268 145.943 208.962 145.601 208.698C145.104 208.313 144.771 208.021 144.771 208.021L139.244 209.837Z" fill="#CCF6EF"/>
<path opacity="0.1" d="M140.622 210.745L140.829 210.883L140.871 210.912L142.49 211.981L146.268 212.619L149.595 212.392C149.595 212.392 150.553 210.389 149.048 210.434C148.566 210.41 148.095 210.276 147.672 210.041C147.913 210.181 148.098 210.4 148.196 210.661C148.256 211.184 145.737 212.099 145.737 212.099L142.181 211.16C142.181 211.16 141.577 210.99 140.748 210.776L140.669 210.755L140.622 210.745Z" fill="black"/>
<path d="M134.553 211.618C134.553 211.618 137.468 212.253 139.427 212.073C141.386 211.892 144.756 213.584 144.756 213.584C144.756 213.584 145.896 214.106 149.402 214.35C152.907 214.593 152.918 212.799 152.918 212.799C152.515 210.381 146.977 209.571 146.801 209.55C146.872 209.587 147.152 209.736 147.45 209.929C147.843 210.19 148.269 210.522 148.3 210.792C148.361 211.314 145.841 212.229 145.841 212.229L142.289 211.294C142.289 211.294 141.685 211.121 140.853 210.907L140.774 210.886C139.55 210.548 138.306 210.286 137.049 210.102C135.519 209.939 134.734 211.241 134.574 211.542C134.561 211.597 134.553 211.618 134.553 211.618Z" fill="#00B696"/>
<path d="M88.6376 147.39L90.1862 148.574C90.1862 148.574 90.6362 148.553 91.3059 148.53H91.5204C92.4831 148.496 93.8068 148.462 94.9343 148.459C95.9806 148.459 96.8492 148.491 97.1108 148.582C97.8956 148.843 99.2506 144.167 99.2506 144.167L97.6967 143.801L97.1735 143.68L96.8125 143.597L95.5516 143.301L91.7244 143.733L89.0378 145.463L88.6376 147.39Z" fill="#CCF6EF"/>
<path opacity="0.1" d="M88.6376 147.39L90.1862 148.574C90.1862 148.574 90.6362 148.553 91.3059 148.53C90.9996 148.409 90.7476 148.182 90.5969 147.889C89.595 145.113 94.5602 143.931 94.5602 143.931L96.8727 143.829L97.32 143.811L97.6967 143.793L97.1735 143.673L96.8125 143.589L95.5516 143.294L91.7244 143.725L89.0378 145.455L88.6376 147.39Z" fill="black"/>
<path d="M85.5846 148.64C86.5211 149.507 92.6478 148.655 92.9094 148.619C92.4435 148.672 91.9717 148.639 91.5177 148.522C90.6623 148.281 90.4556 147.753 90.4556 147.753C89.4563 144.977 94.4188 143.793 94.4188 143.793L96.734 143.694L97.1813 143.673L102.8 143.429L103.075 141.882C103.075 141.882 101.244 142.057 98.382 142.284C96.768 142.415 94.8217 142.562 92.6897 142.7C86.7644 143.092 85.3649 146.935 85.3649 146.935C85.3649 146.935 84.6403 147.753 85.5846 148.64Z" fill="#00B696"/>
<path d="M154.369 81.6016C154.408 81.6848 154.453 81.7652 154.503 81.8421L155.871 83.8445L159.423 84.2105L159.463 82.8041L160.059 61.6292C160.059 61.6292 162.521 47.4264 157.875 48.2473C153.229 49.0681 156.143 61.6292 156.143 61.6292C156.143 61.6292 155.62 68.0026 155.241 69.9136C154.882 71.7592 153.26 79.2671 154.369 81.6016Z" fill="#00A285"/>
<path d="M146.396 134.188L147.406 135.919L149.668 139.788C149.668 139.788 153.776 141.291 154.822 140.151C155.4 139.524 156.02 137.346 156.457 135.519C156.815 134.032 157.053 132.777 157.053 132.777L146.396 134.188Z" fill="#21242C"/>
<path opacity="0.1" d="M146.396 134.188L147.406 135.919C147.47 135.864 147.529 135.803 147.581 135.736C148.721 134.277 153.757 135.428 156.457 135.519C156.815 134.032 157.053 132.777 157.053 132.777L146.396 134.188Z" fill="black"/>
<path opacity="0.1" d="M94.9342 148.451C95.9806 148.451 96.8491 148.483 97.1107 148.574C97.8955 148.836 99.2506 144.159 99.2506 144.159L97.197 143.673L102.816 143.429L103.091 141.882C103.091 141.882 101.26 142.057 98.3978 142.284C97.8013 142.624 97.2698 143.066 96.8282 143.592L96.7419 143.696C95.5463 145.163 95.1042 147.055 94.9342 148.451Z" fill="black"/>
<path opacity="0.1" d="M139.244 209.837L140.813 210.883C143.168 210.46 145.315 209.793 145.569 208.75C145.57 208.733 145.57 208.715 145.569 208.698C145.072 208.313 144.74 208.021 144.74 208.021L139.244 209.837Z" fill="black"/>
<path opacity="0.1" d="M134.582 211.555C136.66 211.454 138.73 211.232 140.782 210.891C139.558 210.553 138.313 210.291 137.057 210.107C135.526 209.952 134.742 211.254 134.582 211.555Z" fill="black"/>
<path d="M95.1043 150.258C95.1043 151.395 98.2434 152.124 98.2434 152.124L107.81 160.636C107.81 160.636 113.827 163.321 117.649 167.19C121.471 171.059 124.851 167.749 124.851 167.749C128.903 166.748 140.565 152.637 140.565 152.637C140.565 152.637 140.84 168.75 141.386 169.935C141.933 171.119 141.203 174.35 140.884 175.717C140.565 177.084 140.656 179.176 140.656 179.176C140.656 179.176 136.283 195.88 136.649 197.336C137.015 198.793 134.279 205.621 134.279 205.621V211.312C134.279 211.312 144.983 210.901 145.575 208.489C146.166 206.076 142.888 205.03 142.888 205.03V204.426C145.028 203.333 145.438 195.823 145.438 195.823C145.438 195.823 148.627 186.535 149.083 185.003C149.538 183.471 149.083 181.131 149.083 181.131L149.402 179.129C149.402 179.129 150.084 177.764 150.084 177.492C150.177 176.797 150.447 176.138 150.869 175.579C151.372 174.988 150.323 173.576 150.323 173.576L151.236 171.223V168.628L153.375 159.217C153.375 159.217 155.607 148.237 154.832 144.65C154.058 141.064 155.745 139.231 155.745 139.231C152.083 141.15 150.252 136.878 149.642 135.048C149.485 134.575 149.412 134.264 149.412 134.264C149.412 134.264 144.392 132.413 139.715 132.853C138.766 132.932 137.831 133.131 136.931 133.443C131.739 135.31 130.915 143.048 130.915 143.048L126.313 150.059C123.959 156.294 120.39 156.932 120.39 156.932C120.39 156.932 112.056 151.332 111.828 151.06C111.601 150.788 108.412 149.421 108.412 149.421C108.037 148.76 107.463 148.234 106.772 147.918C105.678 147.463 105.589 145.78 105.589 145.78C105.45 141.819 103.127 141.5 103.127 141.5C95.0598 140.789 95.1043 149.121 95.1043 150.258Z" fill="#21242C"/>
<path d="M141.475 127.998H146.396V112.75H141.475V127.998Z" fill="#F1D2D7"/>
<path opacity="0.1" d="M141.02 127.373H145.941V112.125H141.02V127.373Z" fill="black"/>
<path opacity="0.1" d="M154.367 81.5676C154.366 81.5789 154.366 81.5902 154.367 81.6016C154.405 81.6848 154.45 81.7652 154.5 81.8421L155.868 83.8445L159.421 84.2105L159.46 82.8041C158.351 82.7073 155.829 82.4041 154.367 81.5676Z" fill="black"/>
<path d="M154.503 81.842C154.503 81.842 154.686 89.8519 152.672 90.9446C150.657 92.0373 149.888 97.7415 149.888 97.7415C149.888 97.7415 155.952 101.736 157.318 103.493C158.683 105.249 161.78 109.435 161.145 110.436C160.509 111.437 162.704 115.988 162.704 115.988C162.704 115.988 158.694 124.184 159.607 127.279C160.52 130.374 160.609 138.567 160.609 138.567H162.335C162.335 138.567 161.788 131.83 161.788 129.099C161.788 126.367 163.62 116.626 163.62 116.626C163.62 116.626 164.438 107.066 163.62 106.794C162.801 106.522 157.972 102.698 157.603 100.967C157.234 99.2368 160.153 83.123 160.153 83.123C160.153 83.123 156.418 82.9348 154.503 81.842Z" fill="#00A588"/>
<path opacity="0.1" d="M141.386 111.338C141.551 112.452 141.956 113.517 142.574 114.459L145.941 113.897C145.941 113.897 156.051 111.623 158.147 111.44C159.455 111.325 160.902 110.786 161.809 110.394C161.009 107.557 159.444 104.994 157.286 102.986L156.002 101.796C154.108 100.046 151.919 98.6453 149.535 97.6605C149.684 97.7886 160.292 106.839 157.969 108.614C155.646 110.389 149.396 106.055 149.396 106.055L142.284 99.9479L142.022 99.7257L141.609 100.364C141.819 100.451 142.024 100.549 142.223 100.659C144.642 101.991 146.435 104.225 147.212 106.873C148.68 111.787 141.386 111.338 141.386 111.338Z" fill="black"/>
<path opacity="0.1" d="M139.199 134.097C139.199 134.097 145.941 137.83 147.571 135.736C147.932 135.276 148.68 135.075 149.621 135.02C149.464 134.547 149.391 134.235 149.391 134.235C149.391 134.235 144.371 132.385 139.694 132.824C139.393 133.6 139.199 134.097 139.199 134.097Z" fill="black"/>
<path d="M142.299 99.7308L149.669 106.055C149.669 106.055 155.9 110.394 158.239 108.606C160.577 106.818 149.805 97.65 149.805 97.65C152.19 98.6334 154.381 100.034 156.274 101.786L157.558 102.975C160.933 106.099 161.694 106.099 161.807 110.695C161.836 111.824 161.451 113.45 161.155 113.745C160.062 114.828 159.293 122.597 159.463 123.507C159.633 124.417 157.42 132.275 158.155 134.46C158.89 136.646 149.229 133.367 147.589 135.461C145.949 137.555 139.218 133.822 139.218 133.822C139.218 133.822 142.953 124.262 143.864 123.627C144.774 122.992 145.868 118.072 143.864 115.785C141.86 113.497 141.669 111.338 141.669 111.338C141.669 111.338 148.962 111.79 147.5 106.878C147.089 105.454 146.375 104.136 145.408 103.013C144.441 101.89 143.244 100.988 141.896 100.369L142.299 99.7308Z" fill="white"/>
<path opacity="0.1" d="M152.133 115.845C152.133 115.845 149.308 121.172 145.648 122.555C145.533 122.597 145.418 122.636 145.3 122.673C141.475 123.831 152.407 117.484 152.133 115.845Z" fill="black"/>
<path d="M112.597 68.732C112.597 68.732 113.963 72.1932 115.056 73.3748C116.15 74.5564 124.257 86.3934 124.257 86.3934L124.945 87.8129L125.533 89.0337L130.726 88.4873L131.09 86.396L130.891 86.1529C130.368 85.5281 128.947 83.8498 127.992 83.1178C126.81 82.2081 124.44 79.1965 124.44 79.1965C124.44 79.1965 117.06 71.5475 116.516 69.4561C115.972 67.3648 108.59 54.7984 106.949 56.9839C105.309 59.1693 112.597 68.732 112.597 68.732Z" fill="#00A285"/>
<path opacity="0.1" d="M124.945 87.8128L125.533 89.0337L130.726 88.4873L131.09 86.3959L130.891 86.1528C130.331 86.4273 126.18 88.4167 124.945 87.8128Z" fill="black"/>
<path opacity="0.1" d="M144.117 101.506C144.117 101.506 142.843 99.5035 142.114 100.05C141.384 100.596 141.101 98.4107 140.696 98.7741C140.29 99.1375 139.061 100.154 138.561 98.7323C138.163 97.603 133.852 90.4663 132.094 87.5907L131.364 86.3934C131.364 86.3934 126.444 88.8533 125.261 88.0325V89.763L126.263 89.8545L131.637 99.8668C131.637 99.8668 133.326 102.546 133.206 103.485C133.086 104.423 135.367 108.517 135.731 108.789C136.094 109.061 140.013 113.615 140.013 113.615C140.013 113.615 142.017 123.447 140.274 126.179C138.532 128.91 135.537 130.913 135.537 130.913C135.537 130.913 134.634 133.55 134.752 133.825C134.87 134.099 133.706 135.281 134.247 135.655C134.789 136.029 135.524 138.57 135.524 138.57C135.524 138.57 138.074 134.473 139.448 133.835C140.821 133.198 142.587 124.822 142.587 124.822C142.587 124.822 143.089 119.884 143.131 116.697C143.173 113.51 143.024 101.506 144.117 101.506Z" fill="black"/>
<path d="M143.845 101.506C143.845 101.506 142.569 99.5035 141.841 100.05C141.114 100.596 140.829 98.4107 140.424 98.7741C140.018 99.1375 138.789 100.154 138.289 98.7323C137.889 97.603 133.58 90.4663 131.822 87.5907C131.372 86.8508 131.09 86.3934 131.09 86.3934C131.09 86.3934 126.172 88.8533 124.987 88.0325V89.763L125.989 89.8545L131.364 99.8668C131.364 99.8668 133.052 102.546 132.934 103.485C132.816 104.423 135.097 108.517 135.461 108.789C135.825 109.061 139.743 113.615 139.743 113.615C139.743 113.615 141.747 123.447 140.005 126.179C139.089 127.548 137.974 128.774 136.698 129.817C135.633 130.702 134.884 131.908 134.564 133.255C134.502 133.438 134.481 133.633 134.501 133.825C134.634 134.086 133.455 135.281 133.996 135.655C134.538 136.029 135.27 138.57 135.27 138.57C135.27 138.57 137.821 134.473 139.194 133.835C140.567 133.198 142.333 124.822 142.333 124.822C142.333 124.822 142.833 119.884 142.875 116.697C142.917 113.51 142.752 101.506 143.845 101.506Z" fill="#00A588"/>
<path opacity="0.1" d="M131.364 142.928C131.364 142.928 135.192 143.657 136.74 144.757C138.289 145.858 130.909 143.027 130.909 143.027L131.364 142.928Z" fill="black"/>
<path opacity="0.1" d="M140.565 152.624C140.565 152.624 144.573 155.946 143.845 158.952C143.118 161.959 141.282 169.514 141.282 169.514L140.565 152.624Z" fill="black"/>
<path opacity="0.1" d="M105.652 146.229C105.652 146.229 100.025 146.844 100.388 147.57C100.752 148.297 105.652 146.901 105.652 146.901V146.229Z" fill="black"/>
<path opacity="0.1" d="M148.855 173.882C148.855 173.882 149.221 174.337 147.126 173.882C145.03 173.427 146.579 172.026 146.579 172.026L148.855 173.882Z" fill="black"/>
<path opacity="0.1" d="M148.128 180.164C148.128 180.164 145.25 180.619 143.73 180.164C142.21 179.709 148.128 180.164 148.128 180.164Z" fill="black"/>
<path opacity="0.1" d="M142.25 204.742C142.25 204.742 141.75 204.196 139.244 205.2C136.738 206.204 135.736 206.246 135.008 205.927C134.281 205.608 142.25 204.742 142.25 204.742Z" fill="black"/>
<path opacity="0.1" d="M145.03 145.455L141.475 150.394C141.475 150.394 143.39 146.07 145.03 145.455Z" fill="black"/>
<path opacity="0.1" d="M138.106 100.042C138.106 100.042 137.954 101.681 135.663 102.319C133.371 102.957 132.937 103.477 132.937 103.477" fill="black"/>
<path opacity="0.1" d="M132.17 88.1631C132.17 88.1631 129.149 90.312 125.989 89.8545L132.17 88.1631Z" fill="black"/>
<path opacity="0.1" d="M134.472 134.052C134.472 134.052 135.356 134.607 137.475 132.183L134.472 134.052Z" fill="black"/>
<path opacity="0.1" d="M156.486 108.373C156.572 107.932 156.263 107.519 155.963 107.173L155.369 106.465C155.253 106.319 155.124 106.185 154.982 106.065C154.631 105.791 154.165 105.707 153.794 105.461" fill="black"/>
<path d="M152.337 12.7075H113.372C112.717 12.7037 112.069 12.8288 111.462 13.0756C110.856 13.3223 110.305 13.686 109.839 14.1458C109.374 14.6055 109.004 15.1524 108.75 15.7552C108.496 16.3579 108.363 17.0048 108.359 17.6588V56.163C108.363 56.817 108.496 57.4638 108.75 58.0666C109.004 58.6693 109.374 59.2162 109.839 59.676C110.305 60.1358 110.856 60.4994 111.462 60.7462C112.069 60.993 112.717 61.118 113.372 61.1142H152.35C153.004 61.118 153.653 60.993 154.259 60.7462C154.865 60.4994 155.417 60.1358 155.882 59.676C156.348 59.2162 156.718 58.6693 156.972 58.0666C157.226 57.4638 157.358 56.817 157.362 56.163V17.6588C157.358 17.0037 157.225 16.3558 156.971 15.7521C156.716 15.1485 156.344 14.6011 155.878 14.1411C155.411 13.6812 154.858 13.3178 154.25 13.0718C153.643 12.8258 152.992 12.702 152.337 12.7075Z" fill="url(#paint1_linear)"/>
<path d="M156.269 13H111.731C108.566 13 106 15.3824 106 18.3213V59.6787C106 62.6176 108.566 65 111.731 65H156.269C159.434 65 162 62.6176 162 59.6787V18.3213C162 15.3824 159.434 13 156.269 13Z" fill="#00A588"/>
<path d="M124.61 43.6306C123.944 43.6303 123.299 43.8606 122.784 44.2825C122.269 44.7044 121.916 45.2916 121.786 45.9442C121.656 46.5967 121.756 47.2742 122.07 47.8611C122.384 48.448 122.892 48.908 123.507 49.1627C124.122 49.4175 124.806 49.4512 125.443 49.2581C126.081 49.065 126.631 48.657 127.001 48.1037C127.371 47.5505 127.537 46.8862 127.472 46.224C127.407 45.5618 127.114 44.9428 126.643 44.4724C126.379 44.2018 126.062 43.9876 125.713 43.8429C125.363 43.6982 124.988 43.626 124.61 43.6306Z" fill="#393939"/>
<path d="M123.969 37.5631C123.971 36.8193 123.716 36.0978 123.245 35.5215C122.775 34.9452 122.119 34.5498 121.389 34.4029C120.659 34.256 119.901 34.3666 119.244 34.7158C118.587 35.065 118.072 35.6313 117.786 36.3179C117.5 37.0046 117.461 37.7691 117.676 38.4811C117.891 39.1931 118.347 39.8085 118.965 40.2222C119.584 40.636 120.327 40.8225 121.068 40.7499C121.808 40.6774 122.501 40.3502 123.027 39.8243C123.331 39.5318 123.571 39.1802 123.733 38.7913C123.895 38.4023 123.975 37.9843 123.969 37.5631Z" fill="#393939"/>
<path d="M142.545 30.1886C142.916 30.1873 143.275 30.0576 143.561 29.8216C143.847 29.5856 144.042 29.2579 144.113 28.8942C144.185 28.5305 144.128 28.1534 143.952 27.827C143.776 27.5006 143.493 27.2452 143.15 27.1041C142.807 26.9631 142.426 26.9452 142.071 27.0535C141.716 27.1618 141.41 27.3896 141.205 27.6982C140.999 28.0067 140.907 28.3768 140.944 28.7456C140.981 29.1143 141.145 29.4589 141.407 29.7206C141.555 29.8723 141.732 29.9921 141.928 30.0726C142.123 30.1531 142.334 30.1926 142.545 30.1886Z" fill="#393939"/>
<path d="M124.61 25.0699C123.796 25.0711 123.008 25.3541 122.38 25.8708C121.751 26.3874 121.321 27.1058 121.163 27.9036C121.005 28.7014 121.129 29.5292 121.513 30.2461C121.898 30.963 122.519 31.5246 123.271 31.8353C124.023 32.146 124.859 32.1866 125.638 31.9502C126.417 31.7137 127.089 31.2149 127.541 30.5385C127.993 29.8622 128.196 29.0503 128.116 28.241C128.037 27.4316 127.678 26.675 127.103 26.0999C126.78 25.7674 126.392 25.5045 125.963 25.3273C125.534 25.1502 125.074 25.0626 124.61 25.0699Z" fill="#393939"/>
<path d="M147.751 36.1907C147.436 35.8722 147.019 35.673 146.573 35.6271C146.127 35.5811 145.679 35.6913 145.306 35.9389C144.932 36.1864 144.656 36.5559 144.524 36.9842C144.393 37.4126 144.414 37.8733 144.585 38.2876C144.756 38.7019 145.065 39.0442 145.46 39.256C145.855 39.4679 146.311 39.5361 146.751 39.449C147.191 39.3619 147.587 39.125 147.871 38.7787C148.156 38.4324 148.311 37.9981 148.311 37.5501C148.315 37.2973 148.268 37.0463 148.172 36.8125C148.075 36.5788 147.932 36.3671 147.751 36.1907Z" fill="#393939"/>
<path d="M142.545 44.2711C142.022 44.265 141.514 44.4405 141.106 44.7677C140.699 45.0949 140.418 45.5534 140.311 46.0648C140.204 46.5762 140.279 47.1087 140.522 47.5713C140.765 48.0339 141.161 48.3978 141.643 48.6007C142.124 48.8037 142.661 48.8331 143.162 48.684C143.663 48.5348 144.097 48.2164 144.389 47.7831C144.681 47.3498 144.813 46.8286 144.763 46.3086C144.713 45.7887 144.484 45.3022 144.115 44.9325C143.911 44.722 143.667 44.5548 143.398 44.4411C143.128 44.3274 142.838 44.2696 142.545 44.2711Z" fill="#393939"/>
<path d="M133.578 47.7924C132.984 47.7924 132.41 47.998 131.951 48.374C131.493 48.75 131.179 49.2733 131.063 49.8546C130.948 50.4359 131.037 51.0394 131.317 51.5621C131.596 52.0848 132.049 52.4944 132.597 52.7212C133.145 52.948 133.754 52.9779 134.322 52.8058C134.89 52.6337 135.38 52.2703 135.709 51.7774C136.039 51.2846 136.187 50.6929 136.129 50.103C136.071 49.5132 135.81 48.9617 135.39 48.5426C135.155 48.3009 134.873 48.1097 134.561 47.9807C134.25 47.8517 133.915 47.7876 133.578 47.7924Z" fill="#393939"/>
<path d="M133.578 20.9082C132.694 20.9129 131.84 21.2233 131.16 21.7864C130.479 22.3496 130.015 23.1309 129.847 23.9973C129.678 24.8637 129.814 25.7619 130.233 26.539C130.652 27.3161 131.328 27.9242 132.145 28.2599C132.962 28.5955 133.87 28.638 134.715 28.3802C135.559 28.1223 136.289 27.5799 136.778 26.8454C137.268 26.1108 137.488 25.2293 137.401 24.3509C137.314 23.4725 136.925 22.6513 136.301 22.0271C135.947 21.665 135.523 21.3789 135.055 21.1865C134.587 20.9941 134.084 20.8994 133.578 20.9082Z" fill="#393939"/>
</g>
<defs>
<linearGradient id="paint0_linear" x1="43212" y1="143345" x2="43212" y2="34792" gradientUnits="userSpaceOnUse">
<stop stop-color="#808080" stop-opacity="0.25"/>
<stop offset="0.54" stop-color="#808080" stop-opacity="0.12"/>
<stop offset="1" stop-color="#808080" stop-opacity="0.1"/>
</linearGradient>
<linearGradient id="paint1_linear" x1="22927.4" y1="8169.77" x2="32104.2" y2="8169.77" gradientUnits="userSpaceOnUse">
<stop stop-color="#808080" stop-opacity="0.25"/>
<stop offset="0.54" stop-color="#808080" stop-opacity="0.12"/>
<stop offset="1" stop-color="#808080" stop-opacity="0.1"/>
</linearGradient>
<clipPath id="clip0">
<rect width="287" height="221" fill="white"/>
</clipPath>
</defs>
</svg>
