<svg viewBox="0 0 155 90" fill="none" xmlns="http://www.w3.org/2000/svg">
<path d="M17.5564 6.60343C11.0039 16.0909 21.4891 29.7347 13.9323 32.0506C21.3868 37.4798 33.6554 32.3572 35.1874 30.4788C35.3243 32.4998 33.4319 33.6956 33.4319 33.6956C33.4319 33.6956 44.3827 34.2963 41.5977 24.9351C38.8127 15.5739 38.6495 13.2406 39.3517 10.3757C40.0539 7.51089 38.3753 4.99135 36.6763 5.50387C34.1926 -1.5261 22.4861 -0.507272 17.5564 6.60343Z" fill="#263238"/>
<path d="M32.1578 23.3965C31.2431 27.6905 30.2147 35.5696 32.9272 38.6962C32.9272 38.6962 37.1496 46.9185 19.2065 48.7764C14.0023 39.9165 20.529 37.8763 20.529 37.8763C25.0122 37.0143 25.0066 33.406 24.3707 29.9729L32.1578 23.3965Z" fill="#FFC3BD"/>
<path opacity="0.2" d="M29.5133 26.1521L24.8444 30.0613C25.0136 30.8718 25.1178 31.6898 25.156 32.5056C26.8791 32.3782 29.2954 30.4579 29.5361 28.521C29.6633 27.7517 29.6556 26.9484 29.5133 26.1521Z" fill="black"/>
<path d="M36.4696 15.29C35.5249 22.2694 35.2672 25.2496 31.7148 28.394C26.3726 33.1156 18.6693 29.9154 17.671 22.6709C16.7694 16.1495 18.4594 5.8328 25.0181 3.94196C26.4086 3.48067 27.9252 3.45065 29.4104 3.85504C30.8956 4.25943 32.2952 5.08347 33.4638 6.24158C34.6325 7.39968 35.5276 8.8496 36.0562 10.4408C36.5847 12.032 36.7275 13.7063 36.4696 15.29Z" fill="#FFC3BD"/>
<path d="M33.0102 6.24334C29.7809 10.1543 36.5754 17.155 36.7895 20.6291C40.7716 15.2597 38.2051 1.56505 33.0102 6.24334Z" fill="#263238"/>
<path d="M35.3498 5.98191C35.8738 13.9146 24.9168 4.98348 17.5041 10.9575C18.1631 4.70173 27.6834 -1.65995 35.3498 5.98191Z" fill="#263238"/>
<path opacity="0.2" d="M28.1902 15.5113C28.4757 15.3454 28.7918 15.252 29.1204 15.2366C29.449 15.2212 29.7836 15.2841 30.105 15.4216C29.4898 15.5973 28.8399 15.6278 28.1902 15.5113Z" fill="black"/>
<path opacity="0.2" d="M28.2527 15.9404C28.5363 15.8663 28.8373 15.8647 29.1347 15.9359C29.4321 16.0071 29.7186 16.1493 29.9742 16.3525C29.3932 16.3569 28.8054 16.2162 28.2527 15.9404Z" fill="black"/>
<path opacity="0.2" d="M18.6785 14.5681C18.6785 14.5681 18.1455 14.036 17.8971 14.3826C18.1367 14.5504 18.4162 14.6167 18.6785 14.5681Z" fill="black"/>
<path opacity="0.2" d="M18.6505 14.9948C18.6505 14.9948 18.2091 14.5124 18.0651 15.0383C18.1611 15.0984 18.2687 15.1264 18.3734 15.1187C18.4781 15.1109 18.5748 15.0677 18.6505 14.9948Z" fill="black"/>
<path d="M27.3271 15.9302C27.2668 16.5178 26.9479 16.9569 26.5965 16.9032C26.2451 16.8496 26.0158 16.3315 26.0691 15.7445C26.1223 15.1575 26.4483 14.7178 26.7997 14.7714C27.1511 14.8251 27.3804 15.3431 27.3271 15.9302Z" fill="#263238"/>
<path d="M20.3533 14.9619C20.3013 15.5568 19.9742 15.9885 19.6313 15.9422C19.2884 15.8959 19.0509 15.3706 19.1029 14.7758C19.1549 14.1809 19.4832 13.7571 19.8261 13.8034C20.1691 13.8497 20.4197 14.414 20.3533 14.9619Z" fill="#263238"/>
<path d="M20.0502 13.901L18.7666 13.2906C18.7666 13.2906 19.3491 14.5596 20.0502 13.901Z" fill="#263238"/>
<path d="M22.0759 16.1144C21.4733 17.3937 20.7161 18.5658 19.8225 19.6025C20.0806 19.8576 20.3826 20.0499 20.7054 20.1646C21.0282 20.2793 21.3631 20.3133 21.6844 20.264L22.0759 16.1144Z" fill="#ED893E"/>
<path d="M37.5741 18.4367C37.2878 17.9837 36.8888 17.6028 36.4194 17.3344C35.95 17.0659 35.4277 16.9199 34.9079 16.9118C33.0553 16.8353 31.6912 17.6211 28.1313 18.3867C24.5714 19.1523 21.355 17.4602 20.5303 17.4309C19.7056 17.4016 16.4625 17.6796 16.4625 17.6796C16.4625 17.6796 15.4234 25.8245 20.8015 29.9422C20.8015 29.9422 23.6182 31.1599 28.5104 29.4361C33.4026 27.7122 35.1849 23.8086 37.4557 22.3537C36.978 23.8731 36.69 22.4655 35.5754 23.5775C34.4609 24.6894 32.5346 26.7232 30.9927 27.2186C30.9927 27.2186 29.655 23.5936 29.6361 18.5788C29.6076 18.5724 35.4794 16.1038 37.5741 18.4367Z" fill="white"/>
<path d="M38.5892 21.6596C38.3038 22.2406 37.9036 22.7369 37.4144 23.1165C36.9253 23.4962 36.3581 23.7509 35.7492 23.8641C34.2351 24.0727 33.6418 22.1064 34.2003 20.3121C34.6731 18.6689 36.1018 16.6332 37.5638 17.2647C39.0259 17.8962 39.3987 20.1282 38.5892 21.6596Z" fill="#FFC3BD"/>
<path d="M29.17 13.3925C29.1271 13.3709 29.0878 13.3403 29.0545 13.3026C29.0212 13.265 28.9946 13.221 28.9764 13.1735C28.8024 12.7282 28.5418 12.3218 28.2143 11.985C27.8868 11.6481 27.501 11.3897 27.086 11.2291C27.0426 11.2187 27.0008 11.1989 26.963 11.1709C26.9253 11.1429 26.8924 11.1073 26.8663 11.0663C26.8403 11.0253 26.8217 10.9797 26.8116 10.9324C26.8015 10.885 26.8002 10.8369 26.8078 10.791C26.8344 10.6995 26.8931 10.6262 26.9719 10.586C27.0508 10.5457 27.1438 10.5416 27.232 10.5745C27.7599 10.767 28.2524 11.0863 28.6713 11.5075C29.0902 11.9287 29.4242 12.4405 29.6475 13.0031C29.6629 13.0492 29.6696 13.0974 29.6672 13.1446C29.6648 13.1918 29.6533 13.2368 29.6335 13.2769C29.6137 13.317 29.586 13.3513 29.5522 13.3775C29.5184 13.4037 29.4792 13.4213 29.4371 13.4291C29.3498 13.4492 29.2559 13.4364 29.17 13.3925Z" fill="#263238"/>
<path d="M17.9159 11.4334C17.874 11.4254 17.8331 11.4084 17.7955 11.3832C17.7579 11.3581 17.7244 11.3253 17.6969 11.2869C17.6443 11.202 17.6219 11.1005 17.6344 11.0047C17.6469 10.9088 17.6934 10.8263 17.7638 10.7752C18.1772 10.4302 18.6657 10.2046 19.1918 10.1156C19.7179 10.0266 20.2676 10.0766 20.7989 10.2617C20.8409 10.279 20.8801 10.3058 20.9137 10.3405C20.9473 10.3752 20.9746 10.4168 20.9937 10.4626C21.0128 10.5084 21.0233 10.5572 21.0244 10.6059C21.0255 10.6545 21.0173 10.7017 21.0002 10.7444C20.9691 10.835 20.9079 10.906 20.8283 10.9438C20.7487 10.9815 20.6563 10.9833 20.569 10.9489C20.1479 10.8049 19.7126 10.7689 19.297 10.8436C18.8814 10.9183 18.4967 11.1017 18.1728 11.3796C18.0997 11.4343 18.0079 11.4535 17.9159 11.4334Z" fill="#263238"/>
<path d="M27.0172 14.8701L25.7329 14.2593C25.7329 14.2593 26.3107 15.4966 27.0172 14.8701Z" fill="#263238"/>
<path d="M34.9403 38.3283C35.7167 38.3283 38.8225 38.3283 41.1519 39.1105C43.4812 39.8928 45.4665 43.3402 46.0907 46.6509C46.871 50.8927 47.0791 55.1862 46.9751 59.4798C46.819 64.0837 46.6109 68.6359 46.1948 73.2398C45.6225 78.7748 44.7902 84.3099 44.1139 89.8449C44.1139 89.8966 44.0619 89.8966 44.0099 90.0001C41.2007 89.8966 38.3396 89.7415 35.4784 89.638C36.2587 78.5679 37.039 67.4978 37.8194 56.4277C37.7153 56.4277 37.6113 56.4277 37.5072 56.4277C36.7269 67.4978 35.9986 78.5162 35.2183 89.638C26.3227 89.2759 17.4271 88.9138 8.42742 88.5C9.3638 79.1369 10.2482 69.8256 11.1845 60.4626C11.5487 60.8247 11.8608 61.0834 12.1729 61.3937C12.225 61.3937 12.277 61.4455 12.381 61.4455C12.381 61.3937 12.329 61.342 12.329 61.2903C10.9765 59.8936 10.1961 58.2383 10.2482 56.2725C10.2482 55.8587 10.3522 55.3931 10.5083 55.031C11.3926 52.7032 12.277 50.4271 13.1613 48.0993C13.1613 47.9958 13.2134 47.9441 13.2134 47.8406C13.1613 47.8406 13.1613 47.8406 13.1093 47.8406C13.0573 47.8924 13.0573 47.9958 13.0053 48.0476C11.9649 50.4788 10.8204 52.8584 9.93604 55.3414C9.46785 56.6346 9.88402 58.0313 10.4562 59.3246C10.6123 59.6867 10.7164 60.1522 10.6643 60.5661C10.0921 66.6701 9.46785 72.8259 8.89561 78.93C8.58349 81.8786 8.32338 84.8272 8.01125 87.8275C8.01125 88.0344 7.95923 88.293 7.90721 88.5517C5.30615 88.4482 2.7051 88.3448 0 88.1896C0.156063 86.9998 0.312127 85.8617 0.46819 84.7237C1.19649 79.7577 1.92478 74.7399 2.65308 69.7739C3.32935 65.1183 4.00563 60.5144 4.6819 55.8587C5.25413 52.0307 4.92865 48.0745 6.34658 44.3748C7.7645 40.675 9.94588 39.3511 11.1845 38.8397C12.4232 38.3284 17.8584 37.7535 20.8085 37.7534C21.0165 37.9086 21.0966 38.0461 20.9642 38.3283C20.2359 39.8802 20.4963 41.3745 20.9645 43.0815C21.5888 45.2542 23.3055 46.6509 25.3343 46.6509C27.2591 46.6509 28.7677 45.7715 30.1202 44.53C31.7849 43.0298 33.3874 40.5527 33.3874 38.3283C33.3874 38.3283 34.1638 38.3283 34.9403 38.3283ZM13.0053 62.0145C13.0573 62.0145 13.1093 62.0662 13.1613 62.0662C13.1093 62.0145 13.1093 62.0145 13.0053 62.0145C13.0053 61.911 12.9012 61.8593 12.8492 61.8076C12.7452 61.7559 12.6411 61.6524 12.5891 61.6007C12.5371 61.5489 12.4851 61.5489 12.4331 61.4972C12.4331 61.5489 12.4331 61.6007 12.4331 61.7041C12.5371 61.7559 12.6411 61.8593 12.7452 61.911C12.8492 61.911 12.9533 61.9628 13.0053 62.0145ZM37.6633 56.2208H37.7153C37.7153 55.807 37.7153 55.4449 37.7153 55.031H37.6633C37.6633 55.4449 37.6633 55.807 37.6633 56.2208ZM13.3694 62.2214C13.4215 62.1697 13.3694 62.1697 13.3694 62.1697C13.3694 62.1697 13.3174 62.1697 13.3694 62.2214Z" fill="#72AAFF"/>
<path d="M119.252 37.373C122.427 40.2649 130.841 39.1064 130.841 39.1064C130.841 39.1064 135.7 37.7685 134.68 36.2477C131.82 35.7741 130.435 34.4361 129.863 32.7243C129.55 31.6631 129.451 30.5499 129.573 29.4501C129.62 28.8368 129.701 28.2265 129.813 27.6218L120.196 20.4834C121.456 25.1953 122.361 33.9575 119.252 37.373Z" fill="#E4897B"/>
<path opacity="0.2" d="M122.419 25.0208C122.8 30.8379 127.542 32.4002 129.88 32.7243C129.567 31.6631 129.469 30.5499 129.59 29.4501L122.419 25.0208Z" fill="black"/>
<path d="M139.911 7.09591C139.911 7.09591 141.346 16.3783 136.446 19.9683C131.546 23.5583 131.471 6.26489 131.471 6.26489L139.911 7.09591Z" fill="#263238"/>
<path d="M122.195 27.3893C123.227 28.9162 124.733 30.06 126.478 30.6442C128.224 31.2285 130.113 31.2206 131.854 30.6219C134.124 29.8994 136.032 28.3321 137.185 26.2425C137.349 25.9538 137.498 25.657 137.632 25.3533C140.028 19.6691 140.775 9.74682 134.772 6.04049C133.451 5.21785 131.943 4.74724 130.39 4.67336C128.837 4.59949 127.291 4.9248 125.899 5.6184C124.506 6.312 123.314 7.35086 122.435 8.6363C121.556 9.92174 121.02 11.4111 120.876 12.9628C120.155 19.6027 119.426 23.4752 122.195 27.3893Z" fill="#E4897B"/>
<path d="M130.535 16.4863C130.402 17.0098 130.651 17.5001 131.008 17.5583C131.364 17.6164 131.712 17.2259 131.837 16.7273C131.961 16.2286 131.712 15.7051 131.364 15.6469C131.016 15.5888 130.626 15.9378 130.535 16.4863Z" fill="#263238"/>
<path d="M136.579 17.5001C136.455 18.0237 136.704 18.514 137.052 18.5722C137.4 18.6303 137.757 18.2397 137.881 17.7411C138.006 17.2425 137.757 16.719 137.409 16.6691C137.06 16.6193 136.662 16.9932 136.579 17.5001Z" fill="#263238"/>
<path d="M134.614 17.4421C134.98 19.1777 135.579 20.8553 136.397 22.4282C135.986 22.6287 135.537 22.7371 135.08 22.7457C134.623 22.7543 134.17 22.663 133.752 22.4781L134.614 17.4421Z" fill="#DE5753"/>
<path d="M139.249 15.2897C139.194 15.3079 139.135 15.3113 139.079 15.2997C139.022 15.288 138.969 15.2616 138.926 15.2232C138.633 14.952 138.281 14.7529 137.899 14.6418C137.516 14.5307 137.112 14.5107 136.72 14.5834C136.638 14.6064 136.55 14.5957 136.475 14.5536C136.401 14.5116 136.346 14.4416 136.322 14.359C136.304 14.2776 136.317 14.1923 136.358 14.1199C136.4 14.0475 136.467 13.9935 136.546 13.9684C137.04 13.8654 137.552 13.8826 138.038 14.0185C138.524 14.1544 138.971 14.4051 139.34 14.7496C139.372 14.7753 139.399 14.8073 139.419 14.8436C139.438 14.88 139.45 14.9198 139.454 14.961C139.458 15.0021 139.454 15.0435 139.441 15.0829C139.429 15.1222 139.409 15.1587 139.382 15.19C139.341 15.228 139.297 15.2615 139.249 15.2897Z" fill="#263238"/>
<path d="M129.739 13.8521C129.68 13.8351 129.626 13.8037 129.581 13.7607C129.559 13.7254 129.543 13.6858 129.536 13.6444C129.529 13.603 129.529 13.5605 129.539 13.5195C129.548 13.4785 129.565 13.4397 129.59 13.4055C129.614 13.3713 129.645 13.3423 129.681 13.3203C130.108 13.0504 130.594 12.8869 131.098 12.8436C131.601 12.8002 132.107 12.8782 132.574 13.0709C132.612 13.0887 132.646 13.1139 132.674 13.1449C132.702 13.1759 132.724 13.2122 132.737 13.2516C132.751 13.291 132.757 13.3328 132.755 13.3746C132.753 13.4163 132.742 13.4572 132.724 13.4948C132.685 13.5703 132.618 13.6278 132.538 13.6557C132.458 13.6835 132.37 13.6794 132.293 13.6443C131.92 13.5004 131.518 13.4464 131.121 13.4868C130.723 13.5273 130.341 13.6609 130.004 13.877C129.916 13.9002 129.822 13.8914 129.739 13.8521Z" fill="#263238"/>
<path d="M133.055 24.1315C132.591 24.8376 132.178 25.5763 131.82 26.342L131.397 26.2257C129.457 25.6523 128.744 24.7465 128.545 23.9155C128.448 23.5084 128.448 23.0843 128.545 22.6772C128.6 22.4476 128.687 22.2267 128.802 22.0208C129.843 22.9053 131.062 23.5545 132.375 23.9238C132.807 24.065 133.055 24.1315 133.055 24.1315Z" fill="#263238"/>
<path d="M132.4 23.9238L132.019 24.572C130.195 24.0318 128.985 23.4002 128.57 22.6772C128.625 22.4476 128.712 22.2267 128.827 22.0208C129.868 22.9053 131.087 23.5545 132.4 23.9238Z" fill="white"/>
<path d="M131.397 26.2259C129.457 25.6525 128.744 24.7467 128.545 23.9156C129.279 24.1428 129.964 24.5034 130.568 24.9793C130.968 25.2972 131.258 25.7334 131.397 26.2259Z" fill="#DE5753"/>
<path d="M127.078 8.52524C127.078 8.52524 141.811 13.5695 140.111 3.61395C140.111 3.61395 132.16 -1.08128 125.229 0.231722C118.298 1.54472 118.837 8.74131 118.837 8.74131L127.078 8.52524Z" fill="#263238"/>
<path d="M127.061 5.54199V8.5004C126.54 8.67788 126.104 9.04594 125.841 9.53114C125.578 10.0163 125.508 10.583 125.643 11.1181C126.29 13.6859 124.449 17.3341 122.385 18.5972C122.385 18.5972 122.451 17.5335 121.556 17.6748C120.661 17.8161 120.221 23.3922 121.655 26.2426C121.655 26.2426 119.301 23.5418 118.497 17.5418C117.75 11.9907 118.115 7.48657 119.467 5.54199H127.061Z" fill="#263238"/>
<path d="M139.191 19.4945C139.191 19.4945 137.607 21.2313 135.8 20.3255C133.993 19.4197 131.157 20.2674 129.996 20.1012C125.975 19.5361 122.535 12.5306 120.578 15.863C120.578 15.863 120.901 12.9544 126.68 19.3117C126.68 19.3117 126.332 25.0124 123.463 25.6523C121.548 23.0133 120.431 19.8774 120.246 16.6192C120.064 20.2795 121.206 23.8826 123.463 26.7659C128.885 33.4639 135.228 31.1952 135.228 31.1952C135.228 31.1952 140.194 28.5858 139.191 19.4945Z" fill="#407BFF"/>
<path d="M117.104 17.8825C117.34 18.6801 117.732 19.4232 118.255 20.0691C118.779 20.7151 119.424 21.2512 120.155 21.647C122.111 22.7024 123.571 21.057 123.43 18.9462C123.289 17.0764 122.12 14.2177 119.956 14.0598C117.792 13.9019 116.54 15.8964 117.104 17.8825Z" fill="#E4897B"/>
<path d="M147.913 42.4349C146.078 37.0883 141.319 36.2812 134.471 36.2812C134.471 36.2812 133.71 38.1357 128.383 38.1357C123.056 38.1357 120.013 36.2812 120.013 36.2812C120.013 36.2812 116.208 35.848 113.925 36.6103C111.642 37.3726 109.779 40.0642 108.759 42.9898C107.586 46.2179 107.178 49.6478 107.076 53.0273C106.975 56.3059 106.975 59.635 107.076 62.9136C107.178 66.1922 107.382 69.4708 107.739 72.699C108.249 77.2386 108.861 81.7782 109.422 86.2674C109.575 87.4779 109.779 88.7388 109.982 89.9997L109.982 90C112.939 89.8486 115.896 89.7478 118.802 89.5964V88.8398C118.751 88.4363 118.751 88.0328 118.7 87.6293C118.446 85.0064 118.242 82.3835 118.038 79.7606C117.732 75.4228 117.426 71.0849 117.12 66.6966C116.865 62.7118 116.661 58.7775 116.406 54.8432V54.8432C116.406 54.7423 116.406 54.6919 116.508 54.591L116.508 54.591C116.61 55.4989 116.712 56.4068 116.763 57.3147C117.12 61.8544 117.477 66.3435 117.783 70.8327C118.191 76.1794 118.497 81.4756 118.853 86.8222V87.6797C118.853 88.0832 118.904 88.4868 118.904 88.8903C118.955 89.1425 118.955 89.3947 119.006 89.6469C121.301 89.546 123.646 89.4956 125.94 89.3947L140.623 88.7894C142.56 88.6885 144.498 88.6381 146.486 88.5372C146.486 88.2346 146.486 87.9319 146.435 87.6797C146.129 84.7542 145.874 81.7782 145.568 78.8527C144.956 72.9007 144.396 66.9992 143.784 61.0473L143.631 59.5341C143.631 59.4332 143.733 59.3828 143.784 59.2819C143.835 59.3323 143.988 59.3828 143.988 59.4837C144.039 59.7863 144.039 60.0385 144.09 60.3411C144.447 63.872 144.753 67.3523 145.109 70.8327C145.568 75.6245 146.078 80.4668 146.537 85.2586C146.639 86.3683 146.792 87.4779 146.894 88.5876C149.596 88.4867 152.298 88.3354 155 88.2346V88.0328C154.439 84.4011 153.929 80.7694 153.369 77.1377C152.553 71.8415 151.788 66.5453 150.972 61.2491C150.208 56.4573 149.545 51.6655 148.78 46.8736C148.576 45.3604 148.372 43.8472 147.913 42.4349Z" fill="#1E6FE9"/>
<path d="M100.354 55.3536C100.549 55.1583 100.549 54.8417 100.354 54.6464L97.1716 51.4645C96.9763 51.2692 96.6597 51.2692 96.4645 51.4645C96.2692 51.6597 96.2692 51.9763 96.4645 52.1716L99.2929 55L96.4645 57.8284C96.2692 58.0237 96.2692 58.3403 96.4645 58.5355C96.6597 58.7308 96.9763 58.7308 97.1716 58.5355L100.354 55.3536ZM88 55.5L100 55.5L100 54.5L88 54.5L88 55.5Z" fill="black"/>
<path d="M51.6464 54.6464C51.4512 54.8417 51.4512 55.1583 51.6464 55.3536L54.8284 58.5355C55.0237 58.7308 55.3403 58.7308 55.5355 58.5355C55.7308 58.3403 55.7308 58.0237 55.5355 57.8284L52.7071 55L55.5355 52.1716C55.7308 51.9763 55.7308 51.6597 55.5355 51.4645C55.3403 51.2692 55.0237 51.2692 54.8284 51.4645L51.6464 54.6464ZM64 54.5H52V55.5H64V54.5Z" fill="black"/>
</svg>
