<?xml version="1.0" encoding="UTF-8"?>
<svg width="470px" height="210px" viewBox="0 0 470 210" version="1.1" xmlns="http://www.w3.org/2000/svg" xmlns:xlink="http://www.w3.org/1999/xlink">
    <title>social-distancing</title>
    <g id="Page-1" stroke="none" stroke-width="1" fill="none" fill-rule="evenodd">
        <g id="social-distancing" fill-rule="nonzero">
            <path d="M422.26943,100.517902 C435.814197,90.5502487 449.149534,99.0489689 452.960674,110.171166 C453.91285,113.109031 454.33658,116.256813 454.760311,119.404596 C456.345648,129.372249 457.721554,139.340145 459.309326,149.308041 C461.004249,160.32528 462.589585,171.342275 464.284508,182.359513 C465.448549,189.914093 466.50544,197.468674 467.669482,205.023254 C467.669482,205.127969 467.669482,205.232927 467.669482,205.442845 C462.06114,205.652762 456.452798,205.967394 450.844456,206.177311 C450.632591,203.868953 450.313575,201.560596 450.10171,199.252238 C449.149534,189.284342 448.092642,179.211731 447.140466,169.243834 C446.39772,162.003886 445.76456,154.764181 445.021813,147.419518 C444.917098,146.789767 444.917098,146.265218 444.809948,145.63571 C444.809948,145.425793 444.493368,145.320834 444.388653,145.215876 C444.281503,145.425793 444.069637,145.530751 444.069637,145.740668 C444.176788,146.789767 444.281503,147.839109 444.388653,148.888451 C445.657409,161.26942 446.821451,173.545674 448.092642,185.926886 C448.725803,192.012534 449.256684,198.20314 449.889845,204.288788 C449.996995,204.813337 449.996995,205.442845 449.996995,206.072352 C445.869275,206.282269 441.848705,206.387228 437.825699,206.597145 C427.665907,207.016736 417.506114,207.436326 407.346321,207.856161 C402.583005,208.066078 397.714974,208.170793 392.954093,208.38071 C392.846943,207.856161 392.846943,207.331611 392.742228,206.806819 C392.742228,205.967394 392.635078,205.127969 392.635078,204.288788 C392.635078,203.659036 392.635078,203.134487 392.635078,202.504979 C391.894767,191.383026 391.259171,180.365788 390.414145,169.243834 C389.778549,159.905446 389.038238,150.567057 388.297927,141.123953 C388.190777,139.235187 387.978912,137.346663 387.767047,135.457896 C387.555181,135.667813 387.555181,135.772772 387.555181,135.982689 C388.086062,144.166777 388.507358,152.350865 389.038238,160.639912 C389.671399,169.768383 390.306995,178.791896 390.942591,187.815409 C391.366321,193.271549 391.790052,198.727689 392.318497,204.183829 C392.423212,205.023254 392.423212,205.862435 392.530363,206.70186 C392.530363,207.226653 392.530363,207.751202 392.530363,208.275751 C386.49829,208.590627 380.359067,208.800544 374.22228,209.115176 C373.798549,206.492187 373.374819,203.868953 373.055803,201.350679 C371.891762,192.012534 370.623005,182.569187 369.563679,173.126083 C368.823368,166.410927 368.399637,159.590813 368.187772,152.770699 C367.975907,145.950585 367.975907,139.025513 368.187772,132.205399 C368.399637,125.175368 369.247098,118.040378 371.682332,111.325223 C373.798549,105.239575 377.714404,100.62286 383.427461,97.4750777 C386.81487,95.5865544 390.51886,95.5865544 394.010984,97.3703627 C395.598756,98.104829 397.081813,99.0489689 398.66715,99.9933523 C398.138705,102.616585 398.45772,105.134617 399.514611,107.442974 C401.842694,112.584482 406.286995,115.207472 411.578756,116.361772 C415.494611,117.200953 418.989171,116.151855 421.633834,113.21399 C424.385648,110.066207 424.914093,106.288917 423.433472,102.30171 C422.797876,101.882119 422.58601,101.252368 422.26943,100.517902 Z" id="Path" fill="#00A588"></path>
            <path d="M65.0864767,99.9933523 C71.6482124,95.3766373 77.1513523,92.7536477 84.7711969,99.4688031 C90.0629585,104.085518 92.4969741,110.066207 93.7669482,116.781363 C95.3544767,125.385285 95.7777202,134.093922 95.5660984,142.802803 C95.248544,152.140948 94.8253005,161.374378 93.9785699,170.712767 C92.8145285,181.939679 91.1210674,193.166591 89.7454041,204.393503 C89.7454041,204.498461 89.6394715,204.498461 89.5337824,204.708378 C83.8187772,204.498461 77.9980829,204.183829 72.1773886,203.973912 C73.7646736,181.520088 75.3522021,159.066021 76.9397306,136.612197 C76.7281088,136.612197 76.516487,136.612197 76.3046218,136.612197 C74.7173368,159.066021 73.2354974,181.41513 71.6482124,203.973912 C53.5507772,203.239446 35.4535855,202.504979 17.1447477,201.665554 C19.0497332,182.674145 20.8488591,163.787694 22.7538202,144.796285 C23.4946668,145.530751 24.1296539,146.055301 24.7646166,146.685052 C24.8705492,146.685052 24.9762383,146.789767 25.1878601,146.789767 C25.1878601,146.684808 25.082171,146.580093 25.082171,146.475135 C22.3305036,143.642228 20.7430238,140.284528 20.8488591,136.297321 C20.8488591,135.457896 21.0605295,134.513756 21.3780109,133.77929 C23.1771611,129.057617 24.9762383,124.440902 26.7753886,119.719228 C26.7753886,119.509311 26.8813212,119.404352 26.8813212,119.194679 C26.7753886,119.194679 26.7753886,119.194679 26.6696995,119.194679 C26.5637668,119.299637 26.5637668,119.509311 26.4578342,119.614269 C24.3413,124.54586 22.0129979,129.372249 20.213872,134.408798 C19.2613793,137.031788 20.1080368,139.864938 21.2722,142.487927 C21.5896813,143.222394 21.8013518,144.166777 21.6955166,145.006202 C20.5313534,157.387171 19.2613793,169.873342 18.0972404,182.254554 C17.4622534,188.235244 16.9330772,194.215933 16.2980902,200.30158 C16.2980902,200.721171 16.1922549,201.245964 16.0864197,201.770513 C10.7948528,201.560596 5.50326166,201.350922 0,201.036047 C0.317495959,198.622731 0.634989482,196.314373 0.95248544,194.006016 C2.43413,183.933161 3.91578187,173.755591 5.39742642,163.682736 C6.77323575,154.239632 8.14904508,144.901244 9.5248544,135.457896 C10.6890176,127.693642 11.8531565,119.929145 12.9114845,112.164648 C13.9697881,104.190477 20.8488591,96.7406114 28.7861606,95.3766373 C33.7603679,94.5372124 38.2051554,96.0061451 42.3326321,98.7343368 C42.7561192,99.0489689 43.1793627,99.3638446 43.7085389,99.6784767 C42.226943,102.826259 41.6977668,106.079 42.6501865,109.541415 C43.9201606,113.948456 47.4125285,116.781363 51.5400052,116.781363 C55.4558601,116.781363 58.5249845,114.997554 61.2765544,112.479523 C64.6632332,109.436699 65.9332073,105.449492 65.9332073,100.937736 C66.0391399,100.517902 65.9332073,99.8883938 65.0864767,99.9933523 Z M26.4578342,147.944067 C26.5637668,147.944067 26.6696995,148.049026 26.7753886,148.049026 C26.6696995,147.944067 26.6696995,147.944067 26.4578342,147.944067 C26.4578342,147.73415 26.2462124,147.629192 26.1405233,147.524233 C25.9289016,147.419518 25.7170363,147.209601 25.6113472,147.104642 C25.5054145,146.999684 25.3997254,146.999684 25.2937927,146.894725 C25.2937927,146.999684 25.2937927,147.104642 25.2937927,147.31456 C25.5054145,147.419518 25.7170363,147.629192 25.9289016,147.73415 C26.1405233,147.73415 26.3521451,147.839109 26.4578342,147.944067 Z M76.6221762,136.192363 L76.7281088,136.192363 C76.7281088,135.352938 76.7281088,134.618472 76.7281088,133.77929 L76.6221762,133.77929 C76.6221762,134.618472 76.6221762,135.352938 76.6221762,136.192363 Z" id="Shape" fill="#00A588"></path>
            <path d="M82.3374249,53.1969378 C82.0198705,52.7771036 81.8082487,52.2525544 81.4906943,51.7280052 C78.3158808,53.6165285 75.1408238,55.5052953 72.0716995,57.3938187 C71.7541451,57.6037358 71.3309016,57.7086943 70.9074145,57.9186114 C70.9074145,57.4987772 70.9074145,57.1841451 70.9074145,56.7643109 C70.484171,48.8950984 70.0609275,41.0256425 69.5317513,33.1561865 C69.4258187,31.6872539 69.3201295,30.3232798 69.2141969,28.8543472 C68.6850207,29.0642642 68.2617772,29.2739378 67.8382902,29.4838549 C59.0544041,32.1070881 50.2702746,34.7300777 41.380456,37.3533109 C34.3954767,39.4517513 27.5164301,41.5501917 20.5315969,43.6486321 C19.8966098,37.9828187 20.4257617,32.6316373 23.8123917,27.7002902 C27.3048083,22.5588554 32.1730829,19.3061876 37.9937772,17.2076741 C43.7087824,15.2141192 49.5294767,14.6894969 55.4561036,15.319029 C56.1969016,15.4239632 56.6201451,15.2141192 57.0436321,14.4796285 C62.8643264,4.82655907 71.648456,-0.104920073 82.866601,4.8237342e-06 C93.9788135,0.104929813 102.65701,5.03640311 108.160394,14.6894969 C115.674306,28.0149223 109.853611,44.9078912 95.566342,51.6230466 C91.5447979,53.5115699 87.4173212,54.4559534 82.9722902,54.4559534 C82.7606684,54.0363627 82.5490466,53.6165285 82.3374249,53.1969378 Z M70.6957927,27.8050052 C70.5901036,27.9099637 70.484171,27.9099637 70.3784819,28.0149223 C70.2725492,28.1198808 70.1666166,28.1198808 70.0609275,28.2248394 C70.0609275,28.3297979 69.9549948,28.4347565 69.9549948,28.5394715 C70.0609275,28.5394715 70.1666166,28.4347565 70.2725492,28.4347565 C70.3784819,28.3297979 70.3784819,28.2248394 70.484171,28.1198808 C70.5901036,27.9099637 70.5901036,27.8050052 70.6957927,27.8050052 C70.8017254,27.7002902 70.9074145,27.5953316 70.9074145,27.5953316 C70.9074145,27.4903731 71.0133472,27.4903731 71.0133472,27.3854145 C71.0133472,27.4903731 70.9074145,27.4903731 70.9074145,27.5953316 C70.9074145,27.5953316 70.8017254,27.7002902 70.6957927,27.8050052 Z" id="Shape" fill="#393939"></path>
            <path d="M393.165959,55.6100104 C389.566684,53.5115699 385.967409,51.308171 382.37057,49.2097306 C382.051554,49.6293212 381.734974,49.9441969 381.311244,50.4687461 C378.983161,47.5308808 377.607254,44.2781399 376.971658,40.7107668 C375.279171,31.2674197 379.723472,23.6080026 388.719223,20.2504005 C389.142953,20.0405565 389.566684,19.8307124 389.990415,19.5159342 C397.610259,12.8007544 406.710725,10.2825528 416.765803,10.8071751 C422.58601,11.1219534 428.089637,12.590886 433.169534,15.3189316 C438.354145,18.1519114 442.165285,22.2439798 444.705233,27.4901295 C446.08114,30.3232798 446.185855,33.3661036 446.293005,36.4089275 C446.293005,37.667943 446.185855,39.0319171 446.185855,40.2911762 C445.76456,40.1862176 445.233679,40.1862176 444.809948,40.0812591 C438.354145,38.1924922 431.898342,36.3039689 425.442539,34.3102435 C417.294249,31.897171 409.145959,29.5888135 401.102383,27.0705389 C398.774301,26.3360725 396.022487,26.1261554 394.22285,24.1326249 C393.799119,23.8178466 393.377824,23.5030927 392.954093,23.0833803 C392.846943,22.9784461 392.742228,22.8735363 392.742228,22.8735363 C392.635078,22.7686021 392.530363,22.6636922 392.530363,22.6636922 C392.423212,22.558758 392.318497,22.4538238 392.318497,22.4538238 C392.211347,22.348914 392.106632,22.2439798 392.001917,22.1390699 L392.001917,22.0341358 C392.001917,22.0341358 392.001917,22.0341358 391.894767,22.0341358 C391.894767,22.0341358 391.894767,22.0341358 392.001917,22.1390699 C392.106632,22.2439798 392.211347,22.348914 392.318497,22.4538238 C392.423212,22.558758 392.530363,22.6636922 392.530363,22.6636922 C392.635078,22.7686021 392.742228,22.8735363 392.742228,22.8735363 C392.846943,22.9784461 392.954093,23.0833803 392.954093,23.0833803 C393.270674,23.5030927 393.694404,23.9227808 394.010984,24.3424933 C394.963161,25.077057 395.175026,26.1261554 395.070311,27.280456 C394.858446,29.5888135 394.751295,31.897171 394.541865,34.3102435 C394.22285,39.4517513 394.010984,44.6979741 393.694404,49.8392383 C393.482539,51.8327202 393.270674,53.721487 393.165959,55.6100104 Z" id="Path" fill="#393939"></path>
            <path d="M393.165959,55.6100104 C393.377824,53.721487 393.482539,51.8327202 393.694404,49.8392383 C394.010984,44.6979741 394.22285,39.4517513 394.541865,34.3102435 C394.64658,32.001886 394.858446,29.693772 395.070311,27.280456 C395.175026,26.1261554 394.965596,25.181772 394.010984,24.3424933 C394.118135,24.2375591 394.22285,24.1326492 394.33,24.027715 C396.129637,26.0211969 398.774301,26.231114 401.209534,26.9655803 C409.357824,29.4838549 417.401399,31.7922124 425.549689,34.2055285 C432.005492,36.0940518 438.461295,38.0875337 444.917098,39.9763005 C445.340829,40.0812591 445.869275,40.0812591 446.293005,40.1862176 C445.657409,47.4259223 445.021813,54.7705855 444.281503,62.3254093 C438.989741,59.1776269 433.381399,57.2888601 427.561192,56.5543938 C426.820881,53.4066114 426.185285,50.3637876 425.444974,47.1112902 C425.021244,47.3209637 424.809378,47.4259223 424.914093,47.4259223 C425.444974,50.4687461 426.078135,53.5115699 426.609016,56.4494352 C418.670155,55.7149689 411.157461,57.2888601 404.066062,60.8562332 C403.325751,61.1711088 402.79487,61.2760674 402.16171,60.8562332 C398.986166,59.1776269 396.022487,57.3938187 393.165959,55.6100104 Z M428.406218,43.334 C428.513368,43.438715 428.618083,43.6486321 428.725233,43.7535907 C429.041813,43.5436736 429.360829,43.334 429.570259,43.1240829 C431.793627,40.2911762 435.285751,40.1862176 437.509119,43.1240829 C437.720984,43.334 438.144715,43.438715 438.35658,43.6486321 C438.24943,43.334 438.35658,42.8092073 438.144715,42.5995337 C436.980674,40.8157254 435.181036,39.9763005 433.064819,40.1862176 C430.841451,40.2911762 429.360829,41.5501917 428.406218,43.334 Z M405.441969,42.5995337 C405.653834,42.5995337 405.758549,42.5995337 405.970415,42.7042487 C408.510363,39.0319171 411.474041,38.9269585 414.43772,42.3896166 C414.542435,42.5995337 414.966166,42.4945751 415.601762,42.7042487 C415.178031,42.0747409 414.966166,41.6551503 414.754301,41.4452332 C412.533368,38.4024093 407.981917,38.4024093 405.758549,41.4452332 C405.546684,41.6551503 405.546684,42.1796995 405.441969,42.5995337 Z M412.214352,48.4752642 C411.897772,48.2653472 411.369326,47.6358394 410.733731,47.5308808 C409.781554,47.4259223 409.250674,48.0554301 409.145959,48.9998135 C409.145959,49.9441969 409.781554,50.4687461 410.62658,50.4687461 C411.685907,50.3637876 412.109637,49.8392383 412.214352,48.4752642 Z M435.073886,50.258829 C434.969171,49.5243627 434.54544,48.8948549 433.593264,48.8948549 C432.641088,48.8948549 432.110207,49.5243627 432.110207,50.3637876 C432.110207,51.2032124 432.641088,51.8327202 433.593264,51.8327202 C434.333575,51.9376788 434.969171,51.4131295 435.073886,50.258829 Z" id="Shape" fill="#CCF6EF"></path>
            <path d="M20.6370668,43.6486321 C27.6218756,41.5501917 34.5009223,39.4517513 41.4859016,37.3533109 C50.2700311,34.7300777 59.0539171,32.1070881 67.9437358,29.4838549 C68.3672228,29.3788964 68.7904663,29.1692228 69.3196425,28.8543472 C69.4255751,30.3232798 69.5312642,31.7922124 69.6371969,33.1561865 C70.0604404,41.0256425 70.4839275,48.8950984 71.0128601,56.7643109 C71.0128601,57.1841451 71.0128601,57.4987772 71.0128601,57.9186114 C68.155601,59.7021762 65.1921658,61.4859845 62.3346632,63.2697927 C62.1230415,63.3745078 61.5938653,63.3745078 61.2765544,63.2697927 C54.9264404,60.0170518 48.1533264,58.6530777 41.062658,58.6530777 C41.5918342,58.2332435 42.2266995,57.8136528 42.649943,57.2888601 C44.0258497,55.8199275 43.9201606,54.1413212 42.5442539,52.5674301 C42.4383212,52.8820622 42.2266995,53.1969378 42.3326321,53.4068549 C42.9674974,55.924886 42.649943,56.6593523 40.3218601,58.0233264 C40.0043057,58.2332435 39.8983731,58.5481192 39.6867513,58.8627513 C33.9717461,59.2825855 28.7861606,61.0661503 23.8120021,63.794342 C23.4945207,64.0042591 23.177015,64.1089741 22.7536984,64.3188912 C22.4361927,61.3810259 22.0128762,58.3382021 21.6953705,55.4003368 C21.2720539,51.5180881 20.9545482,47.5308808 20.6370668,43.6486321 Z M37.2527358,46.691456 C37.3584249,46.5867409 37.3584249,46.4817824 37.4643575,46.2718653 C36.6176269,44.488057 35.1360311,43.334 33.1252591,43.1240829 C31.0085544,42.9141658 29.3153368,43.8585492 28.0453627,45.6423575 C27.9394301,45.8522746 27.9394301,46.2718653 27.9394301,46.4817824 C28.2569845,46.3768238 28.5745389,46.2718653 28.7861606,46.0619482 C31.0085544,43.334 34.1836114,43.334 36.3000725,46.0619482 C36.5119378,46.3768238 36.9351813,46.4817824 37.2527358,46.691456 Z M54.6091295,42.0749845 C52.7040466,42.1796995 51.2224508,43.0191244 50.1640984,44.5930155 C50.0584093,44.8029326 50.1640984,45.1175648 50.0581658,45.4324404 C50.3757202,45.3274819 50.6932746,45.2225233 50.7992073,45.0128497 C52.3864922,42.284658 56.7255907,42.1796995 58.4190518,45.0128497 C58.5247409,45.2225233 58.948228,45.2225233 59.1598497,45.4324404 C59.1598497,45.1175648 59.2655389,44.8029326 59.0539171,44.5930155 C58.2074301,43.0191244 56.7255907,42.1796995 54.6091295,42.0749845 Z M30.9026218,52.5674301 C30.9026218,52.7771036 30.9026218,52.9870207 30.9026218,53.1969378 C31.4317979,53.6165285 31.855285,54.2460363 32.4901503,54.4559534 C33.3368808,54.6658705 33.9717461,54.0363627 34.0776788,53.1969378 C34.1836114,52.357513 33.5485026,51.6230466 32.8077047,51.7280052 C32.0669067,51.6230466 31.5377306,52.1475959 30.9026218,52.5674301 Z M55.773171,51.7280052 C55.773171,50.7836218 55.3499275,50.2590725 54.5031969,50.154114 C53.5507772,50.0491554 53.021601,50.5737047 53.021601,51.5180881 C53.021601,52.357513 53.5507772,52.8820622 54.3975078,52.9870207 C55.2439948,52.9870207 55.6674819,52.5674301 55.773171,51.7280052 Z" id="Shape" fill="#CCF6EF"></path>
            <path d="M422.26943,100.517902 C422.481295,101.147409 422.693161,101.881876 423.009741,102.511383 C424.597513,106.498591 423.961917,110.275881 421.210104,113.423663 C418.56544,116.466487 415.073316,117.41087 411.157461,116.571446 C405.758549,115.417145 401.418964,112.794155 399.090881,107.652891 C398.03399,105.344534 397.610259,102.826259 398.245855,100.203026 C398.986166,100.412943 399.621762,100.727819 400.466788,101.042451 C399.726477,94.4322539 398.986166,88.0319741 398.245855,81.6314508 C398.66715,81.8413679 399.090881,82.0510415 399.514611,82.3659171 C400.573938,82.9954249 401.737979,83.7298912 402.79487,84.359399 C402.902021,84.4643575 403.006736,84.5693161 403.113886,84.6742746 C406.60601,87.4022228 410.945596,88.1366891 415.073316,89.1860311 C417.717979,89.9204974 417.717979,89.8155389 418.353575,92.5437306 C418.882021,95.3766373 419.410466,98.1045855 420.046062,100.937492 C420.786373,100.832777 421.529119,100.62286 422.26943,100.517902 Z" id="Path" fill="#CCF6EF"></path>
            <path d="M143.296181,122.132544 C143.296181,124.54586 143.296181,126.749259 143.296181,129.162575 C135.041228,125.699917 126.892207,122.237503 118.531565,118.774845 C126.892207,115.31243 134.935539,111.954731 143.190249,108.492316 C143.190249,110.905632 143.190249,113.109031 143.190249,115.417389 C151.23358,115.417389 159.065047,115.417389 167.002446,115.417389 C167.002446,117.725746 167.002446,119.929145 167.002446,122.237503 C159.065047,122.132544 151.23358,122.132544 143.296181,122.132544 Z" id="Path" fill="#00A588"></path>
            <path d="M347.023161,117.200953 C338.66057,120.663611 330.61943,124.126026 322.36399,127.58844 C322.36399,125.175368 322.36399,122.971969 322.36399,120.663611 C321.728394,120.663611 321.304663,120.663611 320.880933,120.663611 C313.896684,120.663611 306.912435,120.663611 299.928187,120.663611 C298.86886,120.663611 298.44513,120.453694 298.44513,119.299394 C298.55228,117.515829 298.44513,115.836979 298.44513,113.948456 C306.38399,113.948456 314.320415,113.948456 322.256839,113.948456 C322.256839,111.640098 322.256839,109.436699 322.256839,106.918425 C330.61943,110.380839 338.76772,113.738539 347.023161,117.200953 Z" id="Path" fill="#00A588"></path>
            <path d="M393.165959,58.128285 C395.917772,59.8071347 398.669585,61.590943 401.209534,63.0598756 C400.678653,67.4666736 400.150207,71.6635544 399.514611,76.0705959 C396.658083,76.1753109 394.118135,75.1262124 391.790052,73.132487 C391.366321,72.8178549 390.730725,72.5029793 390.20228,72.5029793 C385.438964,72.6079378 382.899016,69.6700725 381.206528,65.7878238 C379.090311,60.7515181 379.406891,55.6102539 381.523109,50.5737047 C383.746477,51.9376788 385.862694,53.4066114 387.978912,54.770829 C388.086062,54.875544 388.190777,54.9805026 388.297927,55.1904197 C388.719223,56.974228 389.142953,58.7577927 389.566684,60.6465596 C393.589689,60.0170518 392.742228,60.541601 393.165959,58.128285 Z" id="Path" fill="#CCF6EF"></path>
            <path d="M65.0867202,99.9933523 C65.9334508,99.8883938 66.0391399,100.412943 66.0391399,101.042694 C66.0391399,105.449492 64.7691658,109.436456 61.382487,112.584238 C58.6309171,115.102513 55.5617927,116.886321 51.6461813,116.886321 C47.5187047,116.886321 44.0260933,114.053171 42.7561192,109.646373 C41.8036995,106.183959 42.3328756,102.931218 43.8144715,99.7834352 C44.4495803,99.9933523 45.0844456,100.098311 45.7195544,100.307984 C46.0371088,100.517902 46.4603523,100.937736 46.7779067,101.042694 C48.577057,101.462285 50.4818964,101.986834 52.2810466,102.196751 C56.514456,102.616342 60.6416891,102.196751 64.557544,100.412943 C64.7691658,100.203269 64.9807876,100.098311 65.0867202,99.9933523 Z" id="Path" fill="#393939"></path>
            <path d="M82.3374249,53.1969378 C82.5490466,53.6165285 82.7606684,54.0363627 82.866601,54.5609119 C83.1841554,56.1348031 83.607399,57.7086943 83.7133316,59.3873005 C84.1365751,63.6893834 83.2898446,67.6765907 80.5382746,71.1390052 C78.9507461,73.132487 76.9399741,74.3917461 74.1884041,74.2867876 C73.4476062,74.2867876 72.8124974,74.4967047 72.1776321,75.0212539 C70.1668601,76.9097772 67.3093575,77.8541606 64.6634767,77.7492021 C64.557544,75.8606788 64.557544,73.9719119 64.2402332,72.0833886 C64.0286114,70.1946218 63.6051244,68.411057 63.1818808,66.5222902 C63.0759482,65.8927824 63.0759482,65.4729482 63.711057,65.0533575 C66.1450725,63.5844249 68.5793316,62.0105337 71.0133472,60.541601 C71.0133472,62.6400415 71.7541451,63.0598756 74.2940933,62.8499585 C74.7175803,61.0661503 75.2467565,59.3873005 75.67,57.7086943 C77.9983264,56.0298446 80.2207202,54.5609119 82.3374249,53.1969378 Z" id="Path" fill="#CCF6EF"></path>
            <path d="M64.6634767,100.308228 C60.7476218,102.091793 56.6201451,102.616585 52.3869793,102.091793 C50.4818964,101.882119 48.6827461,101.357326 46.8835959,100.937736 C46.4603523,100.832777 46.1427979,100.517902 45.8252435,100.203269 C46.4603523,97.055487 47.0952176,94.0126632 47.7303264,90.8648808 C47.8360155,90.6549637 47.9419482,90.4452902 48.0478808,90.3403316 C51.5402487,89.3959482 55.1385492,88.5565233 58.525228,87.4024663 C59.9008912,86.9826321 60.9592435,85.9335337 62.2292176,85.0941088 C62.6524611,84.9891503 63.0759482,84.8841917 63.3935026,84.5693161 C64.4516114,83.9398083 65.4042746,83.205342 66.3566943,82.4708756 C65.7215855,87.7170984 65.1924093,92.9633212 64.557544,98.3145026 C64.4516114,98.8392953 64.6634767,99.3638446 64.7691658,99.8883938 C64.6634767,100.203269 64.6634767,100.203269 64.6634767,100.308228 Z" id="Path" fill="#CCF6EF"></path>
            <path d="M418.670155,90.2353731 C437.297254,94.642171 448.304508,78.5886269 444.598083,63.5844249 C445.445544,63.0598756 445.445544,63.794342 445.552694,64.3188912 C446.50487,69.4601554 446.185855,74.4964611 444.069637,79.3230933 C439.730052,89.1860311 430.10114,93.4878705 419.305751,91.179513 C418.989171,91.0747979 418.777306,90.7599223 418.45829,90.5500052 C418.45829,90.4450466 418.56544,90.3403316 418.670155,90.2353731 Z" id="Path" fill="#3D3E3C"></path>
            <path d="M47.9419482,90.4452902 C47.8360155,90.6549637 47.7303264,90.8648808 47.6243938,90.9698394 C45.402,91.1797565 43.0736736,91.4943886 40.8512798,91.4943886 C31.7495959,91.284715 24.4473057,85.1990674 22.2248145,76.2802694 C21.378157,72.7128964 21.1664865,69.0405648 22.013144,65.4731917 C22.1189793,65.0533575 22.436485,64.7387254 22.6481311,64.4238497 C22.7539663,64.7387254 22.8598016,65.1583161 22.8598016,65.4731917 C21.6956627,72.1883472 22.7539663,78.3789534 27.0931865,83.8348497 C31.432285,89.2909896 37.3586684,91.1797565 44.1320259,90.6549637 C45.1903782,90.5500052 46.2487306,90.3403316 47.2011503,90.1304145 C47.412772,90.025456 47.6243938,90.3403316 47.9419482,90.4452902 Z" id="Path" fill="#3D3E3C"></path>
            <path d="M402.79487,84.3596425 C401.737979,83.7301347 400.573938,82.9956684 399.514611,82.3659171 C399.090881,82.1562435 398.66715,81.8413679 398.24342,81.6314508 C397.610259,81.001943 397.079378,80.3724352 396.446218,79.7429275 C395.494041,78.798544 394.53943,77.7492021 393.482539,76.8050622 C395.598756,77.0147358 397.503109,77.2246528 399.514611,77.5395285 C399.726477,77.5395285 400.043057,78.0640777 400.150207,78.2739948 C400.466788,80.5823523 401.418964,82.5758342 402.79487,84.3596425 Z" id="Path" fill="#CCF6EF"></path>
            <path d="M66.2507617,82.6807927 C65.298342,83.4152591 64.2399896,84.0447668 63.2875699,84.7792332 C62.9700155,84.9891503 62.546772,85.0941088 62.1235285,85.3037824 C63.2875699,83.6251762 64.1343005,81.7364093 64.4516114,79.7429275 C64.4516114,79.5330104 64.7691658,79.1134197 64.9807876,79.0084611 C66.7799378,78.798544 68.5790881,78.5886269 70.8017254,78.2739948 C69.1082642,79.847886 67.6266684,81.2118601 66.2507617,82.6807927 Z" id="Path" fill="#CCF6EF"></path>
            <path d="M393.165959,58.128285 C392.742228,60.541601 393.587254,60.0170518 389.566684,60.6465596 C389.142953,58.8627513 388.719223,57.0791865 388.295492,55.1904197 C389.883264,56.1348031 391.578187,57.1841451 393.165959,58.128285 Z" id="Path" fill="#CCF6EF"></path>
            <path d="M75.8811347,57.3938187 C75.4578912,59.0726684 74.928715,60.8564767 74.5054715,62.5350829 C71.9655233,62.745 71.2247254,62.2204508 71.2247254,60.2267254 C72.8120104,59.2825855 74.2938497,58.3382021 75.8811347,57.3938187 Z" id="Path" fill="#2F322F"></path>
            <path d="M426.39715,56.6595959 C425.761554,53.616772 425.230674,50.5739482 424.702228,47.6358394 C424.702228,47.6358394 424.914093,47.5311244 425.230674,47.3212073 C425.97342,50.4689896 426.60658,53.616772 427.349326,56.7643109 C427.030311,56.6595959 426.713731,56.6595959 426.39715,56.6595959 Z" id="Path" fill="#313830"></path>
            <path d="M39.4751295,58.9677098 C39.6867513,58.6530777 39.8983731,58.2332435 40.1099948,58.1285285 C42.4383212,56.7643109 42.7558756,56.0298446 42.1207668,53.5118135 C42.0150777,53.3018964 42.2266995,52.9870207 42.3323886,52.6723886 C43.814228,54.2462798 43.814228,55.924886 42.4383212,57.3938187 C42.0150777,57.9186114 41.3799689,58.3382021 40.8507927,58.7580363 C40.5332383,58.7580363 40.0043057,58.8629948 39.4751295,58.9677098 Z" id="Path" fill="#343933"></path>
            <path d="M392.106632,208.590627 C392.106632,208.065834 392.106632,207.541285 392.106632,207.016736 C392.213782,207.016736 392.318497,207.016736 392.318497,207.016736 C392.425648,207.541285 392.425648,208.065834 392.530363,208.590627 C392.425648,208.590627 392.318497,208.590627 392.106632,208.590627 Z" id="Path" fill="#E6ECEC"></path>
            <path d="M64.6632332,100.307984 C64.6632332,100.203269 64.6632332,100.098311 64.6632332,99.9933523 C64.8748549,99.9933523 64.9807876,99.9933523 65.1924093,99.8883938 C64.9807876,100.098311 64.7691658,100.203269 64.6632332,100.307984 Z" id="Path" fill="#4B776A"></path>
            <path d="M388.295492,55.1904197 C388.190777,55.0854611 388.086062,54.9805026 387.978912,54.770829 C388.086062,54.9805026 388.190777,55.0854611 388.295492,55.1904197 Z" id="Path" fill="#366967"></path>
            <path d="M403.113886,84.6745181 C403.006736,84.5695596 402.902021,84.464601 402.79487,84.3596425 C402.902021,84.464601 403.006736,84.5695596 403.113886,84.6745181 Z" id="Path" fill="#72BD73"></path>
            <path d="M391.894767,204.498461 C391.471036,199.042321 390.942591,193.586425 390.51886,188.130285 C389.883264,179.106772 389.142953,169.978301 388.614508,160.954788 C388.086062,152.770456 387.662332,144.586368 387.131451,136.297321 C387.131451,136.192363 387.131451,135.982689 387.343316,135.772772 C387.555181,137.661295 387.767047,139.550062 387.874197,141.438585 C388.614508,150.776974 389.354819,160.115363 389.990415,169.558466 C390.730725,180.680663 391.471036,191.697658 392.211347,202.819855 C392.211347,203.449363 392.211347,203.973912 392.211347,204.60342 C392.211347,204.498461 392.106632,204.498461 391.894767,204.498461 Z" id="Path" fill="#E6ECEC"></path>
            <path d="M71.0128601,27.4903731 C71.0128601,27.3854145 71.1187927,27.3854145 71.1187927,27.280456 C71.0128601,27.3854145 71.0128601,27.4903731 71.0128601,27.4903731 Z" id="Path" fill="#7CA97C"></path>
            <path d="M70.2723057,28.3295544 C70.1663731,28.3295544 70.0604404,28.434513 69.9547513,28.434513 C69.9547513,28.3295544 70.0604404,28.2245959 70.0604404,28.1198808 C70.1663731,28.2245959 70.1663731,28.2245959 70.2723057,28.3295544 Z" id="Path" fill="#7CA97C"></path>
            <path d="M70.4839275,28.0149223 C70.3779948,28.1198808 70.3779948,28.2248394 70.2720622,28.3297979 L70.1663731,28.2248394 C70.1663731,28.1198808 70.2720622,28.0149223 70.4839275,28.0149223 C70.3779948,27.9099637 70.4839275,28.0149223 70.4839275,28.0149223 Z" id="Path" fill="#7CA97C"></path>
            <path d="M70.6955492,27.8050052 C70.5896166,27.9099637 70.4839275,28.0149223 70.4839275,28.1198808 L70.3779948,28.0149223 C70.4839275,27.9099637 70.5896166,27.8050052 70.6955492,27.8050052 Z" id="Path" fill="#7CA97C"></path>
            <path d="M71.0128601,27.4903731 C70.907171,27.5953316 70.8012383,27.7000466 70.8012383,27.7000466 C70.8012383,27.7000466 70.907171,27.5953316 71.0128601,27.4903731 Z" id="Path" fill="#7CA97C"></path>
            <path d="M394.118135,24.2376321 C394.010984,24.3425663 393.906269,24.4475492 393.799119,24.5525078 C393.482539,24.1326979 393.058808,23.7130098 392.742228,23.2932974 C393.270674,23.5031658 393.694404,23.9228539 394.118135,24.2376321 Z" id="Path" fill="#55976B"></path>
            <path d="M392.635078,22.9784948 C392.742228,23.083429 392.846943,23.1883389 392.846943,23.1883389 C392.742228,23.1883389 392.635078,23.083429 392.635078,22.9784948 Z" id="Path" fill="#55976B"></path>
            <path d="M392.318497,22.6636922 C392.425648,22.7686264 392.530363,22.8735363 392.530363,22.8735363 C392.530363,22.8735363 392.425648,22.8735363 392.318497,22.6636922 C392.318497,22.7686264 392.318497,22.6636922 392.318497,22.6636922 Z" id="Path" fill="#55976B"></path>
            <path d="M392.106632,22.4539456 C391.999482,22.3490114 391.894767,22.2441016 391.894767,22.2441016 C391.894767,22.3490114 391.999482,22.3490114 392.106632,22.4539456 Z" id="Path" fill="#55976B"></path>
            <path d="M392.318497,22.7686021 C392.213782,22.6636679 392.106632,22.558758 392.106632,22.558758 C392.213782,22.558758 392.318497,22.6636679 392.318497,22.7686021 C392.318497,22.6636679 392.318497,22.7686021 392.318497,22.7686021 Z" id="Path" fill="#55976B"></path>
            <path d="M428.406218,43.334 C429.360829,41.5501917 430.841451,40.2911762 432.957668,40.0812591 C435.073886,39.871342 436.873523,40.7107668 438.037565,42.4945751 C438.24943,42.8092073 438.24943,43.2290415 438.24943,43.5436736 C437.93285,43.334 437.509119,43.2290415 437.401969,43.0191244 C435.181036,40.1862176 431.688912,40.1862176 429.465544,43.0191244 C429.253679,43.2290415 428.937098,43.438715 428.618083,43.6486321 C428.618083,43.6486321 428.513368,43.5436736 428.406218,43.334 Z" id="Path" fill="#323A31"></path>
            <path d="M405.441969,42.5995337 C405.546684,42.1796995 405.546684,41.6551503 405.758549,41.3402746 C407.981917,38.2974508 412.530933,38.2974508 414.754301,41.3402746 C414.966166,41.6551503 415.178031,41.9700259 415.601762,42.5995337 C414.966166,42.4945751 414.542435,42.4945751 414.43772,42.284658 C411.474041,38.8222435 408.405648,38.9272021 405.970415,42.5995337 C405.758549,42.7044922 405.546684,42.7044922 405.441969,42.5995337 Z" id="Path" fill="#313830"></path>
            <path d="M412.214352,48.4752642 C412.109637,49.8392383 411.685907,50.4689896 410.733731,50.4689896 C409.781554,50.4689896 409.250674,49.9441969 409.250674,49.000057 C409.250674,48.0556736 409.886269,47.4261658 410.838446,47.5308808 C411.369326,47.5308808 411.790622,48.1606321 412.214352,48.4752642 Z" id="Path" fill="#30352F"></path>
            <path d="M435.073886,50.258829 C434.969171,51.308171 434.43829,51.8327202 433.486114,51.8327202 C432.641088,51.8327202 432.005492,51.2032124 432.005492,50.3637876 C432.005492,49.5243627 432.533938,48.8948549 433.486114,48.8948549 C434.54544,48.8948549 434.862021,49.5243627 435.073886,50.258829 Z" id="Path" fill="#30352F"></path>
            <path d="M37.2529793,46.691456 C36.9354249,46.4815389 36.6178705,46.3768238 36.4062487,46.1669067 C34.2897876,43.334 31.1147306,43.334 28.8923368,46.1669067 C28.680715,46.3768238 28.3631606,46.4815389 28.0456062,46.5864974 C28.0456062,46.2718653 28.0456062,45.9569896 28.1515389,45.7470725 C29.3155803,43.9635078 31.0087979,43.0191244 33.2314352,43.2290415 C35.2422073,43.438715 36.7238031,44.5930155 37.5705337,46.3768238 C37.3589119,46.3768238 37.2529793,46.4815389 37.2529793,46.691456 Z" id="Path" fill="#343933"></path>
            <path d="M54.608886,42.0747409 C56.7255907,42.0747409 58.2071865,43.0191244 59.2655389,44.5930155 C59.371228,44.8029326 59.371228,45.2225233 59.371228,45.4324404 C59.0539171,45.3274819 58.7363627,45.2225233 58.6304301,45.0126062 C56.9372124,42.1796995 52.598114,42.284658 51.0105855,45.0126062 C50.9048964,45.2225233 50.4814093,45.2225233 50.2697876,45.4324404 C50.2697876,45.1175648 50.1638549,44.8029326 50.3757202,44.5930155 C51.2222073,43.0191244 52.8097358,42.1796995 54.608886,42.0747409 Z" id="Path" fill="#343933"></path>
            <path d="M30.9028653,52.5674301 C31.4320415,52.2525544 32.0671503,51.6230466 32.5963264,51.6230466 C33.443057,51.6230466 33.9719896,52.2525544 33.8663005,53.0919793 C33.7603679,53.9314041 33.2311917,54.5609119 32.278772,54.3512383 C31.6439067,54.2462798 31.2204197,53.5118135 30.6912435,53.0919793 C30.9028653,52.8823057 30.9028653,52.7773472 30.9028653,52.5674301 Z" id="Path" fill="#30332F"></path>
            <path d="M55.773171,51.7277617 C55.6674819,52.5671865 55.2439948,52.9870207 54.3975078,52.9870207 C53.5507772,52.9870207 53.021601,52.4624715 53.021601,51.5180881 C53.021601,50.6786632 53.6567098,50.154114 54.5031969,50.154114 C55.3499275,50.258829 55.773171,50.7836218 55.773171,51.7277617 Z" id="Path" fill="#2E312D"></path>
        </g>
    </g>
</svg>