<svg width="12" height="12" viewBox="0 0 12 12" fill="none" xmlns="http://www.w3.org/2000/svg">
    <path
        d="M2.97222 5.75C2.97222 6.48671 3.26488 7.19325 3.78581 7.71419M2.97222 5.75C2.97222 5.01329 3.26488 4.30675 3.78581 3.78581M2.97222 5.75H0.75M3.78581 7.71419C4.30675 8.23512 5.01329 8.52778 5.75 8.52778M3.78581 7.71419L2.21444 9.28556M5.75 8.52778C6.48671 8.52778 7.19325 8.23512 7.71419 7.71419M5.75 8.52778V10.75M7.71419 7.71419C8.23512 7.19325 8.52778 6.48671 8.52778 5.75M7.71419 7.71419L9.28556 9.28556M8.52778 5.75C8.52778 5.01329 8.23512 4.30675 7.71419 3.78581M8.52778 5.75H10.75M7.71419 3.78581C7.19325 3.26488 6.48671 2.97222 5.75 2.97222M7.71419 3.78581L9.28556 2.21444M5.75 2.97222C5.01329 2.97222 4.30675 3.26488 3.78581 3.78581M5.75 2.97222V0.75M3.78581 3.78581L2.21444 2.21444M5.19444 0.75H6.30556M8.89278 1.82167L9.67833 2.60722M10.75 5.19444V6.30556M9.67833 8.89278L8.89278 9.67833M6.30556 10.75H5.19444M2.60722 9.67833L1.82222 8.89278M0.75 6.30556V5.19444M1.82167 2.60722L2.60722 1.82222"
        stroke="#E65100" stroke-width="1.5" stroke-linecap="round" stroke-linejoin="round" />
</svg>