<svg width="24" height="24" viewBox="0 0 24 24" fill="none" xmlns="http://www.w3.org/2000/svg">
    <path
        d="M12 14C15.3137 14 18 11.3137 18 8C18 4.68629 15.3137 2 12 2C8.68629 2 6 4.68629 6 8C6 11.3137 8.68629 14 12 14Z"
        stroke="#2E7D32" stroke-width="1.5" />
    <path
        d="M16.874 12C17.613 13.086 18.0055 14.3704 18 15.684C18 16.502 17.852 17.283 17.584 18M17.584 18C16.706 20.342 14.537 22 12 22C8.686 22 6 19.172 6 15.684C5.99446 14.3704 6.38704 13.086 7.126 12M17.584 18C14.851 16.8 12.056 14.833 11 14M12 2C11.006 2 10.2 2.784 10.2 3.75C10.2 4.716 11.006 5.5 12 5.5C12.461 5.5 12.882 5.332 13.2 5.054M10 8H10.008M14 8H14.008"
        stroke="#2E7D32" stroke-width="1.5" stroke-linecap="round" />
</svg>