<svg width="16" height="23" viewBox="0 0 16 23" fill="none" xmlns="http://www.w3.org/2000/svg">
<path d="M7.99968 14.2528C9.86957 14.2528 11.3677 12.7434 11.3677 10.8735L11.379 4.11491C11.379 2.24502 9.86957 0.735596 7.99968 0.735596C6.1298 0.735596 4.62037 2.24502 4.62037 4.11491V10.8735C4.62037 12.7434 6.1298 14.2528 7.99968 14.2528ZM6.64796 4.00226C6.64796 3.25881 7.25624 2.65054 7.99968 2.65054C8.74313 2.65054 9.35141 3.25881 9.35141 4.00226L9.34014 10.9862C9.34014 11.7296 8.74313 12.3379 7.99968 12.3379C7.25624 12.3379 6.64796 11.7296 6.64796 10.9862V4.00226ZM13.9698 10.8735C13.9698 14.2528 11.1087 16.6184 7.99968 16.6184C4.89072 16.6184 2.02957 14.2528 2.02957 10.8735H0.114624C0.114624 14.7147 3.17853 17.8912 6.87325 18.4432V22.1379H9.12612V18.4432C12.8208 17.9025 15.8847 14.7259 15.8847 10.8735H13.9698Z" fill="white"/>
</svg>
