<svg width="31" height="32" viewBox="0 0 31 32" fill="none" xmlns="http://www.w3.org/2000/svg">
<path d="M29.7037 0.375H1.48613C0.807527 0.375 0.259277 0.933594 0.259277 1.625V30.375C0.259277 31.0664 0.807527 31.625 1.48613 31.625H29.7037C30.3823 31.625 30.9306 31.0664 30.9306 30.375V1.625C30.9306 0.933594 30.3823 0.375 29.7037 0.375ZM26.1612 9.49609H23.7113C21.7905 9.49609 21.4186 10.4258 21.4186 11.793V14.8047H26.004L25.4059 19.5195H21.4186V31.625H16.6378V19.5234H12.639V14.8047H16.6378V11.3281C16.6378 7.29297 19.0569 5.09375 22.5918 5.09375C24.2864 5.09375 25.7395 5.22266 26.165 5.28125V9.49609H26.1612Z" fill="#00A588"/>
</svg>
