<svg width="33" height="32" viewBox="0 0 33 32" fill="none" xmlns="http://www.w3.org/2000/svg">
<path d="M16.5412 10.7941C13.674 10.7941 11.3342 13.134 11.3342 16.0012C11.3342 18.8684 13.674 21.2082 16.5412 21.2082C19.4084 21.2082 21.7482 18.8684 21.7482 16.0012C21.7482 13.134 19.4084 10.7941 16.5412 10.7941ZM32.1584 16.0012C32.1584 13.8449 32.1779 11.7082 32.0568 9.55585C31.9357 7.05585 31.3654 4.8371 29.5373 3.00897C27.7053 1.17694 25.4904 0.610537 22.9904 0.489443C20.8342 0.368349 18.6974 0.387881 16.5451 0.387881C14.3889 0.387881 12.2521 0.368349 10.0998 0.489443C7.59979 0.610537 5.38104 1.18085 3.55292 3.00897C1.72089 4.84101 1.15448 7.05585 1.03339 9.55585C0.912295 11.7121 0.931826 13.8488 0.931826 16.0012C0.931826 18.1535 0.912295 20.2941 1.03339 22.4465C1.15448 24.9465 1.72479 27.1652 3.55292 28.9934C5.38495 30.8254 7.59979 31.3918 10.0998 31.5129C12.256 31.634 14.3928 31.6144 16.5451 31.6144C18.7014 31.6144 20.8381 31.634 22.9904 31.5129C25.4904 31.3918 27.7092 30.8215 29.5373 28.9934C31.3693 27.1613 31.9357 24.9465 32.0568 22.4465C32.1818 20.2941 32.1584 18.1574 32.1584 16.0012ZM16.5412 24.0129C12.1076 24.0129 8.52948 20.4348 8.52948 16.0012C8.52948 11.5676 12.1076 7.98944 16.5412 7.98944C20.9748 7.98944 24.5529 11.5676 24.5529 16.0012C24.5529 20.4348 20.9748 24.0129 16.5412 24.0129ZM24.881 9.53241C23.8459 9.53241 23.0099 8.69648 23.0099 7.66132C23.0099 6.62616 23.8459 5.79023 24.881 5.79023C25.9162 5.79023 26.7521 6.62616 26.7521 7.66132C26.7524 7.90712 26.7043 8.15057 26.6103 8.37772C26.5164 8.60487 26.3786 8.81126 26.2048 8.98507C26.031 9.15888 25.8246 9.29669 25.5974 9.39061C25.3703 9.48454 25.1268 9.53272 24.881 9.53241Z" fill="#00A588"/>
</svg>
