<svg width="32" height="32" viewBox="0 0 32 32" fill="none" xmlns="http://www.w3.org/2000/svg">
<path d="M30.1602 0.375H1.41016C0.71875 0.375 0.160156 0.933594 0.160156 1.625V30.375C0.160156 31.0664 0.71875 31.625 1.41016 31.625H30.1602C30.8516 31.625 31.4102 31.0664 31.4102 30.375V1.625C31.4102 0.933594 30.8516 0.375 30.1602 0.375ZM9.42969 27.0039H4.79297V12.0898H9.42969V27.0039ZM7.11328 10.0508C6.58174 10.0508 6.06214 9.89316 5.62019 9.59786C5.17823 9.30255 4.83377 8.88282 4.63035 8.39174C4.42694 7.90067 4.37372 7.3603 4.47742 6.83898C4.58112 6.31765 4.83708 5.83879 5.21293 5.46293C5.58879 5.08708 6.06765 4.83112 6.58898 4.72742C7.1103 4.62372 7.65067 4.67694 8.14174 4.88035C8.63282 5.08377 9.05255 5.42823 9.34786 5.87019C9.64316 6.31214 9.80078 6.83174 9.80078 7.36328C9.79687 8.84766 8.59375 10.0508 7.11328 10.0508ZM26.7891 27.0039H22.1562V19.75C22.1562 18.0195 22.125 15.7969 19.7461 15.7969C17.3359 15.7969 16.9648 17.6797 16.9648 19.625V27.0039H12.3359V12.0898H16.7812V14.1289H16.8438C17.4609 12.957 18.9727 11.7188 21.2305 11.7188C25.9258 11.7188 26.7891 14.8086 26.7891 18.8242V27.0039Z" fill="#00A588"/>
</svg>
