<svg width="33" height="28" viewBox="0 0 33 28" fill="none" xmlns="http://www.w3.org/2000/svg">
<path d="M32.5792 3.93367C31.4061 4.4493 30.1294 4.82039 28.8143 4.96492C30.1796 4.1385 31.2021 2.83289 31.6898 1.29305C30.4086 2.06957 29.0051 2.61408 27.5415 2.90242C26.9297 2.23612 26.1899 1.70531 25.368 1.34307C24.5462 0.980839 23.6599 0.794937 22.7644 0.796952C19.1414 0.796952 16.2276 3.78914 16.2276 7.46101C16.2276 7.97664 16.2889 8.49226 16.3886 8.98836C10.9636 8.6993 6.12524 6.05867 2.90858 2.0157C2.32247 3.03568 2.01533 4.19705 2.01912 5.37898C2.01912 7.69148 3.17312 9.73054 4.93289 10.9298C3.89583 10.8882 2.88306 10.5977 1.97694 10.0821V10.1641C1.97694 13.4024 4.22362 16.086 7.2179 16.7032C6.65569 16.852 6.07734 16.9281 5.49647 16.9298C5.07091 16.9298 4.66835 16.8868 4.26195 16.8282C5.09008 19.4688 7.50161 21.3868 10.3732 21.4493C8.12654 23.2423 5.31245 24.2969 2.25682 24.2969C1.70857 24.2969 1.20249 24.2774 0.677246 24.2149C3.57568 26.1094 7.0147 27.2032 10.7183 27.2032C22.7414 27.2032 29.3204 17.0548 29.3204 8.24617C29.3204 7.95711 29.3204 7.66804 29.3012 7.37898C30.5741 6.42976 31.6898 5.25398 32.5792 3.93367Z" fill="#00A588"/>
</svg>
