<svg viewBox="0 0 156 94" fill="none" xmlns="http://www.w3.org/2000/svg">
<path d="M53.1437 74.4872C53.1437 77.9092 52.1673 80.5302 50.2146 82.3502C48.2714 84.1702 45.4608 85.0802 41.7829 85.0802H35.8963V64.2923H42.4227C45.8163 64.2923 48.4515 65.1881 50.3284 66.9797C52.2052 68.7712 53.1437 71.2737 53.1437 74.4872ZM48.5652 74.6009C48.5652 70.1362 46.5936 67.9039 42.6502 67.9039H40.3041V81.4402H42.1952C46.4419 81.4402 48.5652 79.1604 48.5652 74.6009ZM63.694 71.9705C62.7746 71.9705 62.0541 72.2643 61.5328 72.852C61.0114 73.4303 60.7128 74.255 60.637 75.3261H66.7226C66.7037 74.255 66.424 73.4303 65.8837 72.852C65.3434 72.2643 64.6135 71.9705 63.694 71.9705ZM64.3054 85.3646C61.7461 85.3646 59.746 84.6584 58.3051 83.246C56.8643 81.8336 56.1439 79.8335 56.1439 77.2456C56.1439 74.582 56.8074 72.525 58.1345 71.0747C59.4711 69.6149 61.3148 68.885 63.6656 68.885C65.9122 68.885 67.6611 69.5248 68.9123 70.8045C70.1636 72.0842 70.7892 73.8521 70.7892 76.1081V78.2125H60.5375C60.5849 79.4448 60.9498 80.407 61.6323 81.0989C62.3148 81.7909 63.2722 82.1369 64.5045 82.1369C65.4619 82.1369 66.3672 82.0374 67.2203 81.8383C68.0734 81.6393 68.9645 81.3217 69.8934 80.8857V84.2413C69.1351 84.6205 68.3246 84.9001 67.462 85.0802C66.5994 85.2698 65.5472 85.3646 64.3054 85.3646ZM88.5485 85.0802H84.2118V75.7953C84.2118 74.6483 84.0174 73.7905 83.6288 73.2217C83.2496 72.6435 82.6477 72.3544 81.823 72.3544C80.7139 72.3544 79.9082 72.762 79.4058 73.5772C78.9034 74.3924 78.6522 75.7337 78.6522 77.6011V85.0802H74.3155V69.1836H77.6285L78.2114 71.2169H78.4531C78.8797 70.487 79.4959 69.9182 80.3016 69.5106C81.1073 69.0935 82.0315 68.885 83.0743 68.885C85.4535 68.885 87.065 69.6623 87.9086 71.2169H88.2926C88.7191 70.4775 89.3447 69.904 90.1694 69.4964C91.0036 69.0888 91.942 68.885 92.9848 68.885C94.7858 68.885 96.1461 69.3495 97.0656 70.2784C97.9945 71.1979 98.459 72.6767 98.459 74.7147V85.0802H94.108V75.7953C94.108 74.6483 93.9137 73.7905 93.5251 73.2217C93.1459 72.6435 92.544 72.3544 91.7193 72.3544C90.6576 72.3544 89.8614 72.7335 89.3305 73.4919C88.8092 74.2502 88.5485 75.4541 88.5485 77.1035V85.0802ZM106.379 77.1035C106.379 78.677 106.635 79.8666 107.147 80.6724C107.668 81.4781 108.512 81.881 109.678 81.881C110.834 81.881 111.664 81.4828 112.166 80.6866C112.678 79.8809 112.934 78.6865 112.934 77.1035C112.934 75.5299 112.678 74.3497 112.166 73.563C111.654 72.7762 110.815 72.3828 109.649 72.3828C108.493 72.3828 107.659 72.7762 107.147 73.563C106.635 74.3403 106.379 75.5204 106.379 77.1035ZM117.37 77.1035C117.37 79.6913 116.687 81.7151 115.322 83.1749C113.957 84.6347 112.057 85.3646 109.621 85.3646C108.095 85.3646 106.749 85.0328 105.583 84.3693C104.417 83.6962 103.521 82.7341 102.895 81.4828C102.27 80.2316 101.957 78.7718 101.957 77.1035C101.957 74.5062 102.635 72.4871 103.99 71.0462C105.346 69.6054 107.251 68.885 109.706 68.885C111.232 68.885 112.578 69.2168 113.744 69.8803C114.91 70.5439 115.806 71.4965 116.432 72.7383C117.057 73.9801 117.37 75.4351 117.37 77.1035Z" fill="#5E5D5D"/>
<path d="M33.27 2.16333L26.6884 13.5225L20.1068 24.8818L16.8159 30.5614L13.1665 36.241C13.1665 36.241 15.3315 40.9766 20.2948 40.9766C24.6023 40.9766 27.0634 36.241 27.0634 36.241L40.2278 13.5225L46.8094 2.16333H33.27Z" fill="url(#paint0_linear)"/>
<path d="M20.1209 24.883L13.5392 13.5237L-0.000175476 13.5237L13.1643 36.2422C13.1643 36.2422 15.6254 40.9778 19.9329 40.9778C24.8961 40.9778 27.0603 36.2422 27.0603 36.2422L23.4117 30.5626L20.1209 24.883Z" fill="#30DA74"/>
<path d="M52.3217 12.6854C54.9899 12.6854 57.2223 10.453 57.2223 7.78485C57.2223 5.11675 54.9899 2.88426 52.3217 2.88426C49.5447 2.88426 47.4212 5.11675 47.4212 7.78485C47.4212 10.453 49.5447 12.6854 52.3217 12.6854ZM48.0201 41H56.6234V16.0614H48.0201V41ZM70.3994 16.0614H61.7961V41H70.3994V27.8773C70.3994 25.8626 73.0675 24.2291 76.2801 24.2291L78.4037 15.6258C75.79 15.6258 72.9041 16.1703 70.3994 17.4771V16.0614ZM84.1681 38.1685C86.455 40.2921 89.341 41.4356 92.4447 41.4356C95.4939 41.4356 98.4343 40.2921 100.667 38.1685C102.899 35.9361 104.152 33.0501 104.152 30.0009V16.0614H95.5484V30.0009C95.5484 31.58 94.1326 32.9412 92.4447 32.9412C90.7567 32.9412 89.341 31.58 89.341 30.0009V16.0614H80.7377V30.0009C80.7377 33.0501 81.9356 35.9361 84.1681 38.1685ZM120.194 1.03292C115.185 1.03292 111.101 5.00785 111.101 10.0718V16.0614H108.16V24.5013H111.101V41H119.704V24.5013H125.912V16.0614H119.704V10.1262C119.704 9.79954 119.976 9.47283 120.303 9.47283H125.53L127.763 1.03292H120.194ZM139.56 52.4892L154.371 16.0614H145.713L140.976 27.8228L136.129 16.0614H127.472L136.674 38.6586L131.065 52.4892H139.56Z" fill="#3578DE"/>
<defs>
<linearGradient id="paint0_linear" x1="42.4011" y1="0.000121497" x2="13.6576" y2="47.1822" gradientUnits="userSpaceOnUse">
<stop stop-color="#3578DE"/>
<stop stop-color="#3578DE"/>
<stop offset="0.260989" stop-color="#3578DE"/>
<stop offset="0.868813" stop-color="#3578DE" stop-opacity="0.52"/>
<stop offset="0.971831" stop-color="#3578DE" stop-opacity="0"/>
</linearGradient>
</defs>
</svg>
