<svg width="75" height="64" viewBox="0 0 75 64" fill="none" xmlns="http://www.w3.org/2000/svg">
<path d="M21.9141 53.1797C21.9141 55.0599 21.3776 56.5 20.3047 57.5C19.237 58.5 17.6927 59 15.6719 59H12.4375V47.5781H16.0234C17.888 47.5781 19.3359 48.0703 20.3672 49.0547C21.3984 50.0391 21.9141 51.4141 21.9141 53.1797ZM19.3984 53.2422C19.3984 50.7891 18.3151 49.5625 16.1484 49.5625H14.8594V57H15.8984C18.2318 57 19.3984 55.7474 19.3984 53.2422ZM27.7109 51.7969C27.2057 51.7969 26.8099 51.9583 26.5234 52.2812C26.237 52.599 26.0729 53.0521 26.0312 53.6406H29.375C29.3646 53.0521 29.2109 52.599 28.9141 52.2812C28.6172 51.9583 28.2161 51.7969 27.7109 51.7969ZM28.0469 59.1562C26.6406 59.1562 25.5417 58.7682 24.75 57.9922C23.9583 57.2161 23.5625 56.1172 23.5625 54.6953C23.5625 53.2318 23.9271 52.1016 24.6562 51.3047C25.3906 50.5026 26.4036 50.1016 27.6953 50.1016C28.9297 50.1016 29.8906 50.4531 30.5781 51.1562C31.2656 51.8594 31.6094 52.8307 31.6094 54.0703V55.2266H25.9766C26.0026 55.9036 26.2031 56.4323 26.5781 56.8125C26.9531 57.1927 27.4792 57.3828 28.1562 57.3828C28.6823 57.3828 29.1797 57.3281 29.6484 57.2188C30.1172 57.1094 30.6068 56.9349 31.1172 56.6953V58.5391C30.7005 58.7474 30.2552 58.901 29.7812 59C29.3073 59.1042 28.7292 59.1562 28.0469 59.1562ZM41.3672 59H38.9844V53.8984C38.9844 53.2682 38.8776 52.7969 38.6641 52.4844C38.4557 52.1667 38.125 52.0078 37.6719 52.0078C37.0625 52.0078 36.6198 52.2318 36.3438 52.6797C36.0677 53.1276 35.9297 53.8646 35.9297 54.8906V59H33.5469V50.2656H35.3672L35.6875 51.3828H35.8203C36.0547 50.9818 36.3932 50.6693 36.8359 50.4453C37.2786 50.2161 37.7865 50.1016 38.3594 50.1016C39.6667 50.1016 40.5521 50.5286 41.0156 51.3828H41.2266C41.4609 50.9766 41.8047 50.6615 42.2578 50.4375C42.7161 50.2135 43.2318 50.1016 43.8047 50.1016C44.7943 50.1016 45.5417 50.3568 46.0469 50.8672C46.5573 51.3724 46.8125 52.1849 46.8125 53.3047V59H44.4219V53.8984C44.4219 53.2682 44.3151 52.7969 44.1016 52.4844C43.8932 52.1667 43.5625 52.0078 43.1094 52.0078C42.526 52.0078 42.0885 52.2161 41.7969 52.6328C41.5104 53.0495 41.3672 53.7109 41.3672 54.6172V59ZM51.1641 54.6172C51.1641 55.4818 51.3047 56.1354 51.5859 56.5781C51.8724 57.0208 52.3359 57.2422 52.9766 57.2422C53.612 57.2422 54.0677 57.0234 54.3438 56.5859C54.625 56.1432 54.7656 55.487 54.7656 54.6172C54.7656 53.7526 54.625 53.1042 54.3438 52.6719C54.0625 52.2396 53.6016 52.0234 52.9609 52.0234C52.3255 52.0234 51.8672 52.2396 51.5859 52.6719C51.3047 53.099 51.1641 53.7474 51.1641 54.6172ZM57.2031 54.6172C57.2031 56.0391 56.8281 57.151 56.0781 57.9531C55.3281 58.7552 54.2839 59.1562 52.9453 59.1562C52.1068 59.1562 51.3672 58.974 50.7266 58.6094C50.0859 58.2396 49.5938 57.7109 49.25 57.0234C48.9062 56.3359 48.7344 55.5339 48.7344 54.6172C48.7344 53.1901 49.1068 52.0807 49.8516 51.2891C50.5964 50.4974 51.6432 50.1016 52.9922 50.1016C53.8307 50.1016 54.5703 50.2839 55.2109 50.6484C55.8516 51.013 56.3438 51.5365 56.6875 52.2188C57.0312 52.901 57.2031 53.7005 57.2031 54.6172Z" fill="#5E5D5D"/>
<path d="M37.8564 24.0292H39.7195L39.944 25.8632H40.0787C40.6173 24.4594 41.5227 23.7574 42.7946 23.7574C43.2136 23.7574 43.5803 23.8178 43.8946 23.9386V26.1576H43.064C42.1811 26.1576 41.4778 26.4142 40.954 26.9275C40.4303 27.4408 40.1684 28.2257 40.1684 29.2824V35.9395H37.8564V24.0292ZM49.1606 36.2112C46.6616 36.2112 45.4121 34.8451 45.4121 32.1128V24.0292H47.7241V31.8184C47.7241 32.7091 47.9186 33.3355 48.3077 33.6978C48.7118 34.045 49.2954 34.2186 50.0585 34.2186C50.5822 34.2186 51.0686 34.0903 51.5175 33.8337C51.9665 33.562 52.3181 33.1846 52.5725 32.7016C52.8418 32.2185 52.9766 31.6599 52.9766 31.0259V24.0292H55.2885V35.9395H53.4255L53.201 34.3545H53.0438C52.6099 34.9583 52.0637 35.4187 51.4053 35.7357C50.7469 36.0527 49.9986 36.2112 49.1606 36.2112ZM58.5037 25.9539H56.7978V24.0292H58.5037V22.2856C58.5037 21.4554 58.7132 20.7685 59.1323 20.2251C59.5663 19.6666 60.277 19.3873 61.2647 19.3873C61.5643 19.3873 61.8784 19.4175 62.2072 19.4779C62.5366 19.5383 62.8135 19.6062 63.0377 19.6817V21.3119H61.893C61.1748 21.3119 60.8157 21.6592 60.8157 22.3536V24.0292H63.0377V25.9539H60.8157V35.9395H58.5037V25.9539ZM66.5151 40.0606C65.7824 40.0606 65.206 39.9851 64.7868 39.8341V38.2944H65.7744C67.1361 38.2944 68.0492 37.5094 68.5131 35.9395L63.9342 24.0292H66.3581L68.5577 29.8711C68.8572 30.641 69.2385 31.826 69.7031 33.4261H69.8149C70.2341 31.9166 70.5782 30.7315 70.8478 29.8711L72.688 24.0292H75L71.0947 35.3282C70.5556 36.8377 69.95 38 69.2764 38.8152C68.6029 39.6455 67.6825 40.0606 66.5151 40.0606Z" fill="#393939"/>
<path d="M36.1975 20.0764C36.1879 20.0764 36.1784 20.0783 36.1696 20.082C36.1608 20.0857 36.1528 20.0911 36.146 20.0979C36.1392 20.1047 36.1339 20.1128 36.1302 20.1217C36.1265 20.1306 36.1247 20.1401 36.1247 20.1498V20.2233H35.9243C35.9066 20.071 35.8473 19.9267 35.753 19.8065L35.8948 19.6635L35.9519 19.7122C35.9586 19.719 35.9667 19.7244 35.9755 19.7281C35.9843 19.7318 35.9938 19.7338 36.0033 19.7338C36.0129 19.7338 36.0224 19.7319 36.0312 19.7282C36.0401 19.7245 36.0481 19.7191 36.0549 19.7123C36.0616 19.7054 36.067 19.6973 36.0707 19.6884C36.0744 19.6795 36.0762 19.6699 36.0762 19.6603C36.0762 19.6506 36.0743 19.6411 36.0706 19.6322C36.067 19.6233 36.0616 19.6152 36.0549 19.6083L35.8122 19.3636C35.7986 19.3498 35.7801 19.3421 35.7608 19.3421C35.7414 19.3421 35.7229 19.3498 35.7092 19.3636C35.6956 19.3773 35.6879 19.396 35.6879 19.4155C35.6879 19.435 35.6956 19.4537 35.7092 19.4674L35.7576 19.525L35.6158 19.668C35.4966 19.5729 35.3536 19.5131 35.2026 19.4952V19.2931H35.2754C35.2947 19.2931 35.3133 19.2854 35.3269 19.2716C35.3405 19.2578 35.3483 19.2392 35.3483 19.2197C35.3483 19.2002 35.3405 19.1816 35.3269 19.1678C35.3133 19.154 35.2947 19.1462 35.2754 19.1462H34.9358C34.9165 19.1462 34.8979 19.154 34.8842 19.1678C34.8706 19.1816 34.8629 19.2002 34.8629 19.2197C34.8629 19.2392 34.8706 19.2578 34.8842 19.2716C34.8979 19.2854 34.9165 19.2931 34.9358 19.2931H35.0085V19.4952C34.8576 19.5131 34.7145 19.5729 34.5953 19.668L34.4536 19.525L34.5019 19.4674C34.5087 19.4606 34.514 19.4525 34.5177 19.4436C34.5213 19.4347 34.5233 19.4251 34.5233 19.4155C34.5233 19.4059 34.5213 19.3963 34.5177 19.3874C34.514 19.3785 34.5087 19.3704 34.5019 19.3636C34.4952 19.3568 34.4871 19.3513 34.4783 19.3477C34.4695 19.344 34.46 19.3421 34.4505 19.3421C34.4312 19.3421 34.4127 19.3498 34.399 19.3636L34.1619 19.6083C34.1483 19.6221 34.1407 19.6408 34.1407 19.6602C34.1408 19.6797 34.1484 19.6983 34.1621 19.7121C34.1757 19.7258 34.1942 19.7336 34.2135 19.7336C34.2327 19.7336 34.2512 19.7259 34.2649 19.7122L34.3163 19.6635L34.4581 19.8065C34.3638 19.9267 34.3045 20.071 34.2868 20.2233H34.0865V20.1498C34.0865 20.1303 34.0788 20.1117 34.0652 20.0979C34.0515 20.0841 34.033 20.0764 34.0137 20.0764C33.9944 20.0764 33.9759 20.0841 33.9622 20.0979C33.9486 20.1117 33.9409 20.1303 33.9409 20.1498V20.4925C33.9409 20.5119 33.9486 20.5307 33.9622 20.5444C33.9759 20.5582 33.9944 20.5659 34.0137 20.5659C34.033 20.5659 34.0515 20.5582 34.0652 20.5444C34.0788 20.5307 34.0865 20.5119 34.0865 20.4925V20.4191H34.2868C34.3045 20.5713 34.3638 20.7156 34.4581 20.8358L34.3163 20.9789L34.2593 20.9301C34.2456 20.9164 34.2271 20.9087 34.2078 20.9087C34.1886 20.9087 34.1701 20.9164 34.1564 20.9301C34.1428 20.9439 34.1351 20.9626 34.1351 20.982C34.1351 21.0015 34.1427 21.0202 34.1564 21.0339L34.399 21.2787C34.4057 21.2856 34.4138 21.2909 34.4226 21.2946C34.4314 21.2983 34.4409 21.3002 34.4505 21.3002C34.46 21.3002 34.4695 21.2983 34.4783 21.2946C34.4871 21.2909 34.4952 21.2856 34.5019 21.2787C34.5087 21.2719 34.514 21.2638 34.5177 21.2549C34.5213 21.246 34.5233 21.2364 34.5233 21.2268C34.5233 21.2172 34.5213 21.2076 34.5177 21.1987C34.514 21.1898 34.5087 21.1817 34.5019 21.1749L34.4536 21.1173L34.5953 20.9743C34.7145 21.0694 34.8576 21.1292 35.0085 21.1471V21.3492H34.9358C34.9165 21.3492 34.8979 21.3569 34.8842 21.3707C34.8706 21.3845 34.8629 21.4031 34.8629 21.4226C34.8629 21.4421 34.8706 21.4608 34.8842 21.4746C34.8979 21.4883 34.9165 21.496 34.9358 21.496H35.2754C35.2947 21.496 35.3133 21.4883 35.3269 21.4746C35.3405 21.4608 35.3483 21.4421 35.3483 21.4226C35.3483 21.4031 35.3405 21.3845 35.3269 21.3707C35.3133 21.3569 35.2947 21.3492 35.2754 21.3492H35.2026V21.1471C35.3536 21.1292 35.4966 21.0694 35.6158 20.9743L35.7576 21.1173L35.7092 21.1749C35.6956 21.1887 35.6879 21.2074 35.6879 21.2268C35.6879 21.2463 35.6956 21.265 35.7092 21.2787C35.7229 21.2925 35.7414 21.3002 35.7608 21.3002C35.7801 21.3002 35.7986 21.2925 35.8122 21.2787L36.0549 21.0339C36.0616 21.0272 36.067 21.019 36.0706 21.0101C36.0743 21.0012 36.0762 20.9916 36.0762 20.982C36.0762 20.9724 36.0744 20.9628 36.0707 20.9539C36.067 20.945 36.0616 20.9369 36.0549 20.9301C36.0481 20.9232 36.0401 20.9178 36.0312 20.9141C36.0224 20.9105 36.0129 20.9085 36.0033 20.9085C35.9938 20.9085 35.9843 20.9105 35.9755 20.9142C35.9667 20.9179 35.9586 20.9233 35.9519 20.9301L35.8948 20.9789L35.753 20.8358C35.8473 20.7156 35.9066 20.5713 35.9243 20.4191H36.1247V20.4925C36.1247 20.5119 36.1323 20.5307 36.146 20.5444C36.1597 20.5582 36.1782 20.5659 36.1975 20.5659C36.2168 20.5659 36.2353 20.5582 36.2489 20.5444C36.2626 20.5307 36.2703 20.5119 36.2703 20.4925V20.1498C36.2703 20.1401 36.2684 20.1306 36.2647 20.1217C36.2611 20.1128 36.2557 20.1047 36.2489 20.0979C36.2422 20.0911 36.2342 20.0857 36.2254 20.082C36.2165 20.0783 36.2071 20.0764 36.1975 20.0764Z" fill="#393939"/>
<path d="M36.2703 23.8461H33.9409V35.9307H36.2703V23.8461Z" fill="#393939"/>
<path d="M12.4533 10.5173L24.5608 31.5536H18.3341H12.1074L0 10.5173H12.4533Z" fill="#00B696"/>
<path d="M30.269 0L24.2153 10.5181L18.1617 21.0363L15.1348 26.2953L12.1079 31.5544C12.1079 31.5544 13.7694 35.9393 18.3346 35.9393C22.2966 35.9393 24.5613 31.5544 24.5613 31.5544L36.6687 10.5181L42.7224 0H30.269Z" fill="#00A588"/>
</svg>
