<svg width="75" height="64" viewBox="0 0 75 64" fill="none" xmlns="http://www.w3.org/2000/svg">
  <path d="M30.4531 53.1797C30.4531 55.0599 29.9167 56.5 28.8438 57.5C27.776 58.5 26.2318 59 24.2109 59H20.9766V47.5781H24.5625C26.4271 47.5781 27.875 48.0703 28.9062 49.0547C29.9375 50.0391 30.4531 51.4141 30.4531 53.1797ZM27.9375 53.2422C27.9375 50.7891 26.8542 49.5625 24.6875 49.5625H23.3984V57H24.4375C26.7708 57 27.9375 55.7474 27.9375 53.2422ZM36.25 51.7969C35.7448 51.7969 35.349 51.9583 35.0625 52.2812C34.776 52.599 34.612 53.0521 34.5703 53.6406H37.9141C37.9036 53.0521 37.75 52.599 37.4531 52.2812C37.1562 51.9583 36.7552 51.7969 36.25 51.7969ZM36.5859 59.1562C35.1797 59.1562 34.0807 58.7682 33.2891 57.9922C32.4974 57.2161 32.1016 56.1172 32.1016 54.6953C32.1016 53.2318 32.4661 52.1016 33.1953 51.3047C33.9297 50.5026 34.9427 50.1016 36.2344 50.1016C37.4688 50.1016 38.4297 50.4531 39.1172 51.1562C39.8047 51.8594 40.1484 52.8307 40.1484 54.0703V55.2266H34.5156C34.5417 55.9036 34.7422 56.4323 35.1172 56.8125C35.4922 57.1927 36.0182 57.3828 36.6953 57.3828C37.2214 57.3828 37.7188 57.3281 38.1875 57.2188C38.6562 57.1094 39.1458 56.9349 39.6562 56.6953V58.5391C39.2396 58.7474 38.7943 58.901 38.3203 59C37.8464 59.1042 37.2682 59.1562 36.5859 59.1562ZM49.9062 59H47.5234V53.8984C47.5234 53.2682 47.4167 52.7969 47.2031 52.4844C46.9948 52.1667 46.6641 52.0078 46.2109 52.0078C45.6016 52.0078 45.1589 52.2318 44.8828 52.6797C44.6068 53.1276 44.4688 53.8646 44.4688 54.8906V59H42.0859V50.2656H43.9062L44.2266 51.3828H44.3594C44.5938 50.9818 44.9323 50.6693 45.375 50.4453C45.8177 50.2161 46.3255 50.1016 46.8984 50.1016C48.2057 50.1016 49.0911 50.5286 49.5547 51.3828H49.7656C50 50.9766 50.3438 50.6615 50.7969 50.4375C51.2552 50.2135 51.7708 50.1016 52.3438 50.1016C53.3333 50.1016 54.0807 50.3568 54.5859 50.8672C55.0964 51.3724 55.3516 52.1849 55.3516 53.3047V59H52.9609V53.8984C52.9609 53.2682 52.8542 52.7969 52.6406 52.4844C52.4323 52.1667 52.1016 52.0078 51.6484 52.0078C51.0651 52.0078 50.6276 52.2161 50.3359 52.6328C50.0495 53.0495 49.9062 53.7109 49.9062 54.6172V59ZM59.7031 54.6172C59.7031 55.4818 59.8438 56.1354 60.125 56.5781C60.4115 57.0208 60.875 57.2422 61.5156 57.2422C62.151 57.2422 62.6068 57.0234 62.8828 56.5859C63.1641 56.1432 63.3047 55.487 63.3047 54.6172C63.3047 53.7526 63.1641 53.1042 62.8828 52.6719C62.6016 52.2396 62.1406 52.0234 61.5 52.0234C60.8646 52.0234 60.4062 52.2396 60.125 52.6719C59.8438 53.099 59.7031 53.7474 59.7031 54.6172ZM65.7422 54.6172C65.7422 56.0391 65.3672 57.151 64.6172 57.9531C63.8672 58.7552 62.8229 59.1562 61.4844 59.1562C60.6458 59.1562 59.9062 58.974 59.2656 58.6094C58.625 58.2396 58.1328 57.7109 57.7891 57.0234C57.4453 56.3359 57.2734 55.5339 57.2734 54.6172C57.2734 53.1901 57.6458 52.0807 58.3906 51.2891C59.1354 50.4974 60.1823 50.1016 61.5312 50.1016C62.3698 50.1016 63.1094 50.2839 63.75 50.6484C64.3906 51.013 64.8828 51.5365 65.2266 52.2188C65.5703 52.901 65.7422 53.7005 65.7422 54.6172Z" fill="#5E5D5D"/>
  <path d="M37.8564 24.0292H39.7195L39.944 25.8632H40.0787C40.6173 24.4594 41.5227 23.7574 42.7946 23.7574C43.2136 23.7574 43.5803 23.8178 43.8946 23.9386V26.1576H43.064C42.1811 26.1576 41.4778 26.4142 40.954 26.9275C40.4303 27.4408 40.1684 28.2257 40.1684 29.2824V35.9395H37.8564V24.0292ZM49.1606 36.2112C46.6616 36.2112 45.4121 34.8451 45.4121 32.1128V24.0292H47.7241V31.8184C47.7241 32.7091 47.9186 33.3355 48.3077 33.6978C48.7118 34.045 49.2954 34.2186 50.0585 34.2186C50.5822 34.2186 51.0686 34.0903 51.5175 33.8337C51.9665 33.562 52.3181 33.1846 52.5725 32.7016C52.8418 32.2185 52.9766 31.6599 52.9766 31.0259V24.0292H55.2885V35.9395H53.4255L53.201 34.3545H53.0438C52.6099 34.9583 52.0637 35.4187 51.4053 35.7357C50.7469 36.0527 49.9986 36.2112 49.1606 36.2112ZM58.5037 25.9539H56.7978V24.0292H58.5037V22.2856C58.5037 21.4554 58.7132 20.7685 59.1323 20.2251C59.5663 19.6666 60.277 19.3873 61.2647 19.3873C61.5643 19.3873 61.8784 19.4175 62.2072 19.4779C62.5366 19.5383 62.8135 19.6062 63.0377 19.6817V21.3119H61.893C61.1748 21.3119 60.8157 21.6592 60.8157 22.3536V24.0292H63.0377V25.9539H60.8157V35.9395H58.5037V25.9539ZM66.5151 40.0606C65.7824 40.0606 65.206 39.9851 64.7868 39.8341V38.2944H65.7744C67.1361 38.2944 68.0492 37.5094 68.5131 35.9395L63.9342 24.0292H66.3581L68.5577 29.8711C68.8572 30.641 69.2385 31.826 69.7031 33.4261H69.8149C70.2341 31.9166 70.5782 30.7315 70.8478 29.8711L72.688 24.0292H75L71.0947 35.3282C70.5556 36.8377 69.95 38 69.2764 38.8152C68.6029 39.6455 67.6825 40.0606 66.5151 40.0606Z" fill="#393939"/>
  <path d="M36.1975 20.0764C36.1879 20.0764 36.1784 20.0783 36.1696 20.082C36.1608 20.0857 36.1528 20.0911 36.146 20.0979C36.1392 20.1047 36.1339 20.1128 36.1302 20.1217C36.1265 20.1306 36.1247 20.1401 36.1247 20.1498V20.2233H35.9243C35.9066 20.071 35.8473 19.9267 35.753 19.8065L35.8948 19.6635L35.9519 19.7122C35.9586 19.719 35.9667 19.7244 35.9755 19.7281C35.9843 19.7318 35.9938 19.7338 36.0033 19.7338C36.0129 19.7338 36.0224 19.7319 36.0312 19.7282C36.0401 19.7245 36.0481 19.7191 36.0549 19.7123C36.0616 19.7054 36.067 19.6973 36.0707 19.6884C36.0744 19.6795 36.0762 19.6699 36.0762 19.6603C36.0762 19.6506 36.0743 19.6411 36.0706 19.6322C36.067 19.6233 36.0616 19.6152 36.0549 19.6083L35.8122 19.3636C35.7986 19.3498 35.7801 19.3421 35.7608 19.3421C35.7414 19.3421 35.7229 19.3498 35.7092 19.3636C35.6956 19.3773 35.6879 19.396 35.6879 19.4155C35.6879 19.435 35.6956 19.4537 35.7092 19.4674L35.7576 19.525L35.6158 19.668C35.4966 19.5729 35.3536 19.5131 35.2026 19.4952V19.2931H35.2754C35.2947 19.2931 35.3133 19.2854 35.3269 19.2716C35.3405 19.2578 35.3483 19.2392 35.3483 19.2197C35.3483 19.2002 35.3405 19.1816 35.3269 19.1678C35.3133 19.154 35.2947 19.1462 35.2754 19.1462H34.9358C34.9165 19.1462 34.8979 19.154 34.8842 19.1678C34.8706 19.1816 34.8629 19.2002 34.8629 19.2197C34.8629 19.2392 34.8706 19.2578 34.8842 19.2716C34.8979 19.2854 34.9165 19.2931 34.9358 19.2931H35.0085V19.4952C34.8576 19.5131 34.7145 19.5729 34.5953 19.668L34.4536 19.525L34.5019 19.4674C34.5087 19.4606 34.514 19.4525 34.5177 19.4436C34.5213 19.4347 34.5233 19.4251 34.5233 19.4155C34.5233 19.4059 34.5213 19.3963 34.5177 19.3874C34.514 19.3785 34.5087 19.3704 34.5019 19.3636C34.4952 19.3568 34.4871 19.3513 34.4783 19.3477C34.4695 19.344 34.46 19.3421 34.4505 19.3421C34.4312 19.3421 34.4127 19.3498 34.399 19.3636L34.1619 19.6083C34.1483 19.6221 34.1407 19.6408 34.1407 19.6602C34.1408 19.6797 34.1484 19.6983 34.1621 19.7121C34.1757 19.7258 34.1942 19.7336 34.2135 19.7336C34.2327 19.7336 34.2512 19.7259 34.2649 19.7122L34.3163 19.6635L34.4581 19.8065C34.3638 19.9267 34.3045 20.071 34.2868 20.2233H34.0865V20.1498C34.0865 20.1303 34.0788 20.1117 34.0652 20.0979C34.0515 20.0841 34.033 20.0764 34.0137 20.0764C33.9944 20.0764 33.9759 20.0841 33.9622 20.0979C33.9486 20.1117 33.9409 20.1303 33.9409 20.1498V20.4925C33.9409 20.5119 33.9486 20.5307 33.9622 20.5444C33.9759 20.5582 33.9944 20.5659 34.0137 20.5659C34.033 20.5659 34.0515 20.5582 34.0652 20.5444C34.0788 20.5307 34.0865 20.5119 34.0865 20.4925V20.4191H34.2868C34.3045 20.5713 34.3638 20.7156 34.4581 20.8358L34.3163 20.9789L34.2593 20.9301C34.2456 20.9164 34.2271 20.9087 34.2078 20.9087C34.1886 20.9087 34.1701 20.9164 34.1564 20.9301C34.1428 20.9439 34.1351 20.9626 34.1351 20.982C34.1351 21.0015 34.1427 21.0202 34.1564 21.0339L34.399 21.2787C34.4057 21.2856 34.4138 21.2909 34.4226 21.2946C34.4314 21.2983 34.4409 21.3002 34.4505 21.3002C34.46 21.3002 34.4695 21.2983 34.4783 21.2946C34.4871 21.2909 34.4952 21.2856 34.5019 21.2787C34.5087 21.2719 34.514 21.2638 34.5177 21.2549C34.5213 21.246 34.5233 21.2364 34.5233 21.2268C34.5233 21.2172 34.5213 21.2076 34.5177 21.1987C34.514 21.1898 34.5087 21.1817 34.5019 21.1749L34.4536 21.1173L34.5953 20.9743C34.7145 21.0694 34.8576 21.1292 35.0085 21.1471V21.3492H34.9358C34.9165 21.3492 34.8979 21.3569 34.8842 21.3707C34.8706 21.3845 34.8629 21.4031 34.8629 21.4226C34.8629 21.4421 34.8706 21.4608 34.8842 21.4746C34.8979 21.4883 34.9165 21.496 34.9358 21.496H35.2754C35.2947 21.496 35.3133 21.4883 35.3269 21.4746C35.3405 21.4608 35.3483 21.4421 35.3483 21.4226C35.3483 21.4031 35.3405 21.3845 35.3269 21.3707C35.3133 21.3569 35.2947 21.3492 35.2754 21.3492H35.2026V21.1471C35.3536 21.1292 35.4966 21.0694 35.6158 20.9743L35.7576 21.1173L35.7092 21.1749C35.6956 21.1887 35.6879 21.2074 35.6879 21.2268C35.6879 21.2463 35.6956 21.265 35.7092 21.2787C35.7229 21.2925 35.7414 21.3002 35.7608 21.3002C35.7801 21.3002 35.7986 21.2925 35.8122 21.2787L36.0549 21.0339C36.0616 21.0272 36.067 21.019 36.0706 21.0101C36.0743 21.0012 36.0762 20.9916 36.0762 20.982C36.0762 20.9724 36.0744 20.9628 36.0707 20.9539C36.067 20.945 36.0616 20.9369 36.0549 20.9301C36.0481 20.9232 36.0401 20.9178 36.0312 20.9141C36.0224 20.9105 36.0129 20.9085 36.0033 20.9085C35.9938 20.9085 35.9843 20.9105 35.9755 20.9142C35.9667 20.9179 35.9586 20.9233 35.9519 20.9301L35.8948 20.9789L35.753 20.8358C35.8473 20.7156 35.9066 20.5713 35.9243 20.4191H36.1247V20.4925C36.1247 20.5119 36.1323 20.5307 36.146 20.5444C36.1597 20.5582 36.1782 20.5659 36.1975 20.5659C36.2168 20.5659 36.2353 20.5582 36.2489 20.5444C36.2626 20.5307 36.2703 20.5119 36.2703 20.4925V20.1498C36.2703 20.1401 36.2684 20.1306 36.2647 20.1217C36.2611 20.1128 36.2557 20.1047 36.2489 20.0979C36.2422 20.0911 36.2342 20.0857 36.2254 20.082C36.2165 20.0783 36.2071 20.0764 36.1975 20.0764Z" fill="#393939"/>
  <path d="M36.2703 23.8461H33.9409V35.9307H36.2703V23.8461Z" fill="#393939"/>
  <path d="M12.4533 10.5173L24.5608 31.5536H18.3341H12.1074L0 10.5173H12.4533Z" fill="#00B696"/>
  <path d="M30.269 0L24.2153 10.5181L18.1617 21.0363L15.1348 26.2953L12.1079 31.5544C12.1079 31.5544 13.7694 35.9393 18.3346 35.9393C22.2966 35.9393 24.5613 31.5544 24.5613 31.5544L36.6687 10.5181L42.7224 0H30.269Z" fill="#00A588"/>
</svg>
